M48
;DRILL file {KiCad (5.0.1)-3} date 19.12.2019 09:37:49
;FORMAT={-:-/ absolute / inch / decimal}
FMAT,2
INCH,TZ
T1C0.0157
T2C0.0236
T3C0.0394
T4C0.0472
%
G90
G05
M72
T1
X3.5Y-2.072
X3.5Y-3.297
X3.5Y-4.697
X3.55Y-2.5
X3.55Y-3.725
X3.55Y-5.125
X3.9Y-2.147
X3.9Y-3.372
X3.9Y-4.772
X3.975Y-2.5
X3.975Y-3.725
X3.975Y-5.125
X4.35Y-2.15
X4.35Y-3.375
X4.35Y-4.775
X4.525Y-2.5
X4.525Y-3.725
X4.525Y-5.125
X4.8Y-3.45
X4.875Y-2.15
X4.875Y-4.775
X5.025Y-2.5
X5.025Y-3.725
X5.025Y-5.125
X5.075Y-5.625
X5.25Y-5.575
X5.45Y-5.525
X5.625Y-2.865
X5.625Y-2.865
X5.675Y-2.825
X5.825Y-3.025
X5.875Y-1.725
X5.875Y-3.065
X6.Y-4.7268
X6.05Y-5.
X6.175Y-4.45
T2
X3.675Y-1.525
X4.325Y-1.525
X5.725Y-5.525
X6.05Y-4.6541
X6.525Y-5.375
T3
X3.075Y-3.8
X3.075Y-3.9
X3.075Y-4.
X3.075Y-4.1
X3.075Y-4.2
X3.075Y-4.3
X3.075Y-4.4
X3.075Y-4.5
X5.45Y-5.7
X5.55Y-5.7
X5.65Y-1.6
X5.75Y-1.6
X5.85Y-1.6
X5.05Y-5.7
X3.075Y-5.4
X3.075Y-5.5
X3.075Y-5.6
X3.075Y-5.7
X3.075Y-1.9
X3.075Y-2.
X3.075Y-2.1
X3.075Y-1.6
X3.175Y-1.6
X5.05Y-1.6
X5.15Y-1.6
X5.25Y-1.6
X5.75Y-2.29
X5.75Y-2.39
X5.75Y-2.49
X5.75Y-2.59
X5.75Y-2.69
X5.75Y-2.79
X5.75Y-2.89
X5.75Y-2.99
X5.75Y-3.09
X5.75Y-3.19
X5.75Y-3.35
X5.75Y-3.45
X5.75Y-3.55
X5.75Y-3.65
X5.75Y-3.75
X5.75Y-3.85
X5.75Y-3.95
X5.75Y-4.05
X7.65Y-2.75
X7.65Y-2.85
X7.65Y-2.95
X7.65Y-3.05
X7.65Y-3.15
X7.65Y-3.25
X7.65Y-3.35
X7.65Y-3.55
X7.65Y-3.65
X7.65Y-3.75
X7.65Y-3.85
X7.65Y-3.95
X7.65Y-4.05
X7.65Y-1.775
X7.65Y-1.875
X3.075Y-2.775
X3.075Y-2.875
X3.075Y-2.975
X3.075Y-3.075
X5.7Y-5.7
X5.8Y-5.7
X5.2Y-5.7
X5.3Y-5.7
T4
X3.1872Y-2.775
X3.1872Y-5.4
X3.2Y-2.875
X3.2Y-2.975
X3.2Y-3.075
X3.2Y-3.8
X3.2Y-4.1
X3.2Y-4.2
X3.2Y-4.5
X3.2Y-5.5
X3.2Y-5.6
X3.2Y-5.7
X3.35Y-2.7734
X3.35Y-2.7734
X3.35Y-3.9984
X3.35Y-3.9984
X3.35Y-5.3984
X3.35Y-5.3984
X3.975Y-2.85
X3.975Y-4.075
X3.975Y-5.475
X4.475Y-2.85
X4.475Y-4.075
X4.475Y-5.475
X5.Y-2.85
X5.Y-4.075
X5.Y-5.475
T0
M30
