G04 #@! TF.GenerationSoftware,KiCad,Pcbnew,(5.0.1)-3*
G04 #@! TF.CreationDate,2019-12-19T09:37:46+04:00*
G04 #@! TF.ProjectId,Roboarm,526F626F61726D2E6B696361645F7063,rev?*
G04 #@! TF.SameCoordinates,Original*
G04 #@! TF.FileFunction,Soldermask,Top*
G04 #@! TF.FilePolarity,Negative*
%FSLAX46Y46*%
G04 Gerber Fmt 4.6, Leading zero omitted, Abs format (unit mm)*
G04 Created by KiCad (PCBNEW (5.0.1)-3) date 19.12.2019 09:37:46*
%MOMM*%
%LPD*%
G01*
G04 APERTURE LIST*
%ADD10C,0.100000*%
G04 APERTURE END LIST*
D10*
G36*
X155791000Y-146026000D02*
X154089000Y-146026000D01*
X154089000Y-143324000D01*
X155791000Y-143324000D01*
X155791000Y-146026000D01*
X155791000Y-146026000D01*
G37*
G36*
X147430443Y-143885519D02*
X147496627Y-143892037D01*
X147609853Y-143926384D01*
X147666467Y-143943557D01*
X147805087Y-144017652D01*
X147822991Y-144027222D01*
X147858729Y-144056552D01*
X147960186Y-144139814D01*
X148043448Y-144241271D01*
X148072778Y-144277009D01*
X148072779Y-144277011D01*
X148156443Y-144433533D01*
X148156443Y-144433534D01*
X148207963Y-144603373D01*
X148225359Y-144780000D01*
X148207963Y-144956627D01*
X148173616Y-145069853D01*
X148156443Y-145126467D01*
X148082348Y-145265087D01*
X148072778Y-145282991D01*
X148043448Y-145318729D01*
X147960186Y-145420186D01*
X147858729Y-145503448D01*
X147822991Y-145532778D01*
X147822989Y-145532779D01*
X147666467Y-145616443D01*
X147609853Y-145633616D01*
X147496627Y-145667963D01*
X147430443Y-145674481D01*
X147364260Y-145681000D01*
X147275740Y-145681000D01*
X147209557Y-145674481D01*
X147143373Y-145667963D01*
X147030147Y-145633616D01*
X146973533Y-145616443D01*
X146817011Y-145532779D01*
X146817009Y-145532778D01*
X146781271Y-145503448D01*
X146679814Y-145420186D01*
X146596552Y-145318729D01*
X146567222Y-145282991D01*
X146557652Y-145265087D01*
X146483557Y-145126467D01*
X146466384Y-145069853D01*
X146432037Y-144956627D01*
X146414641Y-144780000D01*
X146432037Y-144603373D01*
X146483557Y-144433534D01*
X146483557Y-144433533D01*
X146567221Y-144277011D01*
X146567222Y-144277009D01*
X146596552Y-144241271D01*
X146679814Y-144139814D01*
X146781271Y-144056552D01*
X146817009Y-144027222D01*
X146834913Y-144017652D01*
X146973533Y-143943557D01*
X147030147Y-143926384D01*
X147143373Y-143892037D01*
X147209557Y-143885519D01*
X147275740Y-143879000D01*
X147364260Y-143879000D01*
X147430443Y-143885519D01*
X147430443Y-143885519D01*
G37*
G36*
X129171000Y-145681000D02*
X127369000Y-145681000D01*
X127369000Y-143879000D01*
X129171000Y-143879000D01*
X129171000Y-145681000D01*
X129171000Y-145681000D01*
G37*
G36*
X145681000Y-145681000D02*
X143879000Y-145681000D01*
X143879000Y-143879000D01*
X145681000Y-143879000D01*
X145681000Y-145681000D01*
X145681000Y-145681000D01*
G37*
G36*
X78215443Y-143885519D02*
X78281627Y-143892037D01*
X78394853Y-143926384D01*
X78451467Y-143943557D01*
X78590087Y-144017652D01*
X78607991Y-144027222D01*
X78643729Y-144056552D01*
X78745186Y-144139814D01*
X78828448Y-144241271D01*
X78857778Y-144277009D01*
X78857779Y-144277011D01*
X78941443Y-144433533D01*
X78941443Y-144433534D01*
X78992963Y-144603373D01*
X79010359Y-144780000D01*
X78992963Y-144956627D01*
X78958616Y-145069853D01*
X78941443Y-145126467D01*
X78867348Y-145265087D01*
X78857778Y-145282991D01*
X78828448Y-145318729D01*
X78745186Y-145420186D01*
X78643729Y-145503448D01*
X78607991Y-145532778D01*
X78607989Y-145532779D01*
X78451467Y-145616443D01*
X78394853Y-145633616D01*
X78281627Y-145667963D01*
X78215443Y-145674481D01*
X78149260Y-145681000D01*
X78060740Y-145681000D01*
X77994557Y-145674481D01*
X77928373Y-145667963D01*
X77815147Y-145633616D01*
X77758533Y-145616443D01*
X77602011Y-145532779D01*
X77602009Y-145532778D01*
X77566271Y-145503448D01*
X77464814Y-145420186D01*
X77381552Y-145318729D01*
X77352222Y-145282991D01*
X77342652Y-145265087D01*
X77268557Y-145126467D01*
X77251384Y-145069853D01*
X77217037Y-144956627D01*
X77199641Y-144780000D01*
X77217037Y-144603373D01*
X77268557Y-144433534D01*
X77268557Y-144433533D01*
X77352221Y-144277011D01*
X77352222Y-144277009D01*
X77381552Y-144241271D01*
X77464814Y-144139814D01*
X77566271Y-144056552D01*
X77602009Y-144027222D01*
X77619913Y-144017652D01*
X77758533Y-143943557D01*
X77815147Y-143926384D01*
X77928373Y-143892037D01*
X77994557Y-143885519D01*
X78060740Y-143879000D01*
X78149260Y-143879000D01*
X78215443Y-143885519D01*
X78215443Y-143885519D01*
G37*
G36*
X132190443Y-143885519D02*
X132256627Y-143892037D01*
X132369853Y-143926384D01*
X132426467Y-143943557D01*
X132565087Y-144017652D01*
X132582991Y-144027222D01*
X132618729Y-144056552D01*
X132720186Y-144139814D01*
X132803448Y-144241271D01*
X132832778Y-144277009D01*
X132832779Y-144277011D01*
X132916443Y-144433533D01*
X132916443Y-144433534D01*
X132967963Y-144603373D01*
X132985359Y-144780000D01*
X132967963Y-144956627D01*
X132933616Y-145069853D01*
X132916443Y-145126467D01*
X132842348Y-145265087D01*
X132832778Y-145282991D01*
X132803448Y-145318729D01*
X132720186Y-145420186D01*
X132618729Y-145503448D01*
X132582991Y-145532778D01*
X132582989Y-145532779D01*
X132426467Y-145616443D01*
X132369853Y-145633616D01*
X132256627Y-145667963D01*
X132190443Y-145674481D01*
X132124260Y-145681000D01*
X132035740Y-145681000D01*
X131969557Y-145674481D01*
X131903373Y-145667963D01*
X131790147Y-145633616D01*
X131733533Y-145616443D01*
X131577011Y-145532779D01*
X131577009Y-145532778D01*
X131541271Y-145503448D01*
X131439814Y-145420186D01*
X131356552Y-145318729D01*
X131327222Y-145282991D01*
X131317652Y-145265087D01*
X131243557Y-145126467D01*
X131226384Y-145069853D01*
X131192037Y-144956627D01*
X131174641Y-144780000D01*
X131192037Y-144603373D01*
X131243557Y-144433534D01*
X131243557Y-144433533D01*
X131327221Y-144277011D01*
X131327222Y-144277009D01*
X131356552Y-144241271D01*
X131439814Y-144139814D01*
X131541271Y-144056552D01*
X131577009Y-144027222D01*
X131594913Y-144017652D01*
X131733533Y-143943557D01*
X131790147Y-143926384D01*
X131903373Y-143892037D01*
X131969557Y-143885519D01*
X132035740Y-143879000D01*
X132124260Y-143879000D01*
X132190443Y-143885519D01*
X132190443Y-143885519D01*
G37*
G36*
X141871000Y-145681000D02*
X140069000Y-145681000D01*
X140069000Y-143879000D01*
X141871000Y-143879000D01*
X141871000Y-145681000D01*
X141871000Y-145681000D01*
G37*
G36*
X138540443Y-143885519D02*
X138606627Y-143892037D01*
X138719853Y-143926384D01*
X138776467Y-143943557D01*
X138915087Y-144017652D01*
X138932991Y-144027222D01*
X138968729Y-144056552D01*
X139070186Y-144139814D01*
X139153448Y-144241271D01*
X139182778Y-144277009D01*
X139182779Y-144277011D01*
X139266443Y-144433533D01*
X139266443Y-144433534D01*
X139317963Y-144603373D01*
X139335359Y-144780000D01*
X139317963Y-144956627D01*
X139283616Y-145069853D01*
X139266443Y-145126467D01*
X139192348Y-145265087D01*
X139182778Y-145282991D01*
X139153448Y-145318729D01*
X139070186Y-145420186D01*
X138968729Y-145503448D01*
X138932991Y-145532778D01*
X138932989Y-145532779D01*
X138776467Y-145616443D01*
X138719853Y-145633616D01*
X138606627Y-145667963D01*
X138540443Y-145674481D01*
X138474260Y-145681000D01*
X138385740Y-145681000D01*
X138319557Y-145674481D01*
X138253373Y-145667963D01*
X138140147Y-145633616D01*
X138083533Y-145616443D01*
X137927011Y-145532779D01*
X137927009Y-145532778D01*
X137891271Y-145503448D01*
X137789814Y-145420186D01*
X137706552Y-145318729D01*
X137677222Y-145282991D01*
X137667652Y-145265087D01*
X137593557Y-145126467D01*
X137576384Y-145069853D01*
X137542037Y-144956627D01*
X137524641Y-144780000D01*
X137542037Y-144603373D01*
X137593557Y-144433534D01*
X137593557Y-144433533D01*
X137677221Y-144277011D01*
X137677222Y-144277009D01*
X137706552Y-144241271D01*
X137789814Y-144139814D01*
X137891271Y-144056552D01*
X137927009Y-144027222D01*
X137944913Y-144017652D01*
X138083533Y-143943557D01*
X138140147Y-143926384D01*
X138253373Y-143892037D01*
X138319557Y-143885519D01*
X138385740Y-143879000D01*
X138474260Y-143879000D01*
X138540443Y-143885519D01*
X138540443Y-143885519D01*
G37*
G36*
X135521000Y-145681000D02*
X133719000Y-145681000D01*
X133719000Y-143879000D01*
X135521000Y-143879000D01*
X135521000Y-145681000D01*
X135521000Y-145681000D01*
G37*
G36*
X162171000Y-145376000D02*
X160569000Y-145376000D01*
X160569000Y-143974000D01*
X162171000Y-143974000D01*
X162171000Y-145376000D01*
X162171000Y-145376000D01*
G37*
G36*
X159471000Y-145376000D02*
X157869000Y-145376000D01*
X157869000Y-143974000D01*
X159471000Y-143974000D01*
X159471000Y-145376000D01*
X159471000Y-145376000D01*
G37*
G36*
X78215442Y-141345518D02*
X78281627Y-141352037D01*
X78394853Y-141386384D01*
X78451467Y-141403557D01*
X78590087Y-141477652D01*
X78607991Y-141487222D01*
X78643729Y-141516552D01*
X78745186Y-141599814D01*
X78828448Y-141701271D01*
X78857778Y-141737009D01*
X78857779Y-141737011D01*
X78941443Y-141893533D01*
X78941443Y-141893534D01*
X78992963Y-142063373D01*
X79010359Y-142240000D01*
X78992963Y-142416627D01*
X78958616Y-142529853D01*
X78941443Y-142586467D01*
X78867348Y-142725087D01*
X78857778Y-142742991D01*
X78828448Y-142778729D01*
X78745186Y-142880186D01*
X78643729Y-142963448D01*
X78607991Y-142992778D01*
X78607989Y-142992779D01*
X78451467Y-143076443D01*
X78394853Y-143093616D01*
X78281627Y-143127963D01*
X78215443Y-143134481D01*
X78149260Y-143141000D01*
X78060740Y-143141000D01*
X77994557Y-143134481D01*
X77928373Y-143127963D01*
X77815147Y-143093616D01*
X77758533Y-143076443D01*
X77602011Y-142992779D01*
X77602009Y-142992778D01*
X77566271Y-142963448D01*
X77464814Y-142880186D01*
X77381552Y-142778729D01*
X77352222Y-142742991D01*
X77342652Y-142725087D01*
X77268557Y-142586467D01*
X77251384Y-142529853D01*
X77217037Y-142416627D01*
X77199641Y-142240000D01*
X77217037Y-142063373D01*
X77268557Y-141893534D01*
X77268557Y-141893533D01*
X77352221Y-141737011D01*
X77352222Y-141737009D01*
X77381552Y-141701271D01*
X77464814Y-141599814D01*
X77566271Y-141516552D01*
X77602009Y-141487222D01*
X77619913Y-141477652D01*
X77758533Y-141403557D01*
X77815147Y-141386384D01*
X77928373Y-141352037D01*
X77994558Y-141345518D01*
X78060740Y-141339000D01*
X78149260Y-141339000D01*
X78215442Y-141345518D01*
X78215442Y-141345518D01*
G37*
G36*
X155791000Y-142426000D02*
X154089000Y-142426000D01*
X154089000Y-139724000D01*
X155791000Y-139724000D01*
X155791000Y-142426000D01*
X155791000Y-142426000D01*
G37*
G36*
X78215442Y-138805518D02*
X78281627Y-138812037D01*
X78394853Y-138846384D01*
X78451467Y-138863557D01*
X78590087Y-138937652D01*
X78607991Y-138947222D01*
X78643729Y-138976552D01*
X78745186Y-139059814D01*
X78828448Y-139161271D01*
X78857778Y-139197009D01*
X78857779Y-139197011D01*
X78941443Y-139353533D01*
X78941443Y-139353534D01*
X78992963Y-139523373D01*
X79010359Y-139700000D01*
X78992963Y-139876627D01*
X78971919Y-139946000D01*
X78941443Y-140046467D01*
X78867348Y-140185087D01*
X78857778Y-140202991D01*
X78828448Y-140238729D01*
X78745186Y-140340186D01*
X78643729Y-140423448D01*
X78607991Y-140452778D01*
X78607989Y-140452779D01*
X78451467Y-140536443D01*
X78394853Y-140553616D01*
X78281627Y-140587963D01*
X78215442Y-140594482D01*
X78149260Y-140601000D01*
X78060740Y-140601000D01*
X77994558Y-140594482D01*
X77928373Y-140587963D01*
X77815147Y-140553616D01*
X77758533Y-140536443D01*
X77602011Y-140452779D01*
X77602009Y-140452778D01*
X77566271Y-140423448D01*
X77464814Y-140340186D01*
X77381552Y-140238729D01*
X77352222Y-140202991D01*
X77342652Y-140185087D01*
X77268557Y-140046467D01*
X77238081Y-139946000D01*
X77217037Y-139876627D01*
X77199641Y-139700000D01*
X77217037Y-139523373D01*
X77268557Y-139353534D01*
X77268557Y-139353533D01*
X77352221Y-139197011D01*
X77352222Y-139197009D01*
X77381552Y-139161271D01*
X77464814Y-139059814D01*
X77566271Y-138976552D01*
X77602009Y-138947222D01*
X77619913Y-138937652D01*
X77758533Y-138863557D01*
X77815147Y-138846384D01*
X77928373Y-138812037D01*
X77994558Y-138805518D01*
X78060740Y-138799000D01*
X78149260Y-138799000D01*
X78215442Y-138805518D01*
X78215442Y-138805518D01*
G37*
G36*
X151831000Y-139946000D02*
X150429000Y-139946000D01*
X150429000Y-138344000D01*
X151831000Y-138344000D01*
X151831000Y-139946000D01*
X151831000Y-139946000D01*
G37*
G36*
X148451000Y-139771000D02*
X144849000Y-139771000D01*
X144849000Y-129469000D01*
X148451000Y-129469000D01*
X148451000Y-139771000D01*
X148451000Y-139771000D01*
G37*
G36*
X141501000Y-139771000D02*
X137899000Y-139771000D01*
X137899000Y-129469000D01*
X141501000Y-129469000D01*
X141501000Y-139771000D01*
X141501000Y-139771000D01*
G37*
G36*
X79006000Y-138061000D02*
X77204000Y-138061000D01*
X77204000Y-136259000D01*
X79006000Y-136259000D01*
X79006000Y-138061000D01*
X79006000Y-138061000D01*
G37*
G36*
X102041000Y-137721000D02*
X99939000Y-137721000D01*
X99939000Y-136119000D01*
X102041000Y-136119000D01*
X102041000Y-137721000D01*
X102041000Y-137721000D01*
G37*
G36*
X89341000Y-137721000D02*
X87239000Y-137721000D01*
X87239000Y-136119000D01*
X89341000Y-136119000D01*
X89341000Y-137721000D01*
X89341000Y-137721000D01*
G37*
G36*
X115376000Y-137721000D02*
X113274000Y-137721000D01*
X113274000Y-136119000D01*
X115376000Y-136119000D01*
X115376000Y-137721000D01*
X115376000Y-137721000D01*
G37*
G36*
X128686000Y-137696000D02*
X126584000Y-137696000D01*
X126584000Y-136094000D01*
X128686000Y-136094000D01*
X128686000Y-137696000D01*
X128686000Y-137696000D01*
G37*
G36*
X158301000Y-137376000D02*
X155599000Y-137376000D01*
X155599000Y-135674000D01*
X158301000Y-135674000D01*
X158301000Y-137376000D01*
X158301000Y-137376000D01*
G37*
G36*
X161901000Y-137376000D02*
X159199000Y-137376000D01*
X159199000Y-135674000D01*
X161901000Y-135674000D01*
X161901000Y-137376000D01*
X161901000Y-137376000D01*
G37*
G36*
X151831000Y-137246000D02*
X150429000Y-137246000D01*
X150429000Y-135644000D01*
X151831000Y-135644000D01*
X151831000Y-137246000D01*
X151831000Y-137246000D01*
G37*
G36*
X169611000Y-137226000D02*
X168209000Y-137226000D01*
X168209000Y-135824000D01*
X169611000Y-135824000D01*
X169611000Y-137226000D01*
X169611000Y-137226000D01*
G37*
G36*
X95641000Y-136571000D02*
X93539000Y-136571000D01*
X93539000Y-132669000D01*
X95641000Y-132669000D01*
X95641000Y-136571000D01*
X95641000Y-136571000D01*
G37*
G36*
X108341000Y-136571000D02*
X106239000Y-136571000D01*
X106239000Y-132669000D01*
X108341000Y-132669000D01*
X108341000Y-136571000D01*
X108341000Y-136571000D01*
G37*
G36*
X121676000Y-136571000D02*
X119574000Y-136571000D01*
X119574000Y-132669000D01*
X121676000Y-132669000D01*
X121676000Y-136571000D01*
X121676000Y-136571000D01*
G37*
G36*
X134986000Y-136546000D02*
X132884000Y-136546000D01*
X132884000Y-132644000D01*
X134986000Y-132644000D01*
X134986000Y-136546000D01*
X134986000Y-136546000D01*
G37*
G36*
X175461000Y-136076000D02*
X173359000Y-136076000D01*
X173359000Y-134674000D01*
X175461000Y-134674000D01*
X175461000Y-136076000D01*
X175461000Y-136076000D01*
G37*
G36*
X115376000Y-135421000D02*
X113274000Y-135421000D01*
X113274000Y-133819000D01*
X115376000Y-133819000D01*
X115376000Y-135421000D01*
X115376000Y-135421000D01*
G37*
G36*
X102041000Y-135421000D02*
X99939000Y-135421000D01*
X99939000Y-133819000D01*
X102041000Y-133819000D01*
X102041000Y-135421000D01*
X102041000Y-135421000D01*
G37*
G36*
X89341000Y-135421000D02*
X87239000Y-135421000D01*
X87239000Y-133819000D01*
X89341000Y-133819000D01*
X89341000Y-135421000D01*
X89341000Y-135421000D01*
G37*
G36*
X128686000Y-135396000D02*
X126584000Y-135396000D01*
X126584000Y-133794000D01*
X128686000Y-133794000D01*
X128686000Y-135396000D01*
X128686000Y-135396000D01*
G37*
G36*
X169611000Y-134926000D02*
X168209000Y-134926000D01*
X168209000Y-133524000D01*
X169611000Y-133524000D01*
X169611000Y-134926000D01*
X169611000Y-134926000D01*
G37*
G36*
X151831000Y-134231000D02*
X150429000Y-134231000D01*
X150429000Y-132629000D01*
X151831000Y-132629000D01*
X151831000Y-134231000D01*
X151831000Y-134231000D01*
G37*
G36*
X102041000Y-133121000D02*
X99939000Y-133121000D01*
X99939000Y-131519000D01*
X102041000Y-131519000D01*
X102041000Y-133121000D01*
X102041000Y-133121000D01*
G37*
G36*
X115376000Y-133121000D02*
X113274000Y-133121000D01*
X113274000Y-131519000D01*
X115376000Y-131519000D01*
X115376000Y-133121000D01*
X115376000Y-133121000D01*
G37*
G36*
X89341000Y-133121000D02*
X87239000Y-133121000D01*
X87239000Y-131519000D01*
X89341000Y-131519000D01*
X89341000Y-133121000D01*
X89341000Y-133121000D01*
G37*
G36*
X128686000Y-133096000D02*
X126584000Y-133096000D01*
X126584000Y-131494000D01*
X128686000Y-131494000D01*
X128686000Y-133096000D01*
X128686000Y-133096000D01*
G37*
G36*
X151831000Y-131531000D02*
X150429000Y-131531000D01*
X150429000Y-129929000D01*
X151831000Y-129929000D01*
X151831000Y-131531000D01*
X151831000Y-131531000D01*
G37*
G36*
X169611000Y-129606000D02*
X168209000Y-129606000D01*
X168209000Y-128204000D01*
X169611000Y-128204000D01*
X169611000Y-129606000D01*
X169611000Y-129606000D01*
G37*
G36*
X111641000Y-128831000D02*
X109539000Y-128831000D01*
X109539000Y-127229000D01*
X111641000Y-127229000D01*
X111641000Y-128831000D01*
X111641000Y-128831000D01*
G37*
G36*
X86876000Y-128831000D02*
X84774000Y-128831000D01*
X84774000Y-127229000D01*
X86876000Y-127229000D01*
X86876000Y-128831000D01*
X86876000Y-128831000D01*
G37*
G36*
X98941000Y-128831000D02*
X96839000Y-128831000D01*
X96839000Y-127229000D01*
X98941000Y-127229000D01*
X98941000Y-128831000D01*
X98941000Y-128831000D01*
G37*
G36*
X124876000Y-128731000D02*
X122774000Y-128731000D01*
X122774000Y-127129000D01*
X124876000Y-127129000D01*
X124876000Y-128731000D01*
X124876000Y-128731000D01*
G37*
G36*
X175461000Y-128456000D02*
X173359000Y-128456000D01*
X173359000Y-127054000D01*
X175461000Y-127054000D01*
X175461000Y-128456000D01*
X175461000Y-128456000D01*
G37*
G36*
X153101000Y-127881000D02*
X151699000Y-127881000D01*
X151699000Y-126279000D01*
X153101000Y-126279000D01*
X153101000Y-127881000D01*
X153101000Y-127881000D01*
G37*
G36*
X117941000Y-127681000D02*
X115839000Y-127681000D01*
X115839000Y-123779000D01*
X117941000Y-123779000D01*
X117941000Y-127681000D01*
X117941000Y-127681000D01*
G37*
G36*
X93176000Y-127681000D02*
X91074000Y-127681000D01*
X91074000Y-123779000D01*
X93176000Y-123779000D01*
X93176000Y-127681000D01*
X93176000Y-127681000D01*
G37*
G36*
X105241000Y-127681000D02*
X103139000Y-127681000D01*
X103139000Y-123779000D01*
X105241000Y-123779000D01*
X105241000Y-127681000D01*
X105241000Y-127681000D01*
G37*
G36*
X131176000Y-127581000D02*
X129074000Y-127581000D01*
X129074000Y-123679000D01*
X131176000Y-123679000D01*
X131176000Y-127581000D01*
X131176000Y-127581000D01*
G37*
G36*
X169611000Y-127306000D02*
X168209000Y-127306000D01*
X168209000Y-125904000D01*
X169611000Y-125904000D01*
X169611000Y-127306000D01*
X169611000Y-127306000D01*
G37*
G36*
X149676000Y-126596000D02*
X148774000Y-126596000D01*
X148774000Y-125594000D01*
X149676000Y-125594000D01*
X149676000Y-126596000D01*
X149676000Y-126596000D01*
G37*
G36*
X111641000Y-126531000D02*
X109539000Y-126531000D01*
X109539000Y-124929000D01*
X111641000Y-124929000D01*
X111641000Y-126531000D01*
X111641000Y-126531000D01*
G37*
G36*
X86876000Y-126531000D02*
X84774000Y-126531000D01*
X84774000Y-124929000D01*
X86876000Y-124929000D01*
X86876000Y-126531000D01*
X86876000Y-126531000D01*
G37*
G36*
X98941000Y-126531000D02*
X96839000Y-126531000D01*
X96839000Y-124929000D01*
X98941000Y-124929000D01*
X98941000Y-126531000D01*
X98941000Y-126531000D01*
G37*
G36*
X124876000Y-126431000D02*
X122774000Y-126431000D01*
X122774000Y-124829000D01*
X124876000Y-124829000D01*
X124876000Y-126431000D01*
X124876000Y-126431000D01*
G37*
G36*
X146501000Y-126046000D02*
X142899000Y-126046000D01*
X142899000Y-124144000D01*
X146501000Y-124144000D01*
X146501000Y-126046000D01*
X146501000Y-126046000D01*
G37*
G36*
X141501000Y-126046000D02*
X137899000Y-126046000D01*
X137899000Y-124144000D01*
X141501000Y-124144000D01*
X141501000Y-126046000D01*
X141501000Y-126046000D01*
G37*
G36*
X153101000Y-125181000D02*
X151699000Y-125181000D01*
X151699000Y-123579000D01*
X153101000Y-123579000D01*
X153101000Y-125181000D01*
X153101000Y-125181000D01*
G37*
G36*
X150626000Y-124596000D02*
X149724000Y-124596000D01*
X149724000Y-123594000D01*
X150626000Y-123594000D01*
X150626000Y-124596000D01*
X150626000Y-124596000D01*
G37*
G36*
X148726000Y-124596000D02*
X147824000Y-124596000D01*
X147824000Y-123594000D01*
X148726000Y-123594000D01*
X148726000Y-124596000D01*
X148726000Y-124596000D01*
G37*
G36*
X86876000Y-124231000D02*
X84774000Y-124231000D01*
X84774000Y-122629000D01*
X86876000Y-122629000D01*
X86876000Y-124231000D01*
X86876000Y-124231000D01*
G37*
G36*
X111641000Y-124231000D02*
X109539000Y-124231000D01*
X109539000Y-122629000D01*
X111641000Y-122629000D01*
X111641000Y-124231000D01*
X111641000Y-124231000D01*
G37*
G36*
X98941000Y-124231000D02*
X96839000Y-124231000D01*
X96839000Y-122629000D01*
X98941000Y-122629000D01*
X98941000Y-124231000D01*
X98941000Y-124231000D01*
G37*
G36*
X124876000Y-124131000D02*
X122774000Y-124131000D01*
X122774000Y-122529000D01*
X124876000Y-122529000D01*
X124876000Y-124131000D01*
X124876000Y-124131000D01*
G37*
G36*
X170596000Y-121986000D02*
X168494000Y-121986000D01*
X168494000Y-120584000D01*
X170596000Y-120584000D01*
X170596000Y-121986000D01*
X170596000Y-121986000D01*
G37*
G36*
X174596000Y-121186000D02*
X172494000Y-121186000D01*
X172494000Y-119084000D01*
X174596000Y-119084000D01*
X174596000Y-121186000D01*
X174596000Y-121186000D01*
G37*
G36*
X141671000Y-120896000D02*
X140269000Y-120896000D01*
X140269000Y-119294000D01*
X141671000Y-119294000D01*
X141671000Y-120896000D01*
X141671000Y-120896000D01*
G37*
G36*
X144211000Y-120896000D02*
X142809000Y-120896000D01*
X142809000Y-119294000D01*
X144211000Y-119294000D01*
X144211000Y-120896000D01*
X144211000Y-120896000D01*
G37*
G36*
X139106000Y-120816000D02*
X137754000Y-120816000D01*
X137754000Y-119214000D01*
X139106000Y-119214000D01*
X139106000Y-120816000D01*
X139106000Y-120816000D01*
G37*
G36*
X151861000Y-120336000D02*
X150309000Y-120336000D01*
X150309000Y-117834000D01*
X151861000Y-117834000D01*
X151861000Y-120336000D01*
X151861000Y-120336000D01*
G37*
G36*
X147461000Y-120336000D02*
X145909000Y-120336000D01*
X145909000Y-117834000D01*
X147461000Y-117834000D01*
X147461000Y-120336000D01*
X147461000Y-120336000D01*
G37*
G36*
X170596000Y-119686000D02*
X168494000Y-119686000D01*
X168494000Y-118284000D01*
X170596000Y-118284000D01*
X170596000Y-119686000D01*
X170596000Y-119686000D01*
G37*
G36*
X139106000Y-118316000D02*
X137754000Y-118316000D01*
X137754000Y-116714000D01*
X139106000Y-116714000D01*
X139106000Y-118316000D01*
X139106000Y-118316000D01*
G37*
G36*
X141671000Y-118196000D02*
X140269000Y-118196000D01*
X140269000Y-116594000D01*
X141671000Y-116594000D01*
X141671000Y-118196000D01*
X141671000Y-118196000D01*
G37*
G36*
X144211000Y-118196000D02*
X142809000Y-118196000D01*
X142809000Y-116594000D01*
X144211000Y-116594000D01*
X144211000Y-118196000D01*
X144211000Y-118196000D01*
G37*
G36*
X162496000Y-116521000D02*
X158894000Y-116521000D01*
X158894000Y-114619000D01*
X162496000Y-114619000D01*
X162496000Y-116521000D01*
X162496000Y-116521000D01*
G37*
G36*
X167496000Y-116521000D02*
X163894000Y-116521000D01*
X163894000Y-114619000D01*
X167496000Y-114619000D01*
X167496000Y-116521000D01*
X167496000Y-116521000D01*
G37*
G36*
X78215443Y-113405519D02*
X78281627Y-113412037D01*
X78394853Y-113446384D01*
X78451467Y-113463557D01*
X78590087Y-113537652D01*
X78607991Y-113547222D01*
X78643729Y-113576552D01*
X78745186Y-113659814D01*
X78828448Y-113761271D01*
X78857778Y-113797009D01*
X78857779Y-113797011D01*
X78941443Y-113953533D01*
X78941443Y-113953534D01*
X78992963Y-114123373D01*
X79010359Y-114300000D01*
X78992963Y-114476627D01*
X78958616Y-114589853D01*
X78941443Y-114646467D01*
X78867348Y-114785087D01*
X78857778Y-114802991D01*
X78828448Y-114838729D01*
X78745186Y-114940186D01*
X78643729Y-115023448D01*
X78607991Y-115052778D01*
X78607989Y-115052779D01*
X78451467Y-115136443D01*
X78403478Y-115151000D01*
X78281627Y-115187963D01*
X78215442Y-115194482D01*
X78149260Y-115201000D01*
X78060740Y-115201000D01*
X77994558Y-115194482D01*
X77928373Y-115187963D01*
X77806522Y-115151000D01*
X77758533Y-115136443D01*
X77602011Y-115052779D01*
X77602009Y-115052778D01*
X77566271Y-115023448D01*
X77464814Y-114940186D01*
X77381552Y-114838729D01*
X77352222Y-114802991D01*
X77342652Y-114785087D01*
X77268557Y-114646467D01*
X77251384Y-114589853D01*
X77217037Y-114476627D01*
X77199641Y-114300000D01*
X77217037Y-114123373D01*
X77268557Y-113953534D01*
X77268557Y-113953533D01*
X77352221Y-113797011D01*
X77352222Y-113797009D01*
X77381552Y-113761271D01*
X77464814Y-113659814D01*
X77566271Y-113576552D01*
X77602009Y-113547222D01*
X77619913Y-113537652D01*
X77758533Y-113463557D01*
X77815147Y-113446384D01*
X77928373Y-113412037D01*
X77994557Y-113405519D01*
X78060740Y-113399000D01*
X78149260Y-113399000D01*
X78215443Y-113405519D01*
X78215443Y-113405519D01*
G37*
G36*
X174601000Y-115151000D02*
X171899000Y-115151000D01*
X171899000Y-113449000D01*
X174601000Y-113449000D01*
X174601000Y-115151000D01*
X174601000Y-115151000D01*
G37*
G36*
X171001000Y-115151000D02*
X168299000Y-115151000D01*
X168299000Y-113449000D01*
X171001000Y-113449000D01*
X171001000Y-115151000D01*
X171001000Y-115151000D01*
G37*
G36*
X155551000Y-113881000D02*
X152849000Y-113881000D01*
X152849000Y-112179000D01*
X155551000Y-112179000D01*
X155551000Y-113881000D01*
X155551000Y-113881000D01*
G37*
G36*
X151951000Y-113881000D02*
X149249000Y-113881000D01*
X149249000Y-112179000D01*
X151951000Y-112179000D01*
X151951000Y-113881000D01*
X151951000Y-113881000D01*
G37*
G36*
X162496000Y-112711000D02*
X158894000Y-112711000D01*
X158894000Y-110809000D01*
X162496000Y-110809000D01*
X162496000Y-112711000D01*
X162496000Y-112711000D01*
G37*
G36*
X167496000Y-112711000D02*
X163894000Y-112711000D01*
X163894000Y-110809000D01*
X167496000Y-110809000D01*
X167496000Y-112711000D01*
X167496000Y-112711000D01*
G37*
G36*
X78215442Y-110865518D02*
X78281627Y-110872037D01*
X78394853Y-110906384D01*
X78451467Y-110923557D01*
X78590087Y-110997652D01*
X78607991Y-111007222D01*
X78643729Y-111036552D01*
X78745186Y-111119814D01*
X78828448Y-111221271D01*
X78857778Y-111257009D01*
X78857779Y-111257011D01*
X78941443Y-111413533D01*
X78941443Y-111413534D01*
X78992963Y-111583373D01*
X79010359Y-111760000D01*
X78992963Y-111936627D01*
X78958616Y-112049853D01*
X78941443Y-112106467D01*
X78867348Y-112245087D01*
X78857778Y-112262991D01*
X78828448Y-112298729D01*
X78745186Y-112400186D01*
X78643729Y-112483448D01*
X78607991Y-112512778D01*
X78607989Y-112512779D01*
X78451467Y-112596443D01*
X78394853Y-112613616D01*
X78281627Y-112647963D01*
X78215442Y-112654482D01*
X78149260Y-112661000D01*
X78060740Y-112661000D01*
X77994558Y-112654482D01*
X77928373Y-112647963D01*
X77815147Y-112613616D01*
X77758533Y-112596443D01*
X77602011Y-112512779D01*
X77602009Y-112512778D01*
X77566271Y-112483448D01*
X77464814Y-112400186D01*
X77381552Y-112298729D01*
X77352222Y-112262991D01*
X77342652Y-112245087D01*
X77268557Y-112106467D01*
X77251384Y-112049853D01*
X77217037Y-111936627D01*
X77199641Y-111760000D01*
X77217037Y-111583373D01*
X77268557Y-111413534D01*
X77268557Y-111413533D01*
X77352221Y-111257011D01*
X77352222Y-111257009D01*
X77381552Y-111221271D01*
X77464814Y-111119814D01*
X77566271Y-111036552D01*
X77602009Y-111007222D01*
X77619913Y-110997652D01*
X77758533Y-110923557D01*
X77815147Y-110906384D01*
X77928373Y-110872037D01*
X77994558Y-110865518D01*
X78060740Y-110859000D01*
X78149260Y-110859000D01*
X78215442Y-110865518D01*
X78215442Y-110865518D01*
G37*
G36*
X78215443Y-108325519D02*
X78281627Y-108332037D01*
X78394853Y-108366384D01*
X78451467Y-108383557D01*
X78590087Y-108457652D01*
X78607991Y-108467222D01*
X78643729Y-108496552D01*
X78745186Y-108579814D01*
X78828448Y-108681271D01*
X78857778Y-108717009D01*
X78857779Y-108717011D01*
X78941443Y-108873533D01*
X78941443Y-108873534D01*
X78992963Y-109043373D01*
X79010359Y-109220000D01*
X78992963Y-109396627D01*
X78958616Y-109509853D01*
X78941443Y-109566467D01*
X78867348Y-109705087D01*
X78857778Y-109722991D01*
X78828448Y-109758729D01*
X78745186Y-109860186D01*
X78643729Y-109943448D01*
X78607991Y-109972778D01*
X78607989Y-109972779D01*
X78451467Y-110056443D01*
X78394853Y-110073616D01*
X78281627Y-110107963D01*
X78215443Y-110114481D01*
X78149260Y-110121000D01*
X78060740Y-110121000D01*
X77994557Y-110114481D01*
X77928373Y-110107963D01*
X77815147Y-110073616D01*
X77758533Y-110056443D01*
X77602011Y-109972779D01*
X77602009Y-109972778D01*
X77566271Y-109943448D01*
X77464814Y-109860186D01*
X77381552Y-109758729D01*
X77352222Y-109722991D01*
X77342652Y-109705087D01*
X77268557Y-109566467D01*
X77251384Y-109509853D01*
X77217037Y-109396627D01*
X77199641Y-109220000D01*
X77217037Y-109043373D01*
X77268557Y-108873534D01*
X77268557Y-108873533D01*
X77352221Y-108717011D01*
X77352222Y-108717009D01*
X77381552Y-108681271D01*
X77464814Y-108579814D01*
X77566271Y-108496552D01*
X77602009Y-108467222D01*
X77619913Y-108457652D01*
X77758533Y-108383557D01*
X77815147Y-108366384D01*
X77928373Y-108332037D01*
X77994557Y-108325519D01*
X78060740Y-108319000D01*
X78149260Y-108319000D01*
X78215443Y-108325519D01*
X78215443Y-108325519D01*
G37*
G36*
X78215443Y-105785519D02*
X78281627Y-105792037D01*
X78394853Y-105826384D01*
X78451467Y-105843557D01*
X78590087Y-105917652D01*
X78607991Y-105927222D01*
X78643729Y-105956552D01*
X78745186Y-106039814D01*
X78828448Y-106141271D01*
X78857778Y-106177009D01*
X78857779Y-106177011D01*
X78941443Y-106333533D01*
X78941443Y-106333534D01*
X78992963Y-106503373D01*
X79010359Y-106680000D01*
X78992963Y-106856627D01*
X78958616Y-106969853D01*
X78941443Y-107026467D01*
X78867348Y-107165087D01*
X78857778Y-107182991D01*
X78828448Y-107218729D01*
X78745186Y-107320186D01*
X78643729Y-107403448D01*
X78607991Y-107432778D01*
X78607989Y-107432779D01*
X78451467Y-107516443D01*
X78394853Y-107533616D01*
X78281627Y-107567963D01*
X78215443Y-107574481D01*
X78149260Y-107581000D01*
X78060740Y-107581000D01*
X77994557Y-107574481D01*
X77928373Y-107567963D01*
X77815147Y-107533616D01*
X77758533Y-107516443D01*
X77602011Y-107432779D01*
X77602009Y-107432778D01*
X77566271Y-107403448D01*
X77464814Y-107320186D01*
X77381552Y-107218729D01*
X77352222Y-107182991D01*
X77342652Y-107165087D01*
X77268557Y-107026467D01*
X77251384Y-106969853D01*
X77217037Y-106856627D01*
X77199641Y-106680000D01*
X77217037Y-106503373D01*
X77268557Y-106333534D01*
X77268557Y-106333533D01*
X77352221Y-106177011D01*
X77352222Y-106177009D01*
X77381552Y-106141271D01*
X77464814Y-106039814D01*
X77566271Y-105956552D01*
X77602009Y-105927222D01*
X77619913Y-105917652D01*
X77758533Y-105843557D01*
X77815147Y-105826384D01*
X77928373Y-105792037D01*
X77994557Y-105785519D01*
X78060740Y-105779000D01*
X78149260Y-105779000D01*
X78215443Y-105785519D01*
X78215443Y-105785519D01*
G37*
G36*
X78215443Y-103245519D02*
X78281627Y-103252037D01*
X78394853Y-103286384D01*
X78451467Y-103303557D01*
X78590087Y-103377652D01*
X78607991Y-103387222D01*
X78609253Y-103388258D01*
X78745186Y-103499814D01*
X78819584Y-103590470D01*
X78857778Y-103637009D01*
X78857779Y-103637011D01*
X78941443Y-103793533D01*
X78941443Y-103793534D01*
X78992963Y-103963373D01*
X79010359Y-104140000D01*
X78992963Y-104316627D01*
X78958616Y-104429853D01*
X78941443Y-104486467D01*
X78867348Y-104625087D01*
X78857778Y-104642991D01*
X78828448Y-104678729D01*
X78745186Y-104780186D01*
X78643729Y-104863448D01*
X78607991Y-104892778D01*
X78607989Y-104892779D01*
X78451467Y-104976443D01*
X78394853Y-104993616D01*
X78281627Y-105027963D01*
X78215442Y-105034482D01*
X78149260Y-105041000D01*
X78060740Y-105041000D01*
X77994557Y-105034481D01*
X77928373Y-105027963D01*
X77815147Y-104993616D01*
X77758533Y-104976443D01*
X77602011Y-104892779D01*
X77602009Y-104892778D01*
X77566271Y-104863448D01*
X77464814Y-104780186D01*
X77381552Y-104678729D01*
X77352222Y-104642991D01*
X77342652Y-104625087D01*
X77268557Y-104486467D01*
X77251384Y-104429853D01*
X77217037Y-104316627D01*
X77199641Y-104140000D01*
X77217037Y-103963373D01*
X77268557Y-103793534D01*
X77268557Y-103793533D01*
X77352221Y-103637011D01*
X77352222Y-103637009D01*
X77390416Y-103590470D01*
X77464814Y-103499814D01*
X77600747Y-103388258D01*
X77602009Y-103387222D01*
X77619913Y-103377652D01*
X77758533Y-103303557D01*
X77815147Y-103286384D01*
X77928373Y-103252037D01*
X77994558Y-103245518D01*
X78060740Y-103239000D01*
X78149260Y-103239000D01*
X78215443Y-103245519D01*
X78215443Y-103245519D01*
G37*
G36*
X146287142Y-102088242D02*
X146435102Y-102149530D01*
X146452268Y-102161000D01*
X146568257Y-102238501D01*
X146681499Y-102351743D01*
X146682191Y-102352779D01*
X146770470Y-102484898D01*
X146831758Y-102632858D01*
X146863000Y-102789925D01*
X146863000Y-102950075D01*
X146831758Y-103107142D01*
X146784354Y-103221583D01*
X146770471Y-103255100D01*
X146682191Y-103387222D01*
X146681498Y-103388258D01*
X146568258Y-103501498D01*
X146435102Y-103590470D01*
X146287142Y-103651758D01*
X146130075Y-103683000D01*
X145969925Y-103683000D01*
X145812858Y-103651758D01*
X145664898Y-103590470D01*
X145531742Y-103501498D01*
X145418502Y-103388258D01*
X145417810Y-103387222D01*
X145329529Y-103255100D01*
X145315646Y-103221583D01*
X145268242Y-103107142D01*
X145237000Y-102950075D01*
X145237000Y-102789925D01*
X145268242Y-102632858D01*
X145329530Y-102484898D01*
X145417809Y-102352779D01*
X145418501Y-102351743D01*
X145531743Y-102238501D01*
X145647732Y-102161000D01*
X145664898Y-102149530D01*
X145812858Y-102088242D01*
X145969925Y-102057000D01*
X146130075Y-102057000D01*
X146287142Y-102088242D01*
X146287142Y-102088242D01*
G37*
G36*
X194547142Y-102088242D02*
X194695102Y-102149530D01*
X194712268Y-102161000D01*
X194828257Y-102238501D01*
X194941499Y-102351743D01*
X194942191Y-102352779D01*
X195030470Y-102484898D01*
X195091758Y-102632858D01*
X195123000Y-102789925D01*
X195123000Y-102950075D01*
X195091758Y-103107142D01*
X195044354Y-103221583D01*
X195030471Y-103255100D01*
X194942191Y-103387222D01*
X194941498Y-103388258D01*
X194828258Y-103501498D01*
X194695102Y-103590470D01*
X194547142Y-103651758D01*
X194390075Y-103683000D01*
X194229925Y-103683000D01*
X194072858Y-103651758D01*
X193924898Y-103590470D01*
X193791742Y-103501498D01*
X193678502Y-103388258D01*
X193677810Y-103387222D01*
X193589529Y-103255100D01*
X193575646Y-103221583D01*
X193528242Y-103107142D01*
X193497000Y-102950075D01*
X193497000Y-102789925D01*
X193528242Y-102632858D01*
X193589530Y-102484898D01*
X193677809Y-102352779D01*
X193678501Y-102351743D01*
X193791743Y-102238501D01*
X193907732Y-102161000D01*
X193924898Y-102149530D01*
X194072858Y-102088242D01*
X194229925Y-102057000D01*
X194390075Y-102057000D01*
X194547142Y-102088242D01*
X194547142Y-102088242D01*
G37*
G36*
X78215443Y-100705519D02*
X78281627Y-100712037D01*
X78394853Y-100746384D01*
X78451467Y-100763557D01*
X78590087Y-100837652D01*
X78607991Y-100847222D01*
X78609253Y-100848258D01*
X78745186Y-100959814D01*
X78819584Y-101050470D01*
X78857778Y-101097009D01*
X78857779Y-101097011D01*
X78941443Y-101253533D01*
X78941443Y-101253534D01*
X78992963Y-101423373D01*
X79010359Y-101600000D01*
X78992963Y-101776627D01*
X78958616Y-101889853D01*
X78941443Y-101946467D01*
X78882361Y-102057000D01*
X78857778Y-102102991D01*
X78828448Y-102138729D01*
X78745186Y-102240186D01*
X78643729Y-102323448D01*
X78607991Y-102352778D01*
X78607989Y-102352779D01*
X78451467Y-102436443D01*
X78394853Y-102453616D01*
X78281627Y-102487963D01*
X78215442Y-102494482D01*
X78149260Y-102501000D01*
X78060740Y-102501000D01*
X77994558Y-102494482D01*
X77928373Y-102487963D01*
X77815147Y-102453616D01*
X77758533Y-102436443D01*
X77602011Y-102352779D01*
X77602009Y-102352778D01*
X77566271Y-102323448D01*
X77464814Y-102240186D01*
X77381552Y-102138729D01*
X77352222Y-102102991D01*
X77327639Y-102057000D01*
X77268557Y-101946467D01*
X77251384Y-101889853D01*
X77217037Y-101776627D01*
X77199641Y-101600000D01*
X77217037Y-101423373D01*
X77268557Y-101253534D01*
X77268557Y-101253533D01*
X77352221Y-101097011D01*
X77352222Y-101097009D01*
X77390416Y-101050470D01*
X77464814Y-100959814D01*
X77600747Y-100848258D01*
X77602009Y-100847222D01*
X77619913Y-100837652D01*
X77758533Y-100763557D01*
X77815147Y-100746384D01*
X77928373Y-100712037D01*
X77994557Y-100705519D01*
X78060740Y-100699000D01*
X78149260Y-100699000D01*
X78215443Y-100705519D01*
X78215443Y-100705519D01*
G37*
G36*
X115376000Y-102161000D02*
X113274000Y-102161000D01*
X113274000Y-100559000D01*
X115376000Y-100559000D01*
X115376000Y-102161000D01*
X115376000Y-102161000D01*
G37*
G36*
X102041000Y-102161000D02*
X99939000Y-102161000D01*
X99939000Y-100559000D01*
X102041000Y-100559000D01*
X102041000Y-102161000D01*
X102041000Y-102161000D01*
G37*
G36*
X128711000Y-102161000D02*
X126609000Y-102161000D01*
X126609000Y-100559000D01*
X128711000Y-100559000D01*
X128711000Y-102161000D01*
X128711000Y-102161000D01*
G37*
G36*
X89341000Y-102161000D02*
X87239000Y-102161000D01*
X87239000Y-100559000D01*
X89341000Y-100559000D01*
X89341000Y-102161000D01*
X89341000Y-102161000D01*
G37*
G36*
X194547142Y-99548242D02*
X194695102Y-99609530D01*
X194762130Y-99654317D01*
X194828257Y-99698501D01*
X194941499Y-99811743D01*
X194942191Y-99812779D01*
X195030470Y-99944898D01*
X195091758Y-100092858D01*
X195123000Y-100249925D01*
X195123000Y-100410075D01*
X195091758Y-100567142D01*
X195044354Y-100681583D01*
X195030471Y-100715100D01*
X194942191Y-100847222D01*
X194941498Y-100848258D01*
X194828258Y-100961498D01*
X194695102Y-101050470D01*
X194547142Y-101111758D01*
X194390075Y-101143000D01*
X194229925Y-101143000D01*
X194072858Y-101111758D01*
X193924898Y-101050470D01*
X193791742Y-100961498D01*
X193678502Y-100848258D01*
X193677810Y-100847222D01*
X193589529Y-100715100D01*
X193575646Y-100681583D01*
X193528242Y-100567142D01*
X193497000Y-100410075D01*
X193497000Y-100249925D01*
X193528242Y-100092858D01*
X193589530Y-99944898D01*
X193677809Y-99812779D01*
X193678501Y-99811743D01*
X193791743Y-99698501D01*
X193857870Y-99654317D01*
X193924898Y-99609530D01*
X194072858Y-99548242D01*
X194229925Y-99517000D01*
X194390075Y-99517000D01*
X194547142Y-99548242D01*
X194547142Y-99548242D01*
G37*
G36*
X146287142Y-99548242D02*
X146435102Y-99609530D01*
X146502130Y-99654317D01*
X146568257Y-99698501D01*
X146681499Y-99811743D01*
X146682191Y-99812779D01*
X146770470Y-99944898D01*
X146831758Y-100092858D01*
X146863000Y-100249925D01*
X146863000Y-100410075D01*
X146831758Y-100567142D01*
X146784354Y-100681583D01*
X146770471Y-100715100D01*
X146682191Y-100847222D01*
X146681498Y-100848258D01*
X146568258Y-100961498D01*
X146435102Y-101050470D01*
X146287142Y-101111758D01*
X146130075Y-101143000D01*
X145969925Y-101143000D01*
X145812858Y-101111758D01*
X145664898Y-101050470D01*
X145531742Y-100961498D01*
X145418502Y-100848258D01*
X145417810Y-100847222D01*
X145329529Y-100715100D01*
X145315646Y-100681583D01*
X145268242Y-100567142D01*
X145237000Y-100410075D01*
X145237000Y-100249925D01*
X145268242Y-100092858D01*
X145329530Y-99944898D01*
X145417809Y-99812779D01*
X145418501Y-99811743D01*
X145531743Y-99698501D01*
X145597870Y-99654317D01*
X145664898Y-99609530D01*
X145812858Y-99548242D01*
X145969925Y-99517000D01*
X146130075Y-99517000D01*
X146287142Y-99548242D01*
X146287142Y-99548242D01*
G37*
G36*
X135011000Y-101011000D02*
X132909000Y-101011000D01*
X132909000Y-97109000D01*
X135011000Y-97109000D01*
X135011000Y-101011000D01*
X135011000Y-101011000D01*
G37*
G36*
X121676000Y-101011000D02*
X119574000Y-101011000D01*
X119574000Y-97109000D01*
X121676000Y-97109000D01*
X121676000Y-101011000D01*
X121676000Y-101011000D01*
G37*
G36*
X108341000Y-101011000D02*
X106239000Y-101011000D01*
X106239000Y-97109000D01*
X108341000Y-97109000D01*
X108341000Y-101011000D01*
X108341000Y-101011000D01*
G37*
G36*
X95641000Y-101011000D02*
X93539000Y-101011000D01*
X93539000Y-97109000D01*
X95641000Y-97109000D01*
X95641000Y-101011000D01*
X95641000Y-101011000D01*
G37*
G36*
X78215443Y-98165519D02*
X78281627Y-98172037D01*
X78394853Y-98206384D01*
X78451467Y-98223557D01*
X78517775Y-98259000D01*
X78607991Y-98307222D01*
X78609253Y-98308258D01*
X78745186Y-98419814D01*
X78819584Y-98510470D01*
X78857778Y-98557009D01*
X78857779Y-98557011D01*
X78941443Y-98713533D01*
X78941443Y-98713534D01*
X78992963Y-98883373D01*
X79010359Y-99060000D01*
X78992963Y-99236627D01*
X78958616Y-99349853D01*
X78941443Y-99406467D01*
X78882361Y-99517000D01*
X78857778Y-99562991D01*
X78828448Y-99598729D01*
X78745186Y-99700186D01*
X78643729Y-99783448D01*
X78607991Y-99812778D01*
X78607989Y-99812779D01*
X78451467Y-99896443D01*
X78394853Y-99913616D01*
X78281627Y-99947963D01*
X78215443Y-99954481D01*
X78149260Y-99961000D01*
X78060740Y-99961000D01*
X77994557Y-99954481D01*
X77928373Y-99947963D01*
X77815147Y-99913616D01*
X77758533Y-99896443D01*
X77602011Y-99812779D01*
X77602009Y-99812778D01*
X77566271Y-99783448D01*
X77464814Y-99700186D01*
X77381552Y-99598729D01*
X77352222Y-99562991D01*
X77327639Y-99517000D01*
X77268557Y-99406467D01*
X77251384Y-99349853D01*
X77217037Y-99236627D01*
X77199641Y-99060000D01*
X77217037Y-98883373D01*
X77268557Y-98713534D01*
X77268557Y-98713533D01*
X77352221Y-98557011D01*
X77352222Y-98557009D01*
X77390416Y-98510470D01*
X77464814Y-98419814D01*
X77600747Y-98308258D01*
X77602009Y-98307222D01*
X77692225Y-98259000D01*
X77758533Y-98223557D01*
X77815147Y-98206384D01*
X77928373Y-98172037D01*
X77994557Y-98165519D01*
X78060740Y-98159000D01*
X78149260Y-98159000D01*
X78215443Y-98165519D01*
X78215443Y-98165519D01*
G37*
G36*
X102041000Y-99861000D02*
X99939000Y-99861000D01*
X99939000Y-98259000D01*
X102041000Y-98259000D01*
X102041000Y-99861000D01*
X102041000Y-99861000D01*
G37*
G36*
X89341000Y-99861000D02*
X87239000Y-99861000D01*
X87239000Y-98259000D01*
X89341000Y-98259000D01*
X89341000Y-99861000D01*
X89341000Y-99861000D01*
G37*
G36*
X115376000Y-99861000D02*
X113274000Y-99861000D01*
X113274000Y-98259000D01*
X115376000Y-98259000D01*
X115376000Y-99861000D01*
X115376000Y-99861000D01*
G37*
G36*
X128711000Y-99861000D02*
X126609000Y-99861000D01*
X126609000Y-98259000D01*
X128711000Y-98259000D01*
X128711000Y-99861000D01*
X128711000Y-99861000D01*
G37*
G36*
X146287142Y-97008242D02*
X146435102Y-97069530D01*
X146568258Y-97158502D01*
X146681498Y-97271742D01*
X146770470Y-97404898D01*
X146831758Y-97552858D01*
X146863000Y-97709925D01*
X146863000Y-97870075D01*
X146831758Y-98027142D01*
X146784354Y-98141583D01*
X146770471Y-98175100D01*
X146682191Y-98307222D01*
X146681498Y-98308258D01*
X146568258Y-98421498D01*
X146435102Y-98510470D01*
X146287142Y-98571758D01*
X146130075Y-98603000D01*
X145969925Y-98603000D01*
X145812858Y-98571758D01*
X145664898Y-98510470D01*
X145531742Y-98421498D01*
X145418502Y-98308258D01*
X145417810Y-98307222D01*
X145329529Y-98175100D01*
X145315646Y-98141583D01*
X145268242Y-98027142D01*
X145237000Y-97870075D01*
X145237000Y-97709925D01*
X145268242Y-97552858D01*
X145329530Y-97404898D01*
X145418502Y-97271742D01*
X145531742Y-97158502D01*
X145664898Y-97069530D01*
X145812858Y-97008242D01*
X145969925Y-96977000D01*
X146130075Y-96977000D01*
X146287142Y-97008242D01*
X146287142Y-97008242D01*
G37*
G36*
X194547142Y-97008242D02*
X194695102Y-97069530D01*
X194828258Y-97158502D01*
X194941498Y-97271742D01*
X195030470Y-97404898D01*
X195091758Y-97552858D01*
X195123000Y-97709925D01*
X195123000Y-97870075D01*
X195091758Y-98027142D01*
X195044354Y-98141583D01*
X195030471Y-98175100D01*
X194942191Y-98307222D01*
X194941498Y-98308258D01*
X194828258Y-98421498D01*
X194695102Y-98510470D01*
X194547142Y-98571758D01*
X194390075Y-98603000D01*
X194229925Y-98603000D01*
X194072858Y-98571758D01*
X193924898Y-98510470D01*
X193791742Y-98421498D01*
X193678502Y-98308258D01*
X193677810Y-98307222D01*
X193589529Y-98175100D01*
X193575646Y-98141583D01*
X193528242Y-98027142D01*
X193497000Y-97870075D01*
X193497000Y-97709925D01*
X193528242Y-97552858D01*
X193589530Y-97404898D01*
X193678502Y-97271742D01*
X193791742Y-97158502D01*
X193924898Y-97069530D01*
X194072858Y-97008242D01*
X194229925Y-96977000D01*
X194390075Y-96977000D01*
X194547142Y-97008242D01*
X194547142Y-97008242D01*
G37*
G36*
X128711000Y-97561000D02*
X126609000Y-97561000D01*
X126609000Y-95959000D01*
X128711000Y-95959000D01*
X128711000Y-97561000D01*
X128711000Y-97561000D01*
G37*
G36*
X102041000Y-97561000D02*
X99939000Y-97561000D01*
X99939000Y-95959000D01*
X102041000Y-95959000D01*
X102041000Y-97561000D01*
X102041000Y-97561000D01*
G37*
G36*
X89341000Y-97561000D02*
X87239000Y-97561000D01*
X87239000Y-95959000D01*
X89341000Y-95959000D01*
X89341000Y-97561000D01*
X89341000Y-97561000D01*
G37*
G36*
X115376000Y-97561000D02*
X113274000Y-97561000D01*
X113274000Y-95959000D01*
X115376000Y-95959000D01*
X115376000Y-97561000D01*
X115376000Y-97561000D01*
G37*
G36*
X79006000Y-97421000D02*
X77204000Y-97421000D01*
X77204000Y-95619000D01*
X79006000Y-95619000D01*
X79006000Y-97421000D01*
X79006000Y-97421000D01*
G37*
G36*
X194547142Y-94468242D02*
X194695102Y-94529530D01*
X194828258Y-94618502D01*
X194941498Y-94731742D01*
X195030470Y-94864898D01*
X195091758Y-95012858D01*
X195123000Y-95169925D01*
X195123000Y-95330075D01*
X195091758Y-95487142D01*
X195030470Y-95635102D01*
X194941498Y-95768258D01*
X194828258Y-95881498D01*
X194695102Y-95970470D01*
X194547142Y-96031758D01*
X194390075Y-96063000D01*
X194229925Y-96063000D01*
X194072858Y-96031758D01*
X193924898Y-95970470D01*
X193791742Y-95881498D01*
X193678502Y-95768258D01*
X193589530Y-95635102D01*
X193528242Y-95487142D01*
X193497000Y-95330075D01*
X193497000Y-95169925D01*
X193528242Y-95012858D01*
X193589530Y-94864898D01*
X193678502Y-94731742D01*
X193791742Y-94618502D01*
X193924898Y-94529530D01*
X194072858Y-94468242D01*
X194229925Y-94437000D01*
X194390075Y-94437000D01*
X194547142Y-94468242D01*
X194547142Y-94468242D01*
G37*
G36*
X146287142Y-94468242D02*
X146435102Y-94529530D01*
X146568258Y-94618502D01*
X146681498Y-94731742D01*
X146770470Y-94864898D01*
X146831758Y-95012858D01*
X146863000Y-95169925D01*
X146863000Y-95330075D01*
X146831758Y-95487142D01*
X146770470Y-95635102D01*
X146681498Y-95768258D01*
X146568258Y-95881498D01*
X146435102Y-95970470D01*
X146287142Y-96031758D01*
X146130075Y-96063000D01*
X145969925Y-96063000D01*
X145812858Y-96031758D01*
X145664898Y-95970470D01*
X145531742Y-95881498D01*
X145418502Y-95768258D01*
X145329530Y-95635102D01*
X145268242Y-95487142D01*
X145237000Y-95330075D01*
X145237000Y-95169925D01*
X145268242Y-95012858D01*
X145329530Y-94864898D01*
X145418502Y-94731742D01*
X145531742Y-94618502D01*
X145664898Y-94529530D01*
X145812858Y-94468242D01*
X145969925Y-94437000D01*
X146130075Y-94437000D01*
X146287142Y-94468242D01*
X146287142Y-94468242D01*
G37*
G36*
X146287142Y-91928242D02*
X146435102Y-91989530D01*
X146568258Y-92078502D01*
X146681498Y-92191742D01*
X146770470Y-92324898D01*
X146831758Y-92472858D01*
X146863000Y-92629925D01*
X146863000Y-92790075D01*
X146831758Y-92947142D01*
X146770470Y-93095102D01*
X146681498Y-93228258D01*
X146568258Y-93341498D01*
X146435102Y-93430470D01*
X146287142Y-93491758D01*
X146130075Y-93523000D01*
X145969925Y-93523000D01*
X145812858Y-93491758D01*
X145664898Y-93430470D01*
X145531742Y-93341498D01*
X145418502Y-93228258D01*
X145329530Y-93095102D01*
X145268242Y-92947142D01*
X145237000Y-92790075D01*
X145237000Y-92629925D01*
X145268242Y-92472858D01*
X145329530Y-92324898D01*
X145418502Y-92191742D01*
X145531742Y-92078502D01*
X145664898Y-91989530D01*
X145812858Y-91928242D01*
X145969925Y-91897000D01*
X146130075Y-91897000D01*
X146287142Y-91928242D01*
X146287142Y-91928242D01*
G37*
G36*
X194547142Y-91928242D02*
X194695102Y-91989530D01*
X194828258Y-92078502D01*
X194941498Y-92191742D01*
X195030470Y-92324898D01*
X195091758Y-92472858D01*
X195123000Y-92629925D01*
X195123000Y-92790075D01*
X195091758Y-92947142D01*
X195030470Y-93095102D01*
X194941498Y-93228258D01*
X194828258Y-93341498D01*
X194695102Y-93430470D01*
X194547142Y-93491758D01*
X194390075Y-93523000D01*
X194229925Y-93523000D01*
X194072858Y-93491758D01*
X193924898Y-93430470D01*
X193791742Y-93341498D01*
X193678502Y-93228258D01*
X193589530Y-93095102D01*
X193528242Y-92947142D01*
X193497000Y-92790075D01*
X193497000Y-92629925D01*
X193528242Y-92472858D01*
X193589530Y-92324898D01*
X193678502Y-92191742D01*
X193791742Y-92078502D01*
X193924898Y-91989530D01*
X194072858Y-91928242D01*
X194229925Y-91897000D01*
X194390075Y-91897000D01*
X194547142Y-91928242D01*
X194547142Y-91928242D01*
G37*
G36*
X98941000Y-93271000D02*
X96839000Y-93271000D01*
X96839000Y-91669000D01*
X98941000Y-91669000D01*
X98941000Y-93271000D01*
X98941000Y-93271000D01*
G37*
G36*
X86876000Y-93271000D02*
X84774000Y-93271000D01*
X84774000Y-91669000D01*
X86876000Y-91669000D01*
X86876000Y-93271000D01*
X86876000Y-93271000D01*
G37*
G36*
X111641000Y-93271000D02*
X109539000Y-93271000D01*
X109539000Y-91669000D01*
X111641000Y-91669000D01*
X111641000Y-93271000D01*
X111641000Y-93271000D01*
G37*
G36*
X124976000Y-93271000D02*
X122874000Y-93271000D01*
X122874000Y-91669000D01*
X124976000Y-91669000D01*
X124976000Y-93271000D01*
X124976000Y-93271000D01*
G37*
G36*
X117941000Y-92121000D02*
X115839000Y-92121000D01*
X115839000Y-88219000D01*
X117941000Y-88219000D01*
X117941000Y-92121000D01*
X117941000Y-92121000D01*
G37*
G36*
X105241000Y-92121000D02*
X103139000Y-92121000D01*
X103139000Y-88219000D01*
X105241000Y-88219000D01*
X105241000Y-92121000D01*
X105241000Y-92121000D01*
G37*
G36*
X93176000Y-92121000D02*
X91074000Y-92121000D01*
X91074000Y-88219000D01*
X93176000Y-88219000D01*
X93176000Y-92121000D01*
X93176000Y-92121000D01*
G37*
G36*
X131276000Y-92121000D02*
X129174000Y-92121000D01*
X129174000Y-88219000D01*
X131276000Y-88219000D01*
X131276000Y-92121000D01*
X131276000Y-92121000D01*
G37*
G36*
X194547142Y-89388242D02*
X194695102Y-89449530D01*
X194828258Y-89538502D01*
X194941498Y-89651742D01*
X195030470Y-89784898D01*
X195091758Y-89932858D01*
X195123000Y-90089925D01*
X195123000Y-90250075D01*
X195091758Y-90407142D01*
X195030470Y-90555102D01*
X194941498Y-90688258D01*
X194828258Y-90801498D01*
X194695102Y-90890470D01*
X194547142Y-90951758D01*
X194390075Y-90983000D01*
X194229925Y-90983000D01*
X194072858Y-90951758D01*
X193924898Y-90890470D01*
X193791742Y-90801498D01*
X193678502Y-90688258D01*
X193589530Y-90555102D01*
X193528242Y-90407142D01*
X193497000Y-90250075D01*
X193497000Y-90089925D01*
X193528242Y-89932858D01*
X193589530Y-89784898D01*
X193678502Y-89651742D01*
X193791742Y-89538502D01*
X193924898Y-89449530D01*
X194072858Y-89388242D01*
X194229925Y-89357000D01*
X194390075Y-89357000D01*
X194547142Y-89388242D01*
X194547142Y-89388242D01*
G37*
G36*
X146287142Y-89388242D02*
X146435102Y-89449530D01*
X146568258Y-89538502D01*
X146681498Y-89651742D01*
X146770470Y-89784898D01*
X146831758Y-89932858D01*
X146863000Y-90089925D01*
X146863000Y-90250075D01*
X146831758Y-90407142D01*
X146770470Y-90555102D01*
X146681498Y-90688258D01*
X146568258Y-90801498D01*
X146435102Y-90890470D01*
X146287142Y-90951758D01*
X146130075Y-90983000D01*
X145969925Y-90983000D01*
X145812858Y-90951758D01*
X145664898Y-90890470D01*
X145531742Y-90801498D01*
X145418502Y-90688258D01*
X145329530Y-90555102D01*
X145268242Y-90407142D01*
X145237000Y-90250075D01*
X145237000Y-90089925D01*
X145268242Y-89932858D01*
X145329530Y-89784898D01*
X145418502Y-89651742D01*
X145531742Y-89538502D01*
X145664898Y-89449530D01*
X145812858Y-89388242D01*
X145969925Y-89357000D01*
X146130075Y-89357000D01*
X146287142Y-89388242D01*
X146287142Y-89388242D01*
G37*
G36*
X124976000Y-90971000D02*
X122874000Y-90971000D01*
X122874000Y-89369000D01*
X124976000Y-89369000D01*
X124976000Y-90971000D01*
X124976000Y-90971000D01*
G37*
G36*
X111641000Y-90971000D02*
X109539000Y-90971000D01*
X109539000Y-89369000D01*
X111641000Y-89369000D01*
X111641000Y-90971000D01*
X111641000Y-90971000D01*
G37*
G36*
X98941000Y-90971000D02*
X96839000Y-90971000D01*
X96839000Y-89369000D01*
X98941000Y-89369000D01*
X98941000Y-90971000D01*
X98941000Y-90971000D01*
G37*
G36*
X86876000Y-90971000D02*
X84774000Y-90971000D01*
X84774000Y-89369000D01*
X86876000Y-89369000D01*
X86876000Y-90971000D01*
X86876000Y-90971000D01*
G37*
G36*
X98941000Y-88671000D02*
X96839000Y-88671000D01*
X96839000Y-87069000D01*
X98941000Y-87069000D01*
X98941000Y-88671000D01*
X98941000Y-88671000D01*
G37*
G36*
X124976000Y-88671000D02*
X122874000Y-88671000D01*
X122874000Y-87069000D01*
X124976000Y-87069000D01*
X124976000Y-88671000D01*
X124976000Y-88671000D01*
G37*
G36*
X111641000Y-88671000D02*
X109539000Y-88671000D01*
X109539000Y-87069000D01*
X111641000Y-87069000D01*
X111641000Y-88671000D01*
X111641000Y-88671000D01*
G37*
G36*
X86876000Y-88671000D02*
X84774000Y-88671000D01*
X84774000Y-87069000D01*
X86876000Y-87069000D01*
X86876000Y-88671000D01*
X86876000Y-88671000D01*
G37*
G36*
X146287142Y-86848242D02*
X146435102Y-86909530D01*
X146568258Y-86998502D01*
X146681498Y-87111742D01*
X146770470Y-87244898D01*
X146831758Y-87392858D01*
X146863000Y-87549925D01*
X146863000Y-87710075D01*
X146831758Y-87867142D01*
X146770470Y-88015102D01*
X146681498Y-88148258D01*
X146568258Y-88261498D01*
X146435102Y-88350470D01*
X146287142Y-88411758D01*
X146130075Y-88443000D01*
X145969925Y-88443000D01*
X145812858Y-88411758D01*
X145664898Y-88350470D01*
X145531742Y-88261498D01*
X145418502Y-88148258D01*
X145329530Y-88015102D01*
X145268242Y-87867142D01*
X145237000Y-87710075D01*
X145237000Y-87549925D01*
X145268242Y-87392858D01*
X145329530Y-87244898D01*
X145418502Y-87111742D01*
X145531742Y-86998502D01*
X145664898Y-86909530D01*
X145812858Y-86848242D01*
X145969925Y-86817000D01*
X146130075Y-86817000D01*
X146287142Y-86848242D01*
X146287142Y-86848242D01*
G37*
G36*
X146287142Y-84308242D02*
X146435102Y-84369530D01*
X146568258Y-84458502D01*
X146681498Y-84571742D01*
X146770470Y-84704898D01*
X146831758Y-84852858D01*
X146863000Y-85009925D01*
X146863000Y-85170075D01*
X146831758Y-85327142D01*
X146770470Y-85475102D01*
X146681498Y-85608258D01*
X146568258Y-85721498D01*
X146435102Y-85810470D01*
X146287142Y-85871758D01*
X146130075Y-85903000D01*
X145969925Y-85903000D01*
X145812858Y-85871758D01*
X145664898Y-85810470D01*
X145531742Y-85721498D01*
X145418502Y-85608258D01*
X145329530Y-85475102D01*
X145268242Y-85327142D01*
X145237000Y-85170075D01*
X145237000Y-85009925D01*
X145268242Y-84852858D01*
X145329530Y-84704898D01*
X145418502Y-84571742D01*
X145531742Y-84458502D01*
X145664898Y-84369530D01*
X145812858Y-84308242D01*
X145969925Y-84277000D01*
X146130075Y-84277000D01*
X146287142Y-84308242D01*
X146287142Y-84308242D01*
G37*
G36*
X194547142Y-84308242D02*
X194695102Y-84369530D01*
X194828258Y-84458502D01*
X194941498Y-84571742D01*
X195030470Y-84704898D01*
X195091758Y-84852858D01*
X195123000Y-85009925D01*
X195123000Y-85170075D01*
X195091758Y-85327142D01*
X195030470Y-85475102D01*
X194941498Y-85608258D01*
X194828258Y-85721498D01*
X194695102Y-85810470D01*
X194547142Y-85871758D01*
X194390075Y-85903000D01*
X194229925Y-85903000D01*
X194072858Y-85871758D01*
X193924898Y-85810470D01*
X193791742Y-85721498D01*
X193678502Y-85608258D01*
X193589530Y-85475102D01*
X193528242Y-85327142D01*
X193497000Y-85170075D01*
X193497000Y-85009925D01*
X193528242Y-84852858D01*
X193589530Y-84704898D01*
X193678502Y-84571742D01*
X193791742Y-84458502D01*
X193924898Y-84369530D01*
X194072858Y-84308242D01*
X194229925Y-84277000D01*
X194390075Y-84277000D01*
X194547142Y-84308242D01*
X194547142Y-84308242D01*
G37*
G36*
X194547142Y-81768242D02*
X194695102Y-81829530D01*
X194828258Y-81918502D01*
X194941498Y-82031742D01*
X195030470Y-82164898D01*
X195091758Y-82312858D01*
X195123000Y-82469925D01*
X195123000Y-82630075D01*
X195091758Y-82787142D01*
X195030470Y-82935102D01*
X194941498Y-83068258D01*
X194828258Y-83181498D01*
X194695102Y-83270470D01*
X194547142Y-83331758D01*
X194390075Y-83363000D01*
X194229925Y-83363000D01*
X194072858Y-83331758D01*
X193924898Y-83270470D01*
X193791742Y-83181498D01*
X193678502Y-83068258D01*
X193589530Y-82935102D01*
X193528242Y-82787142D01*
X193497000Y-82630075D01*
X193497000Y-82469925D01*
X193528242Y-82312858D01*
X193589530Y-82164898D01*
X193678502Y-82031742D01*
X193791742Y-81918502D01*
X193924898Y-81829530D01*
X194072858Y-81768242D01*
X194229925Y-81737000D01*
X194390075Y-81737000D01*
X194547142Y-81768242D01*
X194547142Y-81768242D01*
G37*
G36*
X146287142Y-80244242D02*
X146435102Y-80305530D01*
X146502130Y-80350317D01*
X146568257Y-80394501D01*
X146681499Y-80507743D01*
X146725683Y-80573870D01*
X146770470Y-80640898D01*
X146831758Y-80788858D01*
X146863000Y-80945925D01*
X146863000Y-81106075D01*
X146831758Y-81263142D01*
X146770470Y-81411102D01*
X146681498Y-81544258D01*
X146568258Y-81657498D01*
X146435102Y-81746470D01*
X146287142Y-81807758D01*
X146130075Y-81839000D01*
X145969925Y-81839000D01*
X145812858Y-81807758D01*
X145664898Y-81746470D01*
X145531742Y-81657498D01*
X145418502Y-81544258D01*
X145329530Y-81411102D01*
X145268242Y-81263142D01*
X145237000Y-81106075D01*
X145237000Y-80945925D01*
X145268242Y-80788858D01*
X145329530Y-80640898D01*
X145374317Y-80573870D01*
X145418501Y-80507743D01*
X145531743Y-80394501D01*
X145597870Y-80350317D01*
X145664898Y-80305530D01*
X145812858Y-80244242D01*
X145969925Y-80213000D01*
X146130075Y-80213000D01*
X146287142Y-80244242D01*
X146287142Y-80244242D01*
G37*
G36*
X194547142Y-79228242D02*
X194695102Y-79289530D01*
X194828258Y-79378502D01*
X194941498Y-79491742D01*
X195030470Y-79624898D01*
X195091758Y-79772858D01*
X195123000Y-79929925D01*
X195123000Y-80090075D01*
X195091758Y-80247142D01*
X195044354Y-80361583D01*
X195030471Y-80395100D01*
X194955207Y-80507742D01*
X194941498Y-80528258D01*
X194828258Y-80641498D01*
X194695102Y-80730470D01*
X194547142Y-80791758D01*
X194390075Y-80823000D01*
X194229925Y-80823000D01*
X194072858Y-80791758D01*
X193924898Y-80730470D01*
X193791742Y-80641498D01*
X193678502Y-80528258D01*
X193664794Y-80507742D01*
X193589529Y-80395100D01*
X193575646Y-80361583D01*
X193528242Y-80247142D01*
X193497000Y-80090075D01*
X193497000Y-79929925D01*
X193528242Y-79772858D01*
X193589530Y-79624898D01*
X193678502Y-79491742D01*
X193791742Y-79378502D01*
X193924898Y-79289530D01*
X194072858Y-79228242D01*
X194229925Y-79197000D01*
X194390075Y-79197000D01*
X194547142Y-79228242D01*
X194547142Y-79228242D01*
G37*
G36*
X146287142Y-77704242D02*
X146401583Y-77751646D01*
X146418213Y-77758534D01*
X146435102Y-77765530D01*
X146502130Y-77810317D01*
X146568257Y-77854501D01*
X146681499Y-77967743D01*
X146725683Y-78033870D01*
X146770470Y-78100898D01*
X146831758Y-78248858D01*
X146863000Y-78405925D01*
X146863000Y-78566075D01*
X146831758Y-78723142D01*
X146770470Y-78871102D01*
X146681498Y-79004258D01*
X146568258Y-79117498D01*
X146435102Y-79206470D01*
X146287142Y-79267758D01*
X146130075Y-79299000D01*
X145969925Y-79299000D01*
X145812858Y-79267758D01*
X145664898Y-79206470D01*
X145531742Y-79117498D01*
X145418502Y-79004258D01*
X145329530Y-78871102D01*
X145268242Y-78723142D01*
X145237000Y-78566075D01*
X145237000Y-78405925D01*
X145268242Y-78248858D01*
X145329530Y-78100898D01*
X145374317Y-78033870D01*
X145418501Y-77967743D01*
X145531743Y-77854501D01*
X145597870Y-77810317D01*
X145664898Y-77765530D01*
X145681788Y-77758534D01*
X145698417Y-77751646D01*
X145812858Y-77704242D01*
X145969925Y-77673000D01*
X146130075Y-77673000D01*
X146287142Y-77704242D01*
X146287142Y-77704242D01*
G37*
G36*
X78215443Y-77210519D02*
X78281627Y-77217037D01*
X78394853Y-77251384D01*
X78451467Y-77268557D01*
X78590087Y-77342652D01*
X78607991Y-77352222D01*
X78643729Y-77381552D01*
X78745186Y-77464814D01*
X78815156Y-77550074D01*
X78857778Y-77602009D01*
X78857779Y-77602011D01*
X78941443Y-77758533D01*
X78941443Y-77758534D01*
X78992963Y-77928373D01*
X79010359Y-78105000D01*
X78992963Y-78281627D01*
X78958616Y-78394853D01*
X78941443Y-78451467D01*
X78880183Y-78566074D01*
X78857778Y-78607991D01*
X78828448Y-78643729D01*
X78745186Y-78745186D01*
X78643729Y-78828448D01*
X78607991Y-78857778D01*
X78607989Y-78857779D01*
X78451467Y-78941443D01*
X78394853Y-78958616D01*
X78281627Y-78992963D01*
X78215443Y-78999481D01*
X78149260Y-79006000D01*
X78060740Y-79006000D01*
X77994557Y-78999481D01*
X77928373Y-78992963D01*
X77815147Y-78958616D01*
X77758533Y-78941443D01*
X77602011Y-78857779D01*
X77602009Y-78857778D01*
X77566271Y-78828448D01*
X77464814Y-78745186D01*
X77381552Y-78643729D01*
X77352222Y-78607991D01*
X77329817Y-78566074D01*
X77268557Y-78451467D01*
X77251384Y-78394853D01*
X77217037Y-78281627D01*
X77199641Y-78105000D01*
X77217037Y-77928373D01*
X77268557Y-77758534D01*
X77268557Y-77758533D01*
X77352221Y-77602011D01*
X77352222Y-77602009D01*
X77394844Y-77550074D01*
X77464814Y-77464814D01*
X77566271Y-77381552D01*
X77602009Y-77352222D01*
X77619913Y-77342652D01*
X77758533Y-77268557D01*
X77815147Y-77251384D01*
X77928373Y-77217037D01*
X77994557Y-77210519D01*
X78060740Y-77204000D01*
X78149260Y-77204000D01*
X78215443Y-77210519D01*
X78215443Y-77210519D01*
G37*
G36*
X194547142Y-76688242D02*
X194695102Y-76749530D01*
X194828258Y-76838502D01*
X194941498Y-76951742D01*
X195030470Y-77084898D01*
X195091758Y-77232858D01*
X195123000Y-77389925D01*
X195123000Y-77550075D01*
X195091758Y-77707142D01*
X195044354Y-77821583D01*
X195030471Y-77855100D01*
X194955207Y-77967742D01*
X194941498Y-77988258D01*
X194828258Y-78101498D01*
X194695102Y-78190470D01*
X194547142Y-78251758D01*
X194390075Y-78283000D01*
X194229925Y-78283000D01*
X194072858Y-78251758D01*
X193924898Y-78190470D01*
X193791742Y-78101498D01*
X193678502Y-77988258D01*
X193664794Y-77967742D01*
X193589529Y-77855100D01*
X193575646Y-77821583D01*
X193528242Y-77707142D01*
X193497000Y-77550075D01*
X193497000Y-77389925D01*
X193528242Y-77232858D01*
X193589530Y-77084898D01*
X193678502Y-76951742D01*
X193791742Y-76838502D01*
X193924898Y-76749530D01*
X194072858Y-76688242D01*
X194229925Y-76657000D01*
X194390075Y-76657000D01*
X194547142Y-76688242D01*
X194547142Y-76688242D01*
G37*
G36*
X146287142Y-75164242D02*
X146401583Y-75211646D01*
X146418213Y-75218534D01*
X146435102Y-75225530D01*
X146502130Y-75270317D01*
X146568257Y-75314501D01*
X146681499Y-75427743D01*
X146725683Y-75493870D01*
X146770470Y-75560898D01*
X146831758Y-75708858D01*
X146863000Y-75865925D01*
X146863000Y-76026075D01*
X146831758Y-76183142D01*
X146770470Y-76331102D01*
X146681498Y-76464258D01*
X146568258Y-76577498D01*
X146435102Y-76666470D01*
X146287142Y-76727758D01*
X146130075Y-76759000D01*
X145969925Y-76759000D01*
X145812858Y-76727758D01*
X145664898Y-76666470D01*
X145531742Y-76577498D01*
X145418502Y-76464258D01*
X145329530Y-76331102D01*
X145268242Y-76183142D01*
X145237000Y-76026075D01*
X145237000Y-75865925D01*
X145268242Y-75708858D01*
X145329530Y-75560898D01*
X145374317Y-75493870D01*
X145418501Y-75427743D01*
X145531743Y-75314501D01*
X145597870Y-75270317D01*
X145664898Y-75225530D01*
X145681788Y-75218534D01*
X145698417Y-75211646D01*
X145812858Y-75164242D01*
X145969925Y-75133000D01*
X146130075Y-75133000D01*
X146287142Y-75164242D01*
X146287142Y-75164242D01*
G37*
G36*
X78215442Y-74670518D02*
X78281627Y-74677037D01*
X78394853Y-74711384D01*
X78451467Y-74728557D01*
X78590087Y-74802652D01*
X78607991Y-74812222D01*
X78643729Y-74841552D01*
X78745186Y-74924814D01*
X78815156Y-75010074D01*
X78857778Y-75062009D01*
X78857779Y-75062011D01*
X78941443Y-75218533D01*
X78941443Y-75218534D01*
X78992963Y-75388373D01*
X79010359Y-75565000D01*
X78992963Y-75741627D01*
X78958616Y-75854853D01*
X78941443Y-75911467D01*
X78880183Y-76026074D01*
X78857778Y-76067991D01*
X78828448Y-76103729D01*
X78745186Y-76205186D01*
X78643729Y-76288448D01*
X78607991Y-76317778D01*
X78607989Y-76317779D01*
X78451467Y-76401443D01*
X78394853Y-76418616D01*
X78281627Y-76452963D01*
X78215443Y-76459481D01*
X78149260Y-76466000D01*
X78060740Y-76466000D01*
X77994557Y-76459481D01*
X77928373Y-76452963D01*
X77815147Y-76418616D01*
X77758533Y-76401443D01*
X77602011Y-76317779D01*
X77602009Y-76317778D01*
X77566271Y-76288448D01*
X77464814Y-76205186D01*
X77381552Y-76103729D01*
X77352222Y-76067991D01*
X77329817Y-76026074D01*
X77268557Y-75911467D01*
X77251384Y-75854853D01*
X77217037Y-75741627D01*
X77199641Y-75565000D01*
X77217037Y-75388373D01*
X77268557Y-75218534D01*
X77268557Y-75218533D01*
X77352221Y-75062011D01*
X77352222Y-75062009D01*
X77394844Y-75010074D01*
X77464814Y-74924814D01*
X77566271Y-74841552D01*
X77602009Y-74812222D01*
X77619913Y-74802652D01*
X77758533Y-74728557D01*
X77815147Y-74711384D01*
X77928373Y-74677037D01*
X77994558Y-74670518D01*
X78060740Y-74664000D01*
X78149260Y-74664000D01*
X78215442Y-74670518D01*
X78215442Y-74670518D01*
G37*
G36*
X194547142Y-74148242D02*
X194695102Y-74209530D01*
X194828258Y-74298502D01*
X194941498Y-74411742D01*
X195030470Y-74544898D01*
X195091758Y-74692858D01*
X195123000Y-74849925D01*
X195123000Y-75010075D01*
X195091758Y-75167142D01*
X195044354Y-75281583D01*
X195030471Y-75315100D01*
X194955207Y-75427742D01*
X194941498Y-75448258D01*
X194828258Y-75561498D01*
X194695102Y-75650470D01*
X194547142Y-75711758D01*
X194390075Y-75743000D01*
X194229925Y-75743000D01*
X194072858Y-75711758D01*
X193924898Y-75650470D01*
X193791742Y-75561498D01*
X193678502Y-75448258D01*
X193664794Y-75427742D01*
X193589529Y-75315100D01*
X193575646Y-75281583D01*
X193528242Y-75167142D01*
X193497000Y-75010075D01*
X193497000Y-74849925D01*
X193528242Y-74692858D01*
X193589530Y-74544898D01*
X193678502Y-74411742D01*
X193791742Y-74298502D01*
X193924898Y-74209530D01*
X194072858Y-74148242D01*
X194229925Y-74117000D01*
X194390075Y-74117000D01*
X194547142Y-74148242D01*
X194547142Y-74148242D01*
G37*
G36*
X146287142Y-72624242D02*
X146401583Y-72671646D01*
X146418213Y-72678534D01*
X146435102Y-72685530D01*
X146502130Y-72730317D01*
X146568257Y-72774501D01*
X146681499Y-72887743D01*
X146725683Y-72953870D01*
X146770470Y-73020898D01*
X146831758Y-73168858D01*
X146863000Y-73325925D01*
X146863000Y-73486075D01*
X146831758Y-73643142D01*
X146770470Y-73791102D01*
X146681498Y-73924258D01*
X146568258Y-74037498D01*
X146435102Y-74126470D01*
X146287142Y-74187758D01*
X146130075Y-74219000D01*
X145969925Y-74219000D01*
X145812858Y-74187758D01*
X145664898Y-74126470D01*
X145531742Y-74037498D01*
X145418502Y-73924258D01*
X145329530Y-73791102D01*
X145268242Y-73643142D01*
X145237000Y-73486075D01*
X145237000Y-73325925D01*
X145268242Y-73168858D01*
X145329530Y-73020898D01*
X145374317Y-72953870D01*
X145418501Y-72887743D01*
X145531743Y-72774501D01*
X145597870Y-72730317D01*
X145664898Y-72685530D01*
X145681788Y-72678534D01*
X145698417Y-72671646D01*
X145812858Y-72624242D01*
X145969925Y-72593000D01*
X146130075Y-72593000D01*
X146287142Y-72624242D01*
X146287142Y-72624242D01*
G37*
G36*
X78215443Y-72130519D02*
X78281627Y-72137037D01*
X78394853Y-72171384D01*
X78451467Y-72188557D01*
X78590087Y-72262652D01*
X78607991Y-72272222D01*
X78643729Y-72301552D01*
X78745186Y-72384814D01*
X78815156Y-72470074D01*
X78857778Y-72522009D01*
X78857779Y-72522011D01*
X78941443Y-72678533D01*
X78941443Y-72678534D01*
X78992963Y-72848373D01*
X79010359Y-73025000D01*
X78992963Y-73201627D01*
X78958616Y-73314853D01*
X78941443Y-73371467D01*
X78880183Y-73486074D01*
X78857778Y-73527991D01*
X78828448Y-73563729D01*
X78745186Y-73665186D01*
X78643729Y-73748448D01*
X78607991Y-73777778D01*
X78607989Y-73777779D01*
X78451467Y-73861443D01*
X78394853Y-73878616D01*
X78281627Y-73912963D01*
X78215443Y-73919481D01*
X78149260Y-73926000D01*
X78060740Y-73926000D01*
X77994557Y-73919481D01*
X77928373Y-73912963D01*
X77815147Y-73878616D01*
X77758533Y-73861443D01*
X77602011Y-73777779D01*
X77602009Y-73777778D01*
X77566271Y-73748448D01*
X77464814Y-73665186D01*
X77381552Y-73563729D01*
X77352222Y-73527991D01*
X77329817Y-73486074D01*
X77268557Y-73371467D01*
X77251384Y-73314853D01*
X77217037Y-73201627D01*
X77199641Y-73025000D01*
X77217037Y-72848373D01*
X77268557Y-72678534D01*
X77268557Y-72678533D01*
X77352221Y-72522011D01*
X77352222Y-72522009D01*
X77394844Y-72470074D01*
X77464814Y-72384814D01*
X77566271Y-72301552D01*
X77602009Y-72272222D01*
X77619913Y-72262652D01*
X77758533Y-72188557D01*
X77815147Y-72171384D01*
X77928373Y-72137037D01*
X77994557Y-72130519D01*
X78060740Y-72124000D01*
X78149260Y-72124000D01*
X78215443Y-72130519D01*
X78215443Y-72130519D01*
G37*
G36*
X194547142Y-71608242D02*
X194695102Y-71669530D01*
X194828258Y-71758502D01*
X194941498Y-71871742D01*
X195030470Y-72004898D01*
X195091758Y-72152858D01*
X195123000Y-72309925D01*
X195123000Y-72470075D01*
X195091758Y-72627142D01*
X195044354Y-72741583D01*
X195030471Y-72775100D01*
X194955207Y-72887742D01*
X194941498Y-72908258D01*
X194828258Y-73021498D01*
X194695102Y-73110470D01*
X194547142Y-73171758D01*
X194390075Y-73203000D01*
X194229925Y-73203000D01*
X194072858Y-73171758D01*
X193924898Y-73110470D01*
X193791742Y-73021498D01*
X193678502Y-72908258D01*
X193664794Y-72887742D01*
X193589529Y-72775100D01*
X193575646Y-72741583D01*
X193528242Y-72627142D01*
X193497000Y-72470075D01*
X193497000Y-72309925D01*
X193528242Y-72152858D01*
X193589530Y-72004898D01*
X193678502Y-71871742D01*
X193791742Y-71758502D01*
X193924898Y-71669530D01*
X194072858Y-71608242D01*
X194229925Y-71577000D01*
X194390075Y-71577000D01*
X194547142Y-71608242D01*
X194547142Y-71608242D01*
G37*
G36*
X146287142Y-70084242D02*
X146435102Y-70145530D01*
X146502130Y-70190317D01*
X146568257Y-70234501D01*
X146681499Y-70347743D01*
X146725683Y-70413870D01*
X146770470Y-70480898D01*
X146831758Y-70628858D01*
X146863000Y-70785925D01*
X146863000Y-70946075D01*
X146831758Y-71103142D01*
X146770470Y-71251102D01*
X146681498Y-71384258D01*
X146568258Y-71497498D01*
X146435102Y-71586470D01*
X146287142Y-71647758D01*
X146130075Y-71679000D01*
X145969925Y-71679000D01*
X145812858Y-71647758D01*
X145664898Y-71586470D01*
X145531742Y-71497498D01*
X145418502Y-71384258D01*
X145329530Y-71251102D01*
X145268242Y-71103142D01*
X145237000Y-70946075D01*
X145237000Y-70785925D01*
X145268242Y-70628858D01*
X145329530Y-70480898D01*
X145374317Y-70413870D01*
X145418501Y-70347743D01*
X145531743Y-70234501D01*
X145597870Y-70190317D01*
X145664898Y-70145530D01*
X145812858Y-70084242D01*
X145969925Y-70053000D01*
X146130075Y-70053000D01*
X146287142Y-70084242D01*
X146287142Y-70084242D01*
G37*
G36*
X79006000Y-71386000D02*
X77204000Y-71386000D01*
X77204000Y-69584000D01*
X79006000Y-69584000D01*
X79006000Y-71386000D01*
X79006000Y-71386000D01*
G37*
G36*
X89341000Y-71046000D02*
X87239000Y-71046000D01*
X87239000Y-69444000D01*
X89341000Y-69444000D01*
X89341000Y-71046000D01*
X89341000Y-71046000D01*
G37*
G36*
X102041000Y-71046000D02*
X99939000Y-71046000D01*
X99939000Y-69444000D01*
X102041000Y-69444000D01*
X102041000Y-71046000D01*
X102041000Y-71046000D01*
G37*
G36*
X128711000Y-71046000D02*
X126609000Y-71046000D01*
X126609000Y-69444000D01*
X128711000Y-69444000D01*
X128711000Y-71046000D01*
X128711000Y-71046000D01*
G37*
G36*
X115376000Y-71046000D02*
X113274000Y-71046000D01*
X113274000Y-69444000D01*
X115376000Y-69444000D01*
X115376000Y-71046000D01*
X115376000Y-71046000D01*
G37*
G36*
X194547142Y-69068242D02*
X194695102Y-69129530D01*
X194828258Y-69218502D01*
X194941498Y-69331742D01*
X195030470Y-69464898D01*
X195091758Y-69612858D01*
X195123000Y-69769925D01*
X195123000Y-69930075D01*
X195091758Y-70087142D01*
X195044354Y-70201583D01*
X195030471Y-70235100D01*
X194955207Y-70347742D01*
X194941498Y-70368258D01*
X194828258Y-70481498D01*
X194695102Y-70570470D01*
X194547142Y-70631758D01*
X194390075Y-70663000D01*
X194229925Y-70663000D01*
X194072858Y-70631758D01*
X193924898Y-70570470D01*
X193791742Y-70481498D01*
X193678502Y-70368258D01*
X193664794Y-70347742D01*
X193589529Y-70235100D01*
X193575646Y-70201583D01*
X193528242Y-70087142D01*
X193497000Y-69930075D01*
X193497000Y-69769925D01*
X193528242Y-69612858D01*
X193589530Y-69464898D01*
X193678502Y-69331742D01*
X193791742Y-69218502D01*
X193924898Y-69129530D01*
X194072858Y-69068242D01*
X194229925Y-69037000D01*
X194390075Y-69037000D01*
X194547142Y-69068242D01*
X194547142Y-69068242D01*
G37*
G36*
X95641000Y-69896000D02*
X93539000Y-69896000D01*
X93539000Y-65994000D01*
X95641000Y-65994000D01*
X95641000Y-69896000D01*
X95641000Y-69896000D01*
G37*
G36*
X135011000Y-69896000D02*
X132909000Y-69896000D01*
X132909000Y-65994000D01*
X135011000Y-65994000D01*
X135011000Y-69896000D01*
X135011000Y-69896000D01*
G37*
G36*
X121676000Y-69896000D02*
X119574000Y-69896000D01*
X119574000Y-65994000D01*
X121676000Y-65994000D01*
X121676000Y-69896000D01*
X121676000Y-69896000D01*
G37*
G36*
X108341000Y-69896000D02*
X106239000Y-69896000D01*
X106239000Y-65994000D01*
X108341000Y-65994000D01*
X108341000Y-69896000D01*
X108341000Y-69896000D01*
G37*
G36*
X146287142Y-67544242D02*
X146435102Y-67605530D01*
X146568258Y-67694502D01*
X146681498Y-67807742D01*
X146770470Y-67940898D01*
X146831758Y-68088858D01*
X146863000Y-68245925D01*
X146863000Y-68406075D01*
X146831758Y-68563142D01*
X146770470Y-68711102D01*
X146681498Y-68844258D01*
X146568258Y-68957498D01*
X146435102Y-69046470D01*
X146287142Y-69107758D01*
X146130075Y-69139000D01*
X145969925Y-69139000D01*
X145812858Y-69107758D01*
X145664898Y-69046470D01*
X145531742Y-68957498D01*
X145418502Y-68844258D01*
X145329530Y-68711102D01*
X145268242Y-68563142D01*
X145237000Y-68406075D01*
X145237000Y-68245925D01*
X145268242Y-68088858D01*
X145329530Y-67940898D01*
X145418502Y-67807742D01*
X145531742Y-67694502D01*
X145664898Y-67605530D01*
X145812858Y-67544242D01*
X145969925Y-67513000D01*
X146130075Y-67513000D01*
X146287142Y-67544242D01*
X146287142Y-67544242D01*
G37*
G36*
X102041000Y-68746000D02*
X99939000Y-68746000D01*
X99939000Y-67144000D01*
X102041000Y-67144000D01*
X102041000Y-68746000D01*
X102041000Y-68746000D01*
G37*
G36*
X89341000Y-68746000D02*
X87239000Y-68746000D01*
X87239000Y-67144000D01*
X89341000Y-67144000D01*
X89341000Y-68746000D01*
X89341000Y-68746000D01*
G37*
G36*
X128711000Y-68746000D02*
X126609000Y-68746000D01*
X126609000Y-67144000D01*
X128711000Y-67144000D01*
X128711000Y-68746000D01*
X128711000Y-68746000D01*
G37*
G36*
X115376000Y-68746000D02*
X113274000Y-68746000D01*
X113274000Y-67144000D01*
X115376000Y-67144000D01*
X115376000Y-68746000D01*
X115376000Y-68746000D01*
G37*
G36*
X146287142Y-65004242D02*
X146435102Y-65065530D01*
X146568258Y-65154502D01*
X146681498Y-65267742D01*
X146770470Y-65400898D01*
X146831758Y-65548858D01*
X146863000Y-65705925D01*
X146863000Y-65866075D01*
X146831758Y-66023142D01*
X146770470Y-66171102D01*
X146681498Y-66304258D01*
X146568258Y-66417498D01*
X146435102Y-66506470D01*
X146287142Y-66567758D01*
X146130075Y-66599000D01*
X145969925Y-66599000D01*
X145812858Y-66567758D01*
X145664898Y-66506470D01*
X145531742Y-66417498D01*
X145418502Y-66304258D01*
X145329530Y-66171102D01*
X145268242Y-66023142D01*
X145237000Y-65866075D01*
X145237000Y-65705925D01*
X145268242Y-65548858D01*
X145329530Y-65400898D01*
X145418502Y-65267742D01*
X145531742Y-65154502D01*
X145664898Y-65065530D01*
X145812858Y-65004242D01*
X145969925Y-64973000D01*
X146130075Y-64973000D01*
X146287142Y-65004242D01*
X146287142Y-65004242D01*
G37*
G36*
X102041000Y-66446000D02*
X99939000Y-66446000D01*
X99939000Y-64844000D01*
X102041000Y-64844000D01*
X102041000Y-66446000D01*
X102041000Y-66446000D01*
G37*
G36*
X128711000Y-66446000D02*
X126609000Y-66446000D01*
X126609000Y-64844000D01*
X128711000Y-64844000D01*
X128711000Y-66446000D01*
X128711000Y-66446000D01*
G37*
G36*
X115376000Y-66446000D02*
X113274000Y-66446000D01*
X113274000Y-64844000D01*
X115376000Y-64844000D01*
X115376000Y-66446000D01*
X115376000Y-66446000D01*
G37*
G36*
X89341000Y-66446000D02*
X87239000Y-66446000D01*
X87239000Y-64844000D01*
X89341000Y-64844000D01*
X89341000Y-66446000D01*
X89341000Y-66446000D01*
G37*
G36*
X146287142Y-62464242D02*
X146435102Y-62525530D01*
X146568258Y-62614502D01*
X146681498Y-62727742D01*
X146770470Y-62860898D01*
X146831758Y-63008858D01*
X146863000Y-63165925D01*
X146863000Y-63326075D01*
X146831758Y-63483142D01*
X146770470Y-63631102D01*
X146681498Y-63764258D01*
X146568258Y-63877498D01*
X146435102Y-63966470D01*
X146287142Y-64027758D01*
X146130075Y-64059000D01*
X145969925Y-64059000D01*
X145812858Y-64027758D01*
X145664898Y-63966470D01*
X145531742Y-63877498D01*
X145418502Y-63764258D01*
X145329530Y-63631102D01*
X145268242Y-63483142D01*
X145237000Y-63326075D01*
X145237000Y-63165925D01*
X145268242Y-63008858D01*
X145329530Y-62860898D01*
X145418502Y-62727742D01*
X145531742Y-62614502D01*
X145664898Y-62525530D01*
X145812858Y-62464242D01*
X145969925Y-62433000D01*
X146130075Y-62433000D01*
X146287142Y-62464242D01*
X146287142Y-62464242D01*
G37*
G36*
X86876000Y-62156000D02*
X84774000Y-62156000D01*
X84774000Y-60554000D01*
X86876000Y-60554000D01*
X86876000Y-62156000D01*
X86876000Y-62156000D01*
G37*
G36*
X98941000Y-62156000D02*
X96839000Y-62156000D01*
X96839000Y-60554000D01*
X98941000Y-60554000D01*
X98941000Y-62156000D01*
X98941000Y-62156000D01*
G37*
G36*
X111641000Y-62156000D02*
X109539000Y-62156000D01*
X109539000Y-60554000D01*
X111641000Y-60554000D01*
X111641000Y-62156000D01*
X111641000Y-62156000D01*
G37*
G36*
X124876000Y-62056000D02*
X122774000Y-62056000D01*
X122774000Y-60454000D01*
X124876000Y-60454000D01*
X124876000Y-62056000D01*
X124876000Y-62056000D01*
G37*
G36*
X146287142Y-59924242D02*
X146435102Y-59985530D01*
X146568258Y-60074502D01*
X146681498Y-60187742D01*
X146770470Y-60320898D01*
X146831758Y-60468858D01*
X146863000Y-60625925D01*
X146863000Y-60786075D01*
X146831758Y-60943142D01*
X146770470Y-61091102D01*
X146681498Y-61224258D01*
X146568258Y-61337498D01*
X146435102Y-61426470D01*
X146287142Y-61487758D01*
X146130075Y-61519000D01*
X145969925Y-61519000D01*
X145812858Y-61487758D01*
X145664898Y-61426470D01*
X145531742Y-61337498D01*
X145418502Y-61224258D01*
X145329530Y-61091102D01*
X145268242Y-60943142D01*
X145237000Y-60786075D01*
X145237000Y-60625925D01*
X145268242Y-60468858D01*
X145329530Y-60320898D01*
X145418502Y-60187742D01*
X145531742Y-60074502D01*
X145664898Y-59985530D01*
X145812858Y-59924242D01*
X145969925Y-59893000D01*
X146130075Y-59893000D01*
X146287142Y-59924242D01*
X146287142Y-59924242D01*
G37*
G36*
X105241000Y-61006000D02*
X103139000Y-61006000D01*
X103139000Y-57104000D01*
X105241000Y-57104000D01*
X105241000Y-61006000D01*
X105241000Y-61006000D01*
G37*
G36*
X93176000Y-61006000D02*
X91074000Y-61006000D01*
X91074000Y-57104000D01*
X93176000Y-57104000D01*
X93176000Y-61006000D01*
X93176000Y-61006000D01*
G37*
G36*
X117941000Y-61006000D02*
X115839000Y-61006000D01*
X115839000Y-57104000D01*
X117941000Y-57104000D01*
X117941000Y-61006000D01*
X117941000Y-61006000D01*
G37*
G36*
X131176000Y-60906000D02*
X129074000Y-60906000D01*
X129074000Y-57004000D01*
X131176000Y-57004000D01*
X131176000Y-60906000D01*
X131176000Y-60906000D01*
G37*
G36*
X98941000Y-59856000D02*
X96839000Y-59856000D01*
X96839000Y-58254000D01*
X98941000Y-58254000D01*
X98941000Y-59856000D01*
X98941000Y-59856000D01*
G37*
G36*
X111641000Y-59856000D02*
X109539000Y-59856000D01*
X109539000Y-58254000D01*
X111641000Y-58254000D01*
X111641000Y-59856000D01*
X111641000Y-59856000D01*
G37*
G36*
X86876000Y-59856000D02*
X84774000Y-59856000D01*
X84774000Y-58254000D01*
X86876000Y-58254000D01*
X86876000Y-59856000D01*
X86876000Y-59856000D01*
G37*
G36*
X124876000Y-59756000D02*
X122774000Y-59756000D01*
X122774000Y-58154000D01*
X124876000Y-58154000D01*
X124876000Y-59756000D01*
X124876000Y-59756000D01*
G37*
G36*
X146863000Y-58979000D02*
X145237000Y-58979000D01*
X145237000Y-57353000D01*
X146863000Y-57353000D01*
X146863000Y-58979000D01*
X146863000Y-58979000D01*
G37*
G36*
X86876000Y-57556000D02*
X84774000Y-57556000D01*
X84774000Y-55954000D01*
X86876000Y-55954000D01*
X86876000Y-57556000D01*
X86876000Y-57556000D01*
G37*
G36*
X111641000Y-57556000D02*
X109539000Y-57556000D01*
X109539000Y-55954000D01*
X111641000Y-55954000D01*
X111641000Y-57556000D01*
X111641000Y-57556000D01*
G37*
G36*
X98941000Y-57556000D02*
X96839000Y-57556000D01*
X96839000Y-55954000D01*
X98941000Y-55954000D01*
X98941000Y-57556000D01*
X98941000Y-57556000D01*
G37*
G36*
X124876000Y-57456000D02*
X122774000Y-57456000D01*
X122774000Y-55854000D01*
X124876000Y-55854000D01*
X124876000Y-57456000D01*
X124876000Y-57456000D01*
G37*
G36*
X79006000Y-54241000D02*
X77204000Y-54241000D01*
X77204000Y-52439000D01*
X79006000Y-52439000D01*
X79006000Y-54241000D01*
X79006000Y-54241000D01*
G37*
G36*
X78215442Y-49905518D02*
X78281627Y-49912037D01*
X78394853Y-49946384D01*
X78451467Y-49963557D01*
X78590087Y-50037652D01*
X78607991Y-50047222D01*
X78643729Y-50076552D01*
X78745186Y-50159814D01*
X78828448Y-50261271D01*
X78857778Y-50297009D01*
X78857779Y-50297011D01*
X78941443Y-50453533D01*
X78941443Y-50453534D01*
X78992963Y-50623373D01*
X79010359Y-50800000D01*
X78992963Y-50976627D01*
X78958616Y-51089853D01*
X78941443Y-51146467D01*
X78867348Y-51285087D01*
X78857778Y-51302991D01*
X78828448Y-51338729D01*
X78745186Y-51440186D01*
X78643729Y-51523448D01*
X78607991Y-51552778D01*
X78607989Y-51552779D01*
X78451467Y-51636443D01*
X78394853Y-51653616D01*
X78281627Y-51687963D01*
X78215442Y-51694482D01*
X78149260Y-51701000D01*
X78060740Y-51701000D01*
X77994558Y-51694482D01*
X77928373Y-51687963D01*
X77815147Y-51653616D01*
X77758533Y-51636443D01*
X77602011Y-51552779D01*
X77602009Y-51552778D01*
X77566271Y-51523448D01*
X77464814Y-51440186D01*
X77381552Y-51338729D01*
X77352222Y-51302991D01*
X77342652Y-51285087D01*
X77268557Y-51146467D01*
X77251384Y-51089853D01*
X77217037Y-50976627D01*
X77199641Y-50800000D01*
X77217037Y-50623373D01*
X77268557Y-50453534D01*
X77268557Y-50453533D01*
X77352221Y-50297011D01*
X77352222Y-50297009D01*
X77381552Y-50261271D01*
X77464814Y-50159814D01*
X77566271Y-50076552D01*
X77602009Y-50047222D01*
X77619913Y-50037652D01*
X77758533Y-49963557D01*
X77815147Y-49946384D01*
X77928373Y-49912037D01*
X77994557Y-49905519D01*
X78060740Y-49899000D01*
X78149260Y-49899000D01*
X78215442Y-49905518D01*
X78215442Y-49905518D01*
G37*
G36*
X78215443Y-47365519D02*
X78281627Y-47372037D01*
X78394853Y-47406384D01*
X78451467Y-47423557D01*
X78590087Y-47497652D01*
X78607991Y-47507222D01*
X78643729Y-47536552D01*
X78745186Y-47619814D01*
X78828448Y-47721271D01*
X78857778Y-47757009D01*
X78857779Y-47757011D01*
X78941443Y-47913533D01*
X78941443Y-47913534D01*
X78992963Y-48083373D01*
X79010359Y-48260000D01*
X78992963Y-48436627D01*
X78985435Y-48461443D01*
X78941443Y-48606467D01*
X78867348Y-48745087D01*
X78857778Y-48762991D01*
X78828448Y-48798729D01*
X78745186Y-48900186D01*
X78643729Y-48983448D01*
X78607991Y-49012778D01*
X78607989Y-49012779D01*
X78451467Y-49096443D01*
X78394853Y-49113616D01*
X78281627Y-49147963D01*
X78215443Y-49154481D01*
X78149260Y-49161000D01*
X78060740Y-49161000D01*
X77994557Y-49154481D01*
X77928373Y-49147963D01*
X77815147Y-49113616D01*
X77758533Y-49096443D01*
X77602011Y-49012779D01*
X77602009Y-49012778D01*
X77566271Y-48983448D01*
X77464814Y-48900186D01*
X77381552Y-48798729D01*
X77352222Y-48762991D01*
X77342652Y-48745087D01*
X77268557Y-48606467D01*
X77224565Y-48461443D01*
X77217037Y-48436627D01*
X77199641Y-48260000D01*
X77217037Y-48083373D01*
X77268557Y-47913534D01*
X77268557Y-47913533D01*
X77352221Y-47757011D01*
X77352222Y-47757009D01*
X77381552Y-47721271D01*
X77464814Y-47619814D01*
X77566271Y-47536552D01*
X77602009Y-47507222D01*
X77619913Y-47497652D01*
X77758533Y-47423557D01*
X77815147Y-47406384D01*
X77928373Y-47372037D01*
X77994557Y-47365519D01*
X78060740Y-47359000D01*
X78149260Y-47359000D01*
X78215443Y-47365519D01*
X78215443Y-47365519D01*
G37*
G36*
X194420442Y-46730518D02*
X194486627Y-46737037D01*
X194599853Y-46771384D01*
X194656467Y-46788557D01*
X194795087Y-46862652D01*
X194812991Y-46872222D01*
X194848729Y-46901552D01*
X194950186Y-46984814D01*
X195033448Y-47086271D01*
X195062778Y-47122009D01*
X195062779Y-47122011D01*
X195146443Y-47278533D01*
X195146443Y-47278534D01*
X195197963Y-47448373D01*
X195215359Y-47625000D01*
X195197963Y-47801627D01*
X195164017Y-47913533D01*
X195146443Y-47971467D01*
X195086627Y-48083373D01*
X195062778Y-48127991D01*
X195033448Y-48163729D01*
X194950186Y-48265186D01*
X194848729Y-48348448D01*
X194812991Y-48377778D01*
X194812989Y-48377779D01*
X194656467Y-48461443D01*
X194599853Y-48478616D01*
X194486627Y-48512963D01*
X194420442Y-48519482D01*
X194354260Y-48526000D01*
X194265740Y-48526000D01*
X194199557Y-48519481D01*
X194133373Y-48512963D01*
X194020147Y-48478616D01*
X193963533Y-48461443D01*
X193807011Y-48377779D01*
X193807009Y-48377778D01*
X193771271Y-48348448D01*
X193669814Y-48265186D01*
X193586552Y-48163729D01*
X193557222Y-48127991D01*
X193533373Y-48083373D01*
X193473557Y-47971467D01*
X193455983Y-47913533D01*
X193422037Y-47801627D01*
X193404641Y-47625000D01*
X193422037Y-47448373D01*
X193473557Y-47278534D01*
X193473557Y-47278533D01*
X193557221Y-47122011D01*
X193557222Y-47122009D01*
X193586552Y-47086271D01*
X193669814Y-46984814D01*
X193771271Y-46901552D01*
X193807009Y-46872222D01*
X193824913Y-46862652D01*
X193963533Y-46788557D01*
X194020147Y-46771384D01*
X194133373Y-46737037D01*
X194199558Y-46730518D01*
X194265740Y-46724000D01*
X194354260Y-46724000D01*
X194420442Y-46730518D01*
X194420442Y-46730518D01*
G37*
G36*
X195211000Y-45986000D02*
X193409000Y-45986000D01*
X193409000Y-44184000D01*
X195211000Y-44184000D01*
X195211000Y-45986000D01*
X195211000Y-45986000D01*
G37*
G36*
X119716000Y-41691000D02*
X117114000Y-41691000D01*
X117114000Y-39589000D01*
X119716000Y-39589000D01*
X119716000Y-41691000D01*
X119716000Y-41691000D01*
G37*
G36*
X103206000Y-41691000D02*
X100604000Y-41691000D01*
X100604000Y-39589000D01*
X103206000Y-39589000D01*
X103206000Y-41691000D01*
X103206000Y-41691000D01*
G37*
G36*
X94646000Y-41691000D02*
X92044000Y-41691000D01*
X92044000Y-39589000D01*
X94646000Y-39589000D01*
X94646000Y-41691000D01*
X94646000Y-41691000D01*
G37*
G36*
X111156000Y-41691000D02*
X108554000Y-41691000D01*
X108554000Y-39589000D01*
X111156000Y-39589000D01*
X111156000Y-41691000D01*
X111156000Y-41691000D01*
G37*
G36*
X148700442Y-39745518D02*
X148766627Y-39752037D01*
X148879853Y-39786384D01*
X148936467Y-39803557D01*
X149075087Y-39877652D01*
X149092991Y-39887222D01*
X149128729Y-39916552D01*
X149230186Y-39999814D01*
X149313448Y-40101271D01*
X149342778Y-40137009D01*
X149342779Y-40137011D01*
X149426443Y-40293533D01*
X149426443Y-40293534D01*
X149477963Y-40463373D01*
X149495359Y-40640000D01*
X149477963Y-40816627D01*
X149443616Y-40929853D01*
X149426443Y-40986467D01*
X149352348Y-41125087D01*
X149342778Y-41142991D01*
X149313448Y-41178729D01*
X149230186Y-41280186D01*
X149128729Y-41363448D01*
X149092991Y-41392778D01*
X149092989Y-41392779D01*
X148936467Y-41476443D01*
X148879853Y-41493616D01*
X148766627Y-41527963D01*
X148700442Y-41534482D01*
X148634260Y-41541000D01*
X148545740Y-41541000D01*
X148479558Y-41534482D01*
X148413373Y-41527963D01*
X148300147Y-41493616D01*
X148243533Y-41476443D01*
X148087011Y-41392779D01*
X148087009Y-41392778D01*
X148051271Y-41363448D01*
X147949814Y-41280186D01*
X147866552Y-41178729D01*
X147837222Y-41142991D01*
X147827652Y-41125087D01*
X147753557Y-40986467D01*
X147736384Y-40929853D01*
X147702037Y-40816627D01*
X147684641Y-40640000D01*
X147702037Y-40463373D01*
X147753557Y-40293534D01*
X147753557Y-40293533D01*
X147837221Y-40137011D01*
X147837222Y-40137009D01*
X147866552Y-40101271D01*
X147949814Y-39999814D01*
X148051271Y-39916552D01*
X148087009Y-39887222D01*
X148104913Y-39877652D01*
X148243533Y-39803557D01*
X148300147Y-39786384D01*
X148413373Y-39752037D01*
X148479557Y-39745519D01*
X148545740Y-39739000D01*
X148634260Y-39739000D01*
X148700442Y-39745518D01*
X148700442Y-39745518D01*
G37*
G36*
X146160442Y-39745518D02*
X146226627Y-39752037D01*
X146339853Y-39786384D01*
X146396467Y-39803557D01*
X146535087Y-39877652D01*
X146552991Y-39887222D01*
X146588729Y-39916552D01*
X146690186Y-39999814D01*
X146773448Y-40101271D01*
X146802778Y-40137009D01*
X146802779Y-40137011D01*
X146886443Y-40293533D01*
X146886443Y-40293534D01*
X146937963Y-40463373D01*
X146955359Y-40640000D01*
X146937963Y-40816627D01*
X146903616Y-40929853D01*
X146886443Y-40986467D01*
X146812348Y-41125087D01*
X146802778Y-41142991D01*
X146773448Y-41178729D01*
X146690186Y-41280186D01*
X146588729Y-41363448D01*
X146552991Y-41392778D01*
X146552989Y-41392779D01*
X146396467Y-41476443D01*
X146339853Y-41493616D01*
X146226627Y-41527963D01*
X146160442Y-41534482D01*
X146094260Y-41541000D01*
X146005740Y-41541000D01*
X145939558Y-41534482D01*
X145873373Y-41527963D01*
X145760147Y-41493616D01*
X145703533Y-41476443D01*
X145547011Y-41392779D01*
X145547009Y-41392778D01*
X145511271Y-41363448D01*
X145409814Y-41280186D01*
X145326552Y-41178729D01*
X145297222Y-41142991D01*
X145287652Y-41125087D01*
X145213557Y-40986467D01*
X145196384Y-40929853D01*
X145162037Y-40816627D01*
X145144641Y-40640000D01*
X145162037Y-40463373D01*
X145213557Y-40293534D01*
X145213557Y-40293533D01*
X145297221Y-40137011D01*
X145297222Y-40137009D01*
X145326552Y-40101271D01*
X145409814Y-39999814D01*
X145511271Y-39916552D01*
X145547009Y-39887222D01*
X145564913Y-39877652D01*
X145703533Y-39803557D01*
X145760147Y-39786384D01*
X145873373Y-39752037D01*
X145939557Y-39745519D01*
X146005740Y-39739000D01*
X146094260Y-39739000D01*
X146160442Y-39745518D01*
X146160442Y-39745518D01*
G37*
G36*
X144411000Y-41541000D02*
X142609000Y-41541000D01*
X142609000Y-39739000D01*
X144411000Y-39739000D01*
X144411000Y-41541000D01*
X144411000Y-41541000D01*
G37*
G36*
X129171000Y-41541000D02*
X127369000Y-41541000D01*
X127369000Y-39739000D01*
X129171000Y-39739000D01*
X129171000Y-41541000D01*
X129171000Y-41541000D01*
G37*
G36*
X130920442Y-39745518D02*
X130986627Y-39752037D01*
X131099853Y-39786384D01*
X131156467Y-39803557D01*
X131295087Y-39877652D01*
X131312991Y-39887222D01*
X131348729Y-39916552D01*
X131450186Y-39999814D01*
X131533448Y-40101271D01*
X131562778Y-40137009D01*
X131562779Y-40137011D01*
X131646443Y-40293533D01*
X131646443Y-40293534D01*
X131697963Y-40463373D01*
X131715359Y-40640000D01*
X131697963Y-40816627D01*
X131663616Y-40929853D01*
X131646443Y-40986467D01*
X131572348Y-41125087D01*
X131562778Y-41142991D01*
X131533448Y-41178729D01*
X131450186Y-41280186D01*
X131348729Y-41363448D01*
X131312991Y-41392778D01*
X131312989Y-41392779D01*
X131156467Y-41476443D01*
X131099853Y-41493616D01*
X130986627Y-41527963D01*
X130920442Y-41534482D01*
X130854260Y-41541000D01*
X130765740Y-41541000D01*
X130699558Y-41534482D01*
X130633373Y-41527963D01*
X130520147Y-41493616D01*
X130463533Y-41476443D01*
X130307011Y-41392779D01*
X130307009Y-41392778D01*
X130271271Y-41363448D01*
X130169814Y-41280186D01*
X130086552Y-41178729D01*
X130057222Y-41142991D01*
X130047652Y-41125087D01*
X129973557Y-40986467D01*
X129956384Y-40929853D01*
X129922037Y-40816627D01*
X129904641Y-40640000D01*
X129922037Y-40463373D01*
X129973557Y-40293534D01*
X129973557Y-40293533D01*
X130057221Y-40137011D01*
X130057222Y-40137009D01*
X130086552Y-40101271D01*
X130169814Y-39999814D01*
X130271271Y-39916552D01*
X130307009Y-39887222D01*
X130324913Y-39877652D01*
X130463533Y-39803557D01*
X130520147Y-39786384D01*
X130633373Y-39752037D01*
X130699558Y-39745518D01*
X130765740Y-39739000D01*
X130854260Y-39739000D01*
X130920442Y-39745518D01*
X130920442Y-39745518D01*
G37*
G36*
X133460442Y-39745518D02*
X133526627Y-39752037D01*
X133639853Y-39786384D01*
X133696467Y-39803557D01*
X133835087Y-39877652D01*
X133852991Y-39887222D01*
X133888729Y-39916552D01*
X133990186Y-39999814D01*
X134073448Y-40101271D01*
X134102778Y-40137009D01*
X134102779Y-40137011D01*
X134186443Y-40293533D01*
X134186443Y-40293534D01*
X134237963Y-40463373D01*
X134255359Y-40640000D01*
X134237963Y-40816627D01*
X134203616Y-40929853D01*
X134186443Y-40986467D01*
X134112348Y-41125087D01*
X134102778Y-41142991D01*
X134073448Y-41178729D01*
X133990186Y-41280186D01*
X133888729Y-41363448D01*
X133852991Y-41392778D01*
X133852989Y-41392779D01*
X133696467Y-41476443D01*
X133639853Y-41493616D01*
X133526627Y-41527963D01*
X133460442Y-41534482D01*
X133394260Y-41541000D01*
X133305740Y-41541000D01*
X133239558Y-41534482D01*
X133173373Y-41527963D01*
X133060147Y-41493616D01*
X133003533Y-41476443D01*
X132847011Y-41392779D01*
X132847009Y-41392778D01*
X132811271Y-41363448D01*
X132709814Y-41280186D01*
X132626552Y-41178729D01*
X132597222Y-41142991D01*
X132587652Y-41125087D01*
X132513557Y-40986467D01*
X132496384Y-40929853D01*
X132462037Y-40816627D01*
X132444641Y-40640000D01*
X132462037Y-40463373D01*
X132513557Y-40293534D01*
X132513557Y-40293533D01*
X132597221Y-40137011D01*
X132597222Y-40137009D01*
X132626552Y-40101271D01*
X132709814Y-39999814D01*
X132811271Y-39916552D01*
X132847009Y-39887222D01*
X132864913Y-39877652D01*
X133003533Y-39803557D01*
X133060147Y-39786384D01*
X133173373Y-39752037D01*
X133239558Y-39745518D01*
X133305740Y-39739000D01*
X133394260Y-39739000D01*
X133460442Y-39745518D01*
X133460442Y-39745518D01*
G37*
G36*
X81546000Y-41541000D02*
X79744000Y-41541000D01*
X79744000Y-39739000D01*
X81546000Y-39739000D01*
X81546000Y-41541000D01*
X81546000Y-41541000D01*
G37*
G36*
X78215442Y-39745518D02*
X78281627Y-39752037D01*
X78394853Y-39786384D01*
X78451467Y-39803557D01*
X78590087Y-39877652D01*
X78607991Y-39887222D01*
X78643729Y-39916552D01*
X78745186Y-39999814D01*
X78828448Y-40101271D01*
X78857778Y-40137009D01*
X78857779Y-40137011D01*
X78941443Y-40293533D01*
X78941443Y-40293534D01*
X78992963Y-40463373D01*
X79010359Y-40640000D01*
X78992963Y-40816627D01*
X78958616Y-40929853D01*
X78941443Y-40986467D01*
X78867348Y-41125087D01*
X78857778Y-41142991D01*
X78828448Y-41178729D01*
X78745186Y-41280186D01*
X78643729Y-41363448D01*
X78607991Y-41392778D01*
X78607989Y-41392779D01*
X78451467Y-41476443D01*
X78394853Y-41493616D01*
X78281627Y-41527963D01*
X78215442Y-41534482D01*
X78149260Y-41541000D01*
X78060740Y-41541000D01*
X77994558Y-41534482D01*
X77928373Y-41527963D01*
X77815147Y-41493616D01*
X77758533Y-41476443D01*
X77602011Y-41392779D01*
X77602009Y-41392778D01*
X77566271Y-41363448D01*
X77464814Y-41280186D01*
X77381552Y-41178729D01*
X77352222Y-41142991D01*
X77342652Y-41125087D01*
X77268557Y-40986467D01*
X77251384Y-40929853D01*
X77217037Y-40816627D01*
X77199641Y-40640000D01*
X77217037Y-40463373D01*
X77268557Y-40293534D01*
X77268557Y-40293533D01*
X77352221Y-40137011D01*
X77352222Y-40137009D01*
X77381552Y-40101271D01*
X77464814Y-39999814D01*
X77566271Y-39916552D01*
X77602009Y-39887222D01*
X77619913Y-39877652D01*
X77758533Y-39803557D01*
X77815147Y-39786384D01*
X77928373Y-39752037D01*
X77994558Y-39745518D01*
X78060740Y-39739000D01*
X78149260Y-39739000D01*
X78215442Y-39745518D01*
X78215442Y-39745518D01*
G37*
M02*
