G04 #@! TF.GenerationSoftware,KiCad,Pcbnew,(5.0.1)-3*
G04 #@! TF.CreationDate,2019-12-19T09:37:45+04:00*
G04 #@! TF.ProjectId,Roboarm,526F626F61726D2E6B696361645F7063,rev?*
G04 #@! TF.SameCoordinates,Original*
G04 #@! TF.FileFunction,Legend,Top*
G04 #@! TF.FilePolarity,Positive*
%FSLAX46Y46*%
G04 Gerber Fmt 4.6, Leading zero omitted, Abs format (unit mm)*
G04 Created by KiCad (PCBNEW (5.0.1)-3) date 19.12.2019 09:37:45*
%MOMM*%
%LPD*%
G01*
G04 APERTURE LIST*
%ADD10C,0.300000*%
%ADD11C,0.400000*%
%ADD12C,0.150000*%
%ADD13C,0.120000*%
%ADD14C,0.075000*%
%ADD15C,0.050000*%
%ADD16C,0.100000*%
%ADD17C,0.070000*%
G04 APERTURE END LIST*
D10*
X176368571Y-128313571D02*
X176368571Y-126813571D01*
X177082857Y-127313571D02*
X177082857Y-128313571D01*
X177082857Y-127456428D02*
X177154285Y-127385000D01*
X177297142Y-127313571D01*
X177511428Y-127313571D01*
X177654285Y-127385000D01*
X177725714Y-127527857D01*
X177725714Y-128313571D01*
X178225714Y-127313571D02*
X178797142Y-127313571D01*
X178440000Y-128313571D02*
X178440000Y-127027857D01*
X178511428Y-126885000D01*
X178654285Y-126813571D01*
X178797142Y-126813571D01*
X179297142Y-128313571D02*
X179297142Y-127313571D01*
X179297142Y-127599285D02*
X179368571Y-127456428D01*
X179440000Y-127385000D01*
X179582857Y-127313571D01*
X179725714Y-127313571D01*
X180868571Y-128313571D02*
X180868571Y-127527857D01*
X180797142Y-127385000D01*
X180654285Y-127313571D01*
X180368571Y-127313571D01*
X180225714Y-127385000D01*
X180868571Y-128242142D02*
X180725714Y-128313571D01*
X180368571Y-128313571D01*
X180225714Y-128242142D01*
X180154285Y-128099285D01*
X180154285Y-127956428D01*
X180225714Y-127813571D01*
X180368571Y-127742142D01*
X180725714Y-127742142D01*
X180868571Y-127670714D01*
X181582857Y-128313571D02*
X181582857Y-127313571D01*
X181582857Y-127599285D02*
X181654285Y-127456428D01*
X181725714Y-127385000D01*
X181868571Y-127313571D01*
X182011428Y-127313571D01*
X183082857Y-128242142D02*
X182940000Y-128313571D01*
X182654285Y-128313571D01*
X182511428Y-128242142D01*
X182440000Y-128099285D01*
X182440000Y-127527857D01*
X182511428Y-127385000D01*
X182654285Y-127313571D01*
X182940000Y-127313571D01*
X183082857Y-127385000D01*
X183154285Y-127527857D01*
X183154285Y-127670714D01*
X182440000Y-127813571D01*
X184440000Y-128313571D02*
X184440000Y-126813571D01*
X184440000Y-128242142D02*
X184297142Y-128313571D01*
X184011428Y-128313571D01*
X183868571Y-128242142D01*
X183797142Y-128170714D01*
X183725714Y-128027857D01*
X183725714Y-127599285D01*
X183797142Y-127456428D01*
X183868571Y-127385000D01*
X184011428Y-127313571D01*
X184297142Y-127313571D01*
X184440000Y-127385000D01*
X186225714Y-128242142D02*
X186440000Y-128313571D01*
X186797142Y-128313571D01*
X186940000Y-128242142D01*
X187011428Y-128170714D01*
X187082857Y-128027857D01*
X187082857Y-127885000D01*
X187011428Y-127742142D01*
X186940000Y-127670714D01*
X186797142Y-127599285D01*
X186511428Y-127527857D01*
X186368571Y-127456428D01*
X186297142Y-127385000D01*
X186225714Y-127242142D01*
X186225714Y-127099285D01*
X186297142Y-126956428D01*
X186368571Y-126885000D01*
X186511428Y-126813571D01*
X186868571Y-126813571D01*
X187082857Y-126885000D01*
X188297142Y-128242142D02*
X188154285Y-128313571D01*
X187868571Y-128313571D01*
X187725714Y-128242142D01*
X187654285Y-128099285D01*
X187654285Y-127527857D01*
X187725714Y-127385000D01*
X187868571Y-127313571D01*
X188154285Y-127313571D01*
X188297142Y-127385000D01*
X188368571Y-127527857D01*
X188368571Y-127670714D01*
X187654285Y-127813571D01*
X189011428Y-127313571D02*
X189011428Y-128313571D01*
X189011428Y-127456428D02*
X189082857Y-127385000D01*
X189225714Y-127313571D01*
X189440000Y-127313571D01*
X189582857Y-127385000D01*
X189654285Y-127527857D01*
X189654285Y-128313571D01*
X190297142Y-128242142D02*
X190440000Y-128313571D01*
X190725714Y-128313571D01*
X190868571Y-128242142D01*
X190940000Y-128099285D01*
X190940000Y-128027857D01*
X190868571Y-127885000D01*
X190725714Y-127813571D01*
X190511428Y-127813571D01*
X190368571Y-127742142D01*
X190297142Y-127599285D01*
X190297142Y-127527857D01*
X190368571Y-127385000D01*
X190511428Y-127313571D01*
X190725714Y-127313571D01*
X190868571Y-127385000D01*
X191582857Y-128313571D02*
X191582857Y-127313571D01*
X191582857Y-126813571D02*
X191511428Y-126885000D01*
X191582857Y-126956428D01*
X191654285Y-126885000D01*
X191582857Y-126813571D01*
X191582857Y-126956428D01*
X192082857Y-127313571D02*
X192654285Y-127313571D01*
X192297142Y-126813571D02*
X192297142Y-128099285D01*
X192368571Y-128242142D01*
X192511428Y-128313571D01*
X192654285Y-128313571D01*
X193154285Y-128313571D02*
X193154285Y-127313571D01*
X193154285Y-126813571D02*
X193082857Y-126885000D01*
X193154285Y-126956428D01*
X193225714Y-126885000D01*
X193154285Y-126813571D01*
X193154285Y-126956428D01*
X193725714Y-127313571D02*
X194082857Y-128313571D01*
X194440000Y-127313571D01*
X195011428Y-128313571D02*
X195011428Y-127313571D01*
X195011428Y-126813571D02*
X194940000Y-126885000D01*
X195011428Y-126956428D01*
X195082857Y-126885000D01*
X195011428Y-126813571D01*
X195011428Y-126956428D01*
X195511428Y-127313571D02*
X196082857Y-127313571D01*
X195725714Y-126813571D02*
X195725714Y-128099285D01*
X195797142Y-128242142D01*
X195940000Y-128313571D01*
X196082857Y-128313571D01*
X196440000Y-127313571D02*
X196797142Y-128313571D01*
X197154285Y-127313571D02*
X196797142Y-128313571D01*
X196654285Y-128670714D01*
X196582857Y-128742142D01*
X196440000Y-128813571D01*
X177598571Y-135933571D02*
X177598571Y-134433571D01*
X178312857Y-134933571D02*
X178312857Y-135933571D01*
X178312857Y-135076428D02*
X178384285Y-135005000D01*
X178527142Y-134933571D01*
X178741428Y-134933571D01*
X178884285Y-135005000D01*
X178955714Y-135147857D01*
X178955714Y-135933571D01*
X179455714Y-134933571D02*
X180027142Y-134933571D01*
X179670000Y-135933571D02*
X179670000Y-134647857D01*
X179741428Y-134505000D01*
X179884285Y-134433571D01*
X180027142Y-134433571D01*
X180527142Y-135933571D02*
X180527142Y-134933571D01*
X180527142Y-135219285D02*
X180598571Y-135076428D01*
X180670000Y-135005000D01*
X180812857Y-134933571D01*
X180955714Y-134933571D01*
X182098571Y-135933571D02*
X182098571Y-135147857D01*
X182027142Y-135005000D01*
X181884285Y-134933571D01*
X181598571Y-134933571D01*
X181455714Y-135005000D01*
X182098571Y-135862142D02*
X181955714Y-135933571D01*
X181598571Y-135933571D01*
X181455714Y-135862142D01*
X181384285Y-135719285D01*
X181384285Y-135576428D01*
X181455714Y-135433571D01*
X181598571Y-135362142D01*
X181955714Y-135362142D01*
X182098571Y-135290714D01*
X182812857Y-135933571D02*
X182812857Y-134933571D01*
X182812857Y-135219285D02*
X182884285Y-135076428D01*
X182955714Y-135005000D01*
X183098571Y-134933571D01*
X183241428Y-134933571D01*
X184312857Y-135862142D02*
X184170000Y-135933571D01*
X183884285Y-135933571D01*
X183741428Y-135862142D01*
X183670000Y-135719285D01*
X183670000Y-135147857D01*
X183741428Y-135005000D01*
X183884285Y-134933571D01*
X184170000Y-134933571D01*
X184312857Y-135005000D01*
X184384285Y-135147857D01*
X184384285Y-135290714D01*
X183670000Y-135433571D01*
X185670000Y-135933571D02*
X185670000Y-134433571D01*
X185670000Y-135862142D02*
X185527142Y-135933571D01*
X185241428Y-135933571D01*
X185098571Y-135862142D01*
X185027142Y-135790714D01*
X184955714Y-135647857D01*
X184955714Y-135219285D01*
X185027142Y-135076428D01*
X185098571Y-135005000D01*
X185241428Y-134933571D01*
X185527142Y-134933571D01*
X185670000Y-135005000D01*
X187741428Y-135933571D02*
X187598571Y-135862142D01*
X187527142Y-135790714D01*
X187455714Y-135647857D01*
X187455714Y-135219285D01*
X187527142Y-135076428D01*
X187598571Y-135005000D01*
X187741428Y-134933571D01*
X187955714Y-134933571D01*
X188098571Y-135005000D01*
X188170000Y-135076428D01*
X188241428Y-135219285D01*
X188241428Y-135647857D01*
X188170000Y-135790714D01*
X188098571Y-135862142D01*
X187955714Y-135933571D01*
X187741428Y-135933571D01*
X188670000Y-134933571D02*
X189241428Y-134933571D01*
X188884285Y-135933571D02*
X188884285Y-134647857D01*
X188955714Y-134505000D01*
X189098571Y-134433571D01*
X189241428Y-134433571D01*
X189527142Y-134933571D02*
X190098571Y-134933571D01*
X189741428Y-135933571D02*
X189741428Y-134647857D01*
X189812857Y-134505000D01*
X189955714Y-134433571D01*
X190098571Y-134433571D01*
X190527142Y-135862142D02*
X190670000Y-135933571D01*
X190955714Y-135933571D01*
X191098571Y-135862142D01*
X191170000Y-135719285D01*
X191170000Y-135647857D01*
X191098571Y-135505000D01*
X190955714Y-135433571D01*
X190741428Y-135433571D01*
X190598571Y-135362142D01*
X190527142Y-135219285D01*
X190527142Y-135147857D01*
X190598571Y-135005000D01*
X190741428Y-134933571D01*
X190955714Y-134933571D01*
X191098571Y-135005000D01*
X192384285Y-135862142D02*
X192241428Y-135933571D01*
X191955714Y-135933571D01*
X191812857Y-135862142D01*
X191741428Y-135719285D01*
X191741428Y-135147857D01*
X191812857Y-135005000D01*
X191955714Y-134933571D01*
X192241428Y-134933571D01*
X192384285Y-135005000D01*
X192455714Y-135147857D01*
X192455714Y-135290714D01*
X191741428Y-135433571D01*
X192884285Y-134933571D02*
X193455714Y-134933571D01*
X193098571Y-134433571D02*
X193098571Y-135719285D01*
X193170000Y-135862142D01*
X193312857Y-135933571D01*
X193455714Y-135933571D01*
X176197857Y-119193571D02*
X176483571Y-119193571D01*
X176626428Y-119265000D01*
X176769285Y-119407857D01*
X176840714Y-119693571D01*
X176840714Y-120193571D01*
X176769285Y-120479285D01*
X176626428Y-120622142D01*
X176483571Y-120693571D01*
X176197857Y-120693571D01*
X176055000Y-120622142D01*
X175912142Y-120479285D01*
X175840714Y-120193571D01*
X175840714Y-119693571D01*
X175912142Y-119407857D01*
X176055000Y-119265000D01*
X176197857Y-119193571D01*
X177483571Y-120693571D02*
X177483571Y-119193571D01*
X178055000Y-119193571D01*
X178197857Y-119265000D01*
X178269285Y-119336428D01*
X178340714Y-119479285D01*
X178340714Y-119693571D01*
X178269285Y-119836428D01*
X178197857Y-119907857D01*
X178055000Y-119979285D01*
X177483571Y-119979285D01*
X178983571Y-120122142D02*
X180126428Y-120122142D01*
X180769285Y-120265000D02*
X181483571Y-120265000D01*
X180626428Y-120693571D02*
X181126428Y-119193571D01*
X181626428Y-120693571D01*
X182126428Y-120693571D02*
X182126428Y-119193571D01*
X182626428Y-120265000D01*
X183126428Y-119193571D01*
X183126428Y-120693571D01*
X183840714Y-120693571D02*
X183840714Y-119193571D01*
X184412142Y-119193571D01*
X184555000Y-119265000D01*
X184626428Y-119336428D01*
X184697857Y-119479285D01*
X184697857Y-119693571D01*
X184626428Y-119836428D01*
X184555000Y-119907857D01*
X184412142Y-119979285D01*
X183840714Y-119979285D01*
X186983571Y-119907857D02*
X186483571Y-119907857D01*
X186483571Y-120693571D02*
X186483571Y-119193571D01*
X187197857Y-119193571D01*
X188340714Y-120622142D02*
X188197857Y-120693571D01*
X187912142Y-120693571D01*
X187769285Y-120622142D01*
X187697857Y-120479285D01*
X187697857Y-119907857D01*
X187769285Y-119765000D01*
X187912142Y-119693571D01*
X188197857Y-119693571D01*
X188340714Y-119765000D01*
X188412142Y-119907857D01*
X188412142Y-120050714D01*
X187697857Y-120193571D01*
X189626428Y-120622142D02*
X189483571Y-120693571D01*
X189197857Y-120693571D01*
X189055000Y-120622142D01*
X188983571Y-120479285D01*
X188983571Y-119907857D01*
X189055000Y-119765000D01*
X189197857Y-119693571D01*
X189483571Y-119693571D01*
X189626428Y-119765000D01*
X189697857Y-119907857D01*
X189697857Y-120050714D01*
X188983571Y-120193571D01*
X190983571Y-120693571D02*
X190983571Y-119193571D01*
X190983571Y-120622142D02*
X190840714Y-120693571D01*
X190555000Y-120693571D01*
X190412142Y-120622142D01*
X190340714Y-120550714D01*
X190269285Y-120407857D01*
X190269285Y-119979285D01*
X190340714Y-119836428D01*
X190412142Y-119765000D01*
X190555000Y-119693571D01*
X190840714Y-119693571D01*
X190983571Y-119765000D01*
X191697857Y-120693571D02*
X191697857Y-119193571D01*
X191697857Y-119765000D02*
X191840714Y-119693571D01*
X192126428Y-119693571D01*
X192269285Y-119765000D01*
X192340714Y-119836428D01*
X192412142Y-119979285D01*
X192412142Y-120407857D01*
X192340714Y-120550714D01*
X192269285Y-120622142D01*
X192126428Y-120693571D01*
X191840714Y-120693571D01*
X191697857Y-120622142D01*
X193697857Y-120693571D02*
X193697857Y-119907857D01*
X193626428Y-119765000D01*
X193483571Y-119693571D01*
X193197857Y-119693571D01*
X193055000Y-119765000D01*
X193697857Y-120622142D02*
X193555000Y-120693571D01*
X193197857Y-120693571D01*
X193055000Y-120622142D01*
X192983571Y-120479285D01*
X192983571Y-120336428D01*
X193055000Y-120193571D01*
X193197857Y-120122142D01*
X193555000Y-120122142D01*
X193697857Y-120050714D01*
X195055000Y-120622142D02*
X194912142Y-120693571D01*
X194626428Y-120693571D01*
X194483571Y-120622142D01*
X194412142Y-120550714D01*
X194340714Y-120407857D01*
X194340714Y-119979285D01*
X194412142Y-119836428D01*
X194483571Y-119765000D01*
X194626428Y-119693571D01*
X194912142Y-119693571D01*
X195055000Y-119765000D01*
X195697857Y-120693571D02*
X195697857Y-119193571D01*
X195840714Y-120122142D02*
X196269285Y-120693571D01*
X196269285Y-119693571D02*
X195697857Y-120265000D01*
D11*
X167476190Y-142204761D02*
X167476190Y-143633333D01*
X167380952Y-143919047D01*
X167190476Y-144109523D01*
X166904761Y-144204761D01*
X166714285Y-144204761D01*
X169190476Y-144109523D02*
X169000000Y-144204761D01*
X168619047Y-144204761D01*
X168428571Y-144109523D01*
X168333333Y-143919047D01*
X168333333Y-143157142D01*
X168428571Y-142966666D01*
X168619047Y-142871428D01*
X169000000Y-142871428D01*
X169190476Y-142966666D01*
X169285714Y-143157142D01*
X169285714Y-143347619D01*
X168333333Y-143538095D01*
X168333333Y-142300000D02*
X169285714Y-142300000D01*
X170142857Y-144204761D02*
X170142857Y-142204761D01*
X170333333Y-143442857D02*
X170904761Y-144204761D01*
X170904761Y-142871428D02*
X170142857Y-143633333D01*
X172619047Y-144204761D02*
X172619047Y-143157142D01*
X172523809Y-142966666D01*
X172333333Y-142871428D01*
X171952380Y-142871428D01*
X171761904Y-142966666D01*
X172619047Y-144109523D02*
X172428571Y-144204761D01*
X171952380Y-144204761D01*
X171761904Y-144109523D01*
X171666666Y-143919047D01*
X171666666Y-143728571D01*
X171761904Y-143538095D01*
X171952380Y-143442857D01*
X172428571Y-143442857D01*
X172619047Y-143347619D01*
X173571428Y-144204761D02*
X173571428Y-142204761D01*
X173571428Y-142966666D02*
X173761904Y-142871428D01*
X174142857Y-142871428D01*
X174333333Y-142966666D01*
X174428571Y-143061904D01*
X174523809Y-143252380D01*
X174523809Y-143823809D01*
X174428571Y-144014285D01*
X174333333Y-144109523D01*
X174142857Y-144204761D01*
X173761904Y-144204761D01*
X173571428Y-144109523D01*
X175285714Y-144109523D02*
X175476190Y-144204761D01*
X175857142Y-144204761D01*
X176047619Y-144109523D01*
X176142857Y-143919047D01*
X176142857Y-143823809D01*
X176047619Y-143633333D01*
X175857142Y-143538095D01*
X175571428Y-143538095D01*
X175380952Y-143442857D01*
X175285714Y-143252380D01*
X175285714Y-143157142D01*
X175380952Y-142966666D01*
X175571428Y-142871428D01*
X175857142Y-142871428D01*
X176047619Y-142966666D01*
X178428571Y-144109523D02*
X178714285Y-144204761D01*
X179190476Y-144204761D01*
X179380952Y-144109523D01*
X179476190Y-144014285D01*
X179571428Y-143823809D01*
X179571428Y-143633333D01*
X179476190Y-143442857D01*
X179380952Y-143347619D01*
X179190476Y-143252380D01*
X178809523Y-143157142D01*
X178619047Y-143061904D01*
X178523809Y-142966666D01*
X178428571Y-142776190D01*
X178428571Y-142585714D01*
X178523809Y-142395238D01*
X178619047Y-142300000D01*
X178809523Y-142204761D01*
X179285714Y-142204761D01*
X179571428Y-142300000D01*
X180142857Y-142871428D02*
X180904761Y-142871428D01*
X180428571Y-142204761D02*
X180428571Y-143919047D01*
X180523809Y-144109523D01*
X180714285Y-144204761D01*
X180904761Y-144204761D01*
X181571428Y-144204761D02*
X181571428Y-142871428D01*
X181571428Y-142204761D02*
X181476190Y-142300000D01*
X181571428Y-142395238D01*
X181666666Y-142300000D01*
X181571428Y-142204761D01*
X181571428Y-142395238D01*
X182523809Y-144204761D02*
X182523809Y-142204761D01*
X182714285Y-143442857D02*
X183285714Y-144204761D01*
X183285714Y-142871428D02*
X182523809Y-143633333D01*
X185000000Y-144204761D02*
X185000000Y-143157142D01*
X184904761Y-142966666D01*
X184714285Y-142871428D01*
X184333333Y-142871428D01*
X184142857Y-142966666D01*
X185000000Y-144109523D02*
X184809523Y-144204761D01*
X184333333Y-144204761D01*
X184142857Y-144109523D01*
X184047619Y-143919047D01*
X184047619Y-143728571D01*
X184142857Y-143538095D01*
X184333333Y-143442857D01*
X184809523Y-143442857D01*
X185000000Y-143347619D01*
X184047619Y-142300000D02*
X185000000Y-142300000D01*
X185952380Y-142871428D02*
X185952380Y-144204761D01*
X185952380Y-143061904D02*
X186047619Y-142966666D01*
X186238095Y-142871428D01*
X186523809Y-142871428D01*
X186714285Y-142966666D01*
X186809523Y-143157142D01*
X186809523Y-144204761D01*
X187666666Y-144109523D02*
X187857142Y-144204761D01*
X188238095Y-144204761D01*
X188428571Y-144109523D01*
X188523809Y-143919047D01*
X188523809Y-143823809D01*
X188428571Y-143633333D01*
X188238095Y-143538095D01*
X187952380Y-143538095D01*
X187761904Y-143442857D01*
X187666666Y-143252380D01*
X187666666Y-143157142D01*
X187761904Y-142966666D01*
X187952380Y-142871428D01*
X188238095Y-142871428D01*
X188428571Y-142966666D01*
X189476190Y-144109523D02*
X189476190Y-144204761D01*
X189380952Y-144395238D01*
X189285714Y-144490476D01*
X191857142Y-143157142D02*
X192523809Y-143157142D01*
X192809523Y-144204761D02*
X191857142Y-144204761D01*
X191857142Y-142204761D01*
X192809523Y-142204761D01*
X193666666Y-144204761D02*
X193666666Y-142204761D01*
X195285714Y-143157142D02*
X195571428Y-143252380D01*
X195666666Y-143347619D01*
X195761904Y-143538095D01*
X195761904Y-143823809D01*
X195666666Y-144014285D01*
X195571428Y-144109523D01*
X195380952Y-144204761D01*
X194619047Y-144204761D01*
X194619047Y-142204761D01*
X195285714Y-142204761D01*
X195476190Y-142300000D01*
X195571428Y-142395238D01*
X195666666Y-142585714D01*
X195666666Y-142776190D01*
X195571428Y-142966666D01*
X195476190Y-143061904D01*
X195285714Y-143157142D01*
X194619047Y-143157142D01*
X198142857Y-144204761D02*
X198142857Y-142204761D01*
X199095238Y-144204761D02*
X199095238Y-142204761D01*
X168523809Y-145604761D02*
X169190476Y-147604761D01*
X169857142Y-145604761D01*
X171285714Y-147509523D02*
X171095238Y-147604761D01*
X170714285Y-147604761D01*
X170523809Y-147509523D01*
X170428571Y-147319047D01*
X170428571Y-146557142D01*
X170523809Y-146366666D01*
X170714285Y-146271428D01*
X171095238Y-146271428D01*
X171285714Y-146366666D01*
X171380952Y-146557142D01*
X171380952Y-146747619D01*
X170428571Y-146938095D01*
X172238095Y-146271428D02*
X172238095Y-147604761D01*
X172238095Y-146461904D02*
X172333333Y-146366666D01*
X172523809Y-146271428D01*
X172809523Y-146271428D01*
X173000000Y-146366666D01*
X173095238Y-146557142D01*
X173095238Y-147604761D01*
X173761904Y-146271428D02*
X174523809Y-146271428D01*
X174047619Y-145604761D02*
X174047619Y-147319047D01*
X174142857Y-147509523D01*
X174333333Y-147604761D01*
X174523809Y-147604761D01*
X175095238Y-147509523D02*
X175285714Y-147604761D01*
X175666666Y-147604761D01*
X175857142Y-147509523D01*
X175952380Y-147319047D01*
X175952380Y-147223809D01*
X175857142Y-147033333D01*
X175666666Y-146938095D01*
X175380952Y-146938095D01*
X175190476Y-146842857D01*
X175095238Y-146652380D01*
X175095238Y-146557142D01*
X175190476Y-146366666D01*
X175380952Y-146271428D01*
X175666666Y-146271428D01*
X175857142Y-146366666D01*
X176809523Y-146271428D02*
X176809523Y-148271428D01*
X176809523Y-146366666D02*
X177000000Y-146271428D01*
X177380952Y-146271428D01*
X177571428Y-146366666D01*
X177666666Y-146461904D01*
X177761904Y-146652380D01*
X177761904Y-147223809D01*
X177666666Y-147414285D01*
X177571428Y-147509523D01*
X177380952Y-147604761D01*
X177000000Y-147604761D01*
X176809523Y-147509523D01*
X178619047Y-147604761D02*
X178619047Y-146271428D01*
X178619047Y-145604761D02*
X178523809Y-145700000D01*
X178619047Y-145795238D01*
X178714285Y-145700000D01*
X178619047Y-145604761D01*
X178619047Y-145795238D01*
X179857142Y-147604761D02*
X179666666Y-147509523D01*
X179571428Y-147319047D01*
X179571428Y-145604761D01*
X180523809Y-147509523D02*
X180714285Y-147604761D01*
X181095238Y-147604761D01*
X181285714Y-147509523D01*
X181380952Y-147319047D01*
X181380952Y-147223809D01*
X181285714Y-147033333D01*
X181095238Y-146938095D01*
X180809523Y-146938095D01*
X180619047Y-146842857D01*
X180523809Y-146652380D01*
X180523809Y-146557142D01*
X180619047Y-146366666D01*
X180809523Y-146271428D01*
X181095238Y-146271428D01*
X181285714Y-146366666D01*
X183666666Y-147033333D02*
X184619047Y-147033333D01*
X183476190Y-147604761D02*
X184142857Y-145604761D01*
X184809523Y-147604761D01*
X186333333Y-146271428D02*
X186333333Y-147604761D01*
X185476190Y-146271428D02*
X185476190Y-147319047D01*
X185571428Y-147509523D01*
X185761904Y-147604761D01*
X186047619Y-147604761D01*
X186238095Y-147509523D01*
X186333333Y-147414285D01*
X188142857Y-146271428D02*
X188142857Y-147890476D01*
X188047619Y-148080952D01*
X187952380Y-148176190D01*
X187761904Y-148271428D01*
X187476190Y-148271428D01*
X187285714Y-148176190D01*
X188142857Y-147509523D02*
X187952380Y-147604761D01*
X187571428Y-147604761D01*
X187380952Y-147509523D01*
X187285714Y-147414285D01*
X187190476Y-147223809D01*
X187190476Y-146652380D01*
X187285714Y-146461904D01*
X187380952Y-146366666D01*
X187571428Y-146271428D01*
X187952380Y-146271428D01*
X188142857Y-146366666D01*
X189000000Y-147509523D02*
X189190476Y-147604761D01*
X189571428Y-147604761D01*
X189761904Y-147509523D01*
X189857142Y-147319047D01*
X189857142Y-147223809D01*
X189761904Y-147033333D01*
X189571428Y-146938095D01*
X189285714Y-146938095D01*
X189095238Y-146842857D01*
X189000000Y-146652380D01*
X189000000Y-146557142D01*
X189095238Y-146366666D01*
X189285714Y-146271428D01*
X189571428Y-146271428D01*
X189761904Y-146366666D01*
X190428571Y-146271428D02*
X191190476Y-146271428D01*
X190714285Y-145604761D02*
X190714285Y-147319047D01*
X190809523Y-147509523D01*
X191000000Y-147604761D01*
X191190476Y-147604761D01*
X191857142Y-147604761D02*
X191857142Y-145604761D01*
X192047619Y-146842857D02*
X192619047Y-147604761D01*
X192619047Y-146271428D02*
X191857142Y-147033333D01*
X193761904Y-147604761D02*
X193571428Y-147509523D01*
X193476190Y-147414285D01*
X193380952Y-147223809D01*
X193380952Y-146652380D01*
X193476190Y-146461904D01*
X193571428Y-146366666D01*
X193761904Y-146271428D01*
X194047619Y-146271428D01*
X194238095Y-146366666D01*
X194333333Y-146461904D01*
X194428571Y-146652380D01*
X194428571Y-147223809D01*
X194333333Y-147414285D01*
X194238095Y-147509523D01*
X194047619Y-147604761D01*
X193761904Y-147604761D01*
X195571428Y-147604761D02*
X195380952Y-147509523D01*
X195285714Y-147319047D01*
X195285714Y-145604761D01*
X197190476Y-147604761D02*
X197190476Y-146557142D01*
X197095238Y-146366666D01*
X196904761Y-146271428D01*
X196523809Y-146271428D01*
X196333333Y-146366666D01*
X197190476Y-147509523D02*
X197000000Y-147604761D01*
X196523809Y-147604761D01*
X196333333Y-147509523D01*
X196238095Y-147319047D01*
X196238095Y-147128571D01*
X196333333Y-146938095D01*
X196523809Y-146842857D01*
X197000000Y-146842857D01*
X197190476Y-146747619D01*
D12*
G04 #@! TO.C,MCU1*
X195560000Y-88870000D02*
X195560000Y-104120000D01*
X195560000Y-88870000D02*
X193060000Y-88870000D01*
X193060000Y-88870000D02*
X193060000Y-104120000D01*
X193060000Y-104120000D02*
X195560000Y-104120000D01*
X193060000Y-86370000D02*
X195560000Y-86370000D01*
X195560000Y-68590000D02*
X193060000Y-68590000D01*
X193060000Y-68590000D02*
X193060000Y-86370000D01*
X195560000Y-68590000D02*
X195560000Y-86370000D01*
X147310000Y-83840000D02*
X144810000Y-83840000D01*
X144810000Y-104120000D02*
X147310000Y-104120000D01*
X147310000Y-83840000D02*
X147310000Y-104120000D01*
X144810000Y-83840000D02*
X144810000Y-104120000D01*
X147300000Y-57026000D02*
X144800000Y-57026000D01*
X147300000Y-57026000D02*
X147310000Y-82370000D01*
X144810000Y-82370000D02*
X147310000Y-82370000D01*
X144800000Y-57026000D02*
X144810000Y-82370000D01*
D13*
G04 #@! TO.C,C4*
X172970000Y-116590000D02*
X173740000Y-115820000D01*
X172970000Y-116590000D02*
X169160000Y-116590000D01*
X172970000Y-112010000D02*
X173740000Y-112780000D01*
X172970000Y-112010000D02*
X169160000Y-112010000D01*
X173740000Y-112780000D02*
X173740000Y-113180000D01*
X169160000Y-112010000D02*
X169160000Y-113180000D01*
X169160000Y-116590000D02*
X169160000Y-115420000D01*
X173740000Y-115820000D02*
X173740000Y-115420000D01*
G04 #@! TO.C,R4*
X159420000Y-143795000D02*
X160620000Y-143795000D01*
X160620000Y-145555000D02*
X159420000Y-145555000D01*
G04 #@! TO.C,J3*
X192980000Y-43755000D02*
X194310000Y-43755000D01*
X192980000Y-45085000D02*
X192980000Y-43755000D01*
X192980000Y-46355000D02*
X195640000Y-46355000D01*
X195640000Y-46355000D02*
X195640000Y-48955000D01*
X192980000Y-46355000D02*
X192980000Y-48955000D01*
X192980000Y-48955000D02*
X195640000Y-48955000D01*
G04 #@! TO.C,SW2*
X110885000Y-39340000D02*
X117385000Y-39340000D01*
X117385000Y-41940000D02*
X110885000Y-41940000D01*
G04 #@! TO.C,SW1*
X100875000Y-41940000D02*
X94375000Y-41940000D01*
X94375000Y-39340000D02*
X100875000Y-39340000D01*
G04 #@! TO.C,R5*
X144390000Y-118145000D02*
X144390000Y-119345000D01*
X142630000Y-119345000D02*
X142630000Y-118145000D01*
G04 #@! TO.C,C3*
X137580000Y-118265000D02*
X137580000Y-119265000D01*
X139280000Y-119265000D02*
X139280000Y-118265000D01*
G04 #@! TO.C,R6*
X140090000Y-119345000D02*
X140090000Y-118145000D01*
X141850000Y-118145000D02*
X141850000Y-119345000D01*
G04 #@! TO.C,RV3*
X172870000Y-127755000D02*
G75*
G03X172870000Y-127755000I-1210000J0D01*
G01*
X169100000Y-125775000D02*
X169100000Y-125195000D01*
X169100000Y-128075000D02*
X169100000Y-127435000D01*
X169100000Y-130315000D02*
X169100000Y-129735000D01*
X174220000Y-126925000D02*
X174220000Y-125195000D01*
X174220000Y-130315000D02*
X174220000Y-128585000D01*
X174220000Y-125195000D02*
X169100000Y-125195000D01*
X174220000Y-130315000D02*
X169100000Y-130315000D01*
D12*
G04 #@! TO.C,L1*
X138150000Y-140020000D02*
X148150000Y-140020000D01*
X138150000Y-129220000D02*
X148150000Y-129220000D01*
D13*
G04 #@! TO.C,D1*
X146600000Y-126745000D02*
X139700000Y-126745000D01*
X146600000Y-123445000D02*
X139700000Y-123445000D01*
X146600000Y-126745000D02*
X146600000Y-123445000D01*
G04 #@! TO.C,RV1*
X171523806Y-118918222D02*
G75*
G02X172375000Y-119245000I21194J-1216778D01*
G01*
X172364958Y-121024364D02*
G75*
G02X170715000Y-121015000I-819958J889364D01*
G01*
X170386390Y-120469851D02*
G75*
G02X170385000Y-119805000I1158610J334851D01*
G01*
X170719782Y-119250062D02*
G75*
G02X171545000Y-118925000I825218J-884938D01*
G01*
X168985000Y-118155000D02*
X168985000Y-117575000D01*
X168985000Y-120455000D02*
X168985000Y-119815000D01*
X168985000Y-122695000D02*
X168985000Y-122115000D01*
X174105000Y-118955000D02*
X174105000Y-117575000D01*
X174105000Y-122695000D02*
X174105000Y-121315000D01*
X174105000Y-117575000D02*
X168985000Y-117575000D01*
X174105000Y-122695000D02*
X168985000Y-122695000D01*
G04 #@! TO.C,C5*
X154690000Y-114550000D02*
X154690000Y-114150000D01*
X150110000Y-115320000D02*
X150110000Y-114150000D01*
X150110000Y-110740000D02*
X150110000Y-111910000D01*
X154690000Y-111510000D02*
X154690000Y-111910000D01*
X153920000Y-110740000D02*
X150110000Y-110740000D01*
X153920000Y-110740000D02*
X154690000Y-111510000D01*
X153920000Y-115320000D02*
X150110000Y-115320000D01*
X153920000Y-115320000D02*
X154690000Y-114550000D01*
G04 #@! TO.C,D2*
X167595000Y-117220000D02*
X160695000Y-117220000D01*
X167595000Y-113920000D02*
X160695000Y-113920000D01*
X167595000Y-117220000D02*
X167595000Y-113920000D01*
G04 #@! TO.C,D3*
X158795000Y-110110000D02*
X158795000Y-113410000D01*
X158795000Y-113410000D02*
X165695000Y-113410000D01*
X158795000Y-110110000D02*
X165695000Y-110110000D01*
G04 #@! TO.C,R1*
X153280000Y-125130000D02*
X153280000Y-126330000D01*
X151520000Y-126330000D02*
X151520000Y-125130000D01*
G04 #@! TO.C,RV2*
X174220000Y-137935000D02*
X169100000Y-137935000D01*
X174220000Y-132815000D02*
X169100000Y-132815000D01*
X174220000Y-137935000D02*
X174220000Y-136205000D01*
X174220000Y-134545000D02*
X174220000Y-132815000D01*
X169100000Y-137935000D02*
X169100000Y-137355000D01*
X169100000Y-135695000D02*
X169100000Y-135055000D01*
X169100000Y-133395000D02*
X169100000Y-132815000D01*
X172870000Y-135375000D02*
G75*
G03X172870000Y-135375000I-1210000J0D01*
G01*
D12*
G04 #@! TO.C,U3*
X150560000Y-120585000D02*
X151810000Y-120585000D01*
X150560000Y-117410000D02*
X147210000Y-117410000D01*
X150560000Y-120760000D02*
X147210000Y-120760000D01*
X150560000Y-117410000D02*
X150560000Y-117660000D01*
X147210000Y-117410000D02*
X147210000Y-117660000D01*
X147210000Y-120760000D02*
X147210000Y-120510000D01*
X150560000Y-120760000D02*
X150560000Y-120585000D01*
D13*
G04 #@! TO.C,MC1*
X135950000Y-143450000D02*
X135950000Y-144780000D01*
X134620000Y-143450000D02*
X135950000Y-143450000D01*
X133350000Y-143450000D02*
X133350000Y-146110000D01*
X133350000Y-146110000D02*
X130750000Y-146110000D01*
X133350000Y-143450000D02*
X130750000Y-143450000D01*
X130750000Y-143450000D02*
X130750000Y-146110000D01*
G04 #@! TO.C,M3*
X76775000Y-135830000D02*
X78105000Y-135830000D01*
X76775000Y-137160000D02*
X76775000Y-135830000D01*
X76775000Y-138430000D02*
X79435000Y-138430000D01*
X79435000Y-138430000D02*
X79435000Y-146110000D01*
X76775000Y-138430000D02*
X76775000Y-146110000D01*
X76775000Y-146110000D02*
X79435000Y-146110000D01*
G04 #@! TO.C,Q9*
X109640000Y-122320000D02*
X115650000Y-122320000D01*
X111890000Y-129140000D02*
X115650000Y-129140000D01*
X115650000Y-122320000D02*
X115650000Y-123580000D01*
X115650000Y-129140000D02*
X115650000Y-127880000D01*
G04 #@! TO.C,Q15*
X102950000Y-129140000D02*
X102950000Y-127880000D01*
X102950000Y-122320000D02*
X102950000Y-123580000D01*
X99190000Y-129140000D02*
X102950000Y-129140000D01*
X96940000Y-122320000D02*
X102950000Y-122320000D01*
G04 #@! TO.C,C1*
X156460000Y-135005000D02*
X156460000Y-135405000D01*
X161040000Y-134235000D02*
X161040000Y-135405000D01*
X161040000Y-138815000D02*
X161040000Y-137645000D01*
X156460000Y-138045000D02*
X156460000Y-137645000D01*
X157230000Y-138815000D02*
X161040000Y-138815000D01*
X157230000Y-138815000D02*
X156460000Y-138045000D01*
X157230000Y-134235000D02*
X161040000Y-134235000D01*
X157230000Y-134235000D02*
X156460000Y-135005000D01*
G04 #@! TO.C,C2*
X157230000Y-141355000D02*
X156460000Y-140585000D01*
X157230000Y-141355000D02*
X157230000Y-145165000D01*
X152650000Y-141355000D02*
X153420000Y-140585000D01*
X152650000Y-141355000D02*
X152650000Y-145165000D01*
X153420000Y-140585000D02*
X153820000Y-140585000D01*
X152650000Y-145165000D02*
X153820000Y-145165000D01*
X157230000Y-145165000D02*
X156060000Y-145165000D01*
X156460000Y-140585000D02*
X156060000Y-140585000D01*
G04 #@! TO.C,J1*
X148650000Y-146110000D02*
X148650000Y-143450000D01*
X146050000Y-146110000D02*
X148650000Y-146110000D01*
X146050000Y-143450000D02*
X148650000Y-143450000D01*
X146050000Y-146110000D02*
X146050000Y-143450000D01*
X144780000Y-146110000D02*
X143450000Y-146110000D01*
X143450000Y-146110000D02*
X143450000Y-144780000D01*
G04 #@! TO.C,J2*
X81975000Y-39310000D02*
X81975000Y-40640000D01*
X80645000Y-39310000D02*
X81975000Y-39310000D01*
X79375000Y-39310000D02*
X79375000Y-41970000D01*
X79375000Y-41970000D02*
X76775000Y-41970000D01*
X79375000Y-39310000D02*
X76775000Y-39310000D01*
X76775000Y-39310000D02*
X76775000Y-41970000D01*
G04 #@! TO.C,J7*
X129600000Y-146110000D02*
X128270000Y-146110000D01*
X129600000Y-144780000D02*
X129600000Y-146110000D01*
X129600000Y-143510000D02*
X126940000Y-143510000D01*
X126940000Y-143510000D02*
X126940000Y-143450000D01*
X129600000Y-143510000D02*
X129600000Y-143450000D01*
X129600000Y-143450000D02*
X126940000Y-143450000D01*
G04 #@! TO.C,M4*
X79435000Y-54670000D02*
X78105000Y-54670000D01*
X79435000Y-53340000D02*
X79435000Y-54670000D01*
X79435000Y-52070000D02*
X76775000Y-52070000D01*
X76775000Y-52070000D02*
X76775000Y-46930000D01*
X79435000Y-52070000D02*
X79435000Y-46930000D01*
X79435000Y-46930000D02*
X76775000Y-46930000D01*
G04 #@! TO.C,M2*
X76775000Y-95190000D02*
X78105000Y-95190000D01*
X76775000Y-96520000D02*
X76775000Y-95190000D01*
X76775000Y-97790000D02*
X79435000Y-97790000D01*
X79435000Y-97790000D02*
X79435000Y-115630000D01*
X76775000Y-97790000D02*
X76775000Y-115630000D01*
X76775000Y-115630000D02*
X79435000Y-115630000D01*
G04 #@! TO.C,M1*
X76775000Y-79435000D02*
X79435000Y-79435000D01*
X76775000Y-71755000D02*
X76775000Y-79435000D01*
X79435000Y-71755000D02*
X79435000Y-79435000D01*
X76775000Y-71755000D02*
X79435000Y-71755000D01*
X76775000Y-70485000D02*
X76775000Y-69155000D01*
X76775000Y-69155000D02*
X78105000Y-69155000D01*
G04 #@! TO.C,Q1*
X115650000Y-62465000D02*
X115650000Y-61205000D01*
X115650000Y-55645000D02*
X115650000Y-56905000D01*
X111890000Y-62465000D02*
X115650000Y-62465000D01*
X109640000Y-55645000D02*
X115650000Y-55645000D01*
G04 #@! TO.C,Q2*
X113375000Y-64535000D02*
X119385000Y-64535000D01*
X115625000Y-71355000D02*
X119385000Y-71355000D01*
X119385000Y-64535000D02*
X119385000Y-65795000D01*
X119385000Y-71355000D02*
X119385000Y-70095000D01*
G04 #@! TO.C,Q3*
X128885000Y-62365000D02*
X128885000Y-61105000D01*
X128885000Y-55545000D02*
X128885000Y-56805000D01*
X125125000Y-62365000D02*
X128885000Y-62365000D01*
X122875000Y-55545000D02*
X128885000Y-55545000D01*
G04 #@! TO.C,Q4*
X132720000Y-71355000D02*
X132720000Y-70095000D01*
X132720000Y-64535000D02*
X132720000Y-65795000D01*
X128960000Y-71355000D02*
X132720000Y-71355000D01*
X126710000Y-64535000D02*
X132720000Y-64535000D01*
G04 #@! TO.C,Q5*
X84875000Y-55645000D02*
X90885000Y-55645000D01*
X87125000Y-62465000D02*
X90885000Y-62465000D01*
X90885000Y-55645000D02*
X90885000Y-56905000D01*
X90885000Y-62465000D02*
X90885000Y-61205000D01*
G04 #@! TO.C,Q6*
X93350000Y-71355000D02*
X93350000Y-70095000D01*
X93350000Y-64535000D02*
X93350000Y-65795000D01*
X89590000Y-71355000D02*
X93350000Y-71355000D01*
X87340000Y-64535000D02*
X93350000Y-64535000D01*
G04 #@! TO.C,Q7*
X96940000Y-55645000D02*
X102950000Y-55645000D01*
X99190000Y-62465000D02*
X102950000Y-62465000D01*
X102950000Y-55645000D02*
X102950000Y-56905000D01*
X102950000Y-62465000D02*
X102950000Y-61205000D01*
G04 #@! TO.C,Q8*
X100040000Y-64535000D02*
X106050000Y-64535000D01*
X102290000Y-71355000D02*
X106050000Y-71355000D01*
X106050000Y-64535000D02*
X106050000Y-65795000D01*
X106050000Y-71355000D02*
X106050000Y-70095000D01*
G04 #@! TO.C,Q10*
X113375000Y-131210000D02*
X119385000Y-131210000D01*
X115625000Y-138030000D02*
X119385000Y-138030000D01*
X119385000Y-131210000D02*
X119385000Y-132470000D01*
X119385000Y-138030000D02*
X119385000Y-136770000D01*
G04 #@! TO.C,Q11*
X128885000Y-129040000D02*
X128885000Y-127780000D01*
X128885000Y-122220000D02*
X128885000Y-123480000D01*
X125125000Y-129040000D02*
X128885000Y-129040000D01*
X122875000Y-122220000D02*
X128885000Y-122220000D01*
G04 #@! TO.C,Q12*
X132695000Y-138005000D02*
X132695000Y-136745000D01*
X132695000Y-131185000D02*
X132695000Y-132445000D01*
X128935000Y-138005000D02*
X132695000Y-138005000D01*
X126685000Y-131185000D02*
X132695000Y-131185000D01*
G04 #@! TO.C,Q13*
X84875000Y-122320000D02*
X90885000Y-122320000D01*
X87125000Y-129140000D02*
X90885000Y-129140000D01*
X90885000Y-122320000D02*
X90885000Y-123580000D01*
X90885000Y-129140000D02*
X90885000Y-127880000D01*
G04 #@! TO.C,Q14*
X87340000Y-131210000D02*
X93350000Y-131210000D01*
X89590000Y-138030000D02*
X93350000Y-138030000D01*
X93350000Y-131210000D02*
X93350000Y-132470000D01*
X93350000Y-138030000D02*
X93350000Y-136770000D01*
G04 #@! TO.C,Q16*
X106050000Y-138030000D02*
X106050000Y-136770000D01*
X106050000Y-131210000D02*
X106050000Y-132470000D01*
X102290000Y-138030000D02*
X106050000Y-138030000D01*
X100040000Y-131210000D02*
X106050000Y-131210000D01*
G04 #@! TO.C,Q17*
X109640000Y-86760000D02*
X115650000Y-86760000D01*
X111890000Y-93580000D02*
X115650000Y-93580000D01*
X115650000Y-86760000D02*
X115650000Y-88020000D01*
X115650000Y-93580000D02*
X115650000Y-92320000D01*
G04 #@! TO.C,Q18*
X113375000Y-95650000D02*
X119385000Y-95650000D01*
X115625000Y-102470000D02*
X119385000Y-102470000D01*
X119385000Y-95650000D02*
X119385000Y-96910000D01*
X119385000Y-102470000D02*
X119385000Y-101210000D01*
G04 #@! TO.C,Q19*
X128985000Y-93580000D02*
X128985000Y-92320000D01*
X128985000Y-86760000D02*
X128985000Y-88020000D01*
X125225000Y-93580000D02*
X128985000Y-93580000D01*
X122975000Y-86760000D02*
X128985000Y-86760000D01*
G04 #@! TO.C,Q20*
X132720000Y-102470000D02*
X132720000Y-101210000D01*
X132720000Y-95650000D02*
X132720000Y-96910000D01*
X128960000Y-102470000D02*
X132720000Y-102470000D01*
X126710000Y-95650000D02*
X132720000Y-95650000D01*
G04 #@! TO.C,Q21*
X84875000Y-86760000D02*
X90885000Y-86760000D01*
X87125000Y-93580000D02*
X90885000Y-93580000D01*
X90885000Y-86760000D02*
X90885000Y-88020000D01*
X90885000Y-93580000D02*
X90885000Y-92320000D01*
G04 #@! TO.C,Q22*
X87340000Y-95650000D02*
X93350000Y-95650000D01*
X89590000Y-102470000D02*
X93350000Y-102470000D01*
X93350000Y-95650000D02*
X93350000Y-96910000D01*
X93350000Y-102470000D02*
X93350000Y-101210000D01*
G04 #@! TO.C,Q23*
X102950000Y-93580000D02*
X102950000Y-92320000D01*
X102950000Y-86760000D02*
X102950000Y-88020000D01*
X99190000Y-93580000D02*
X102950000Y-93580000D01*
X96940000Y-86760000D02*
X102950000Y-86760000D01*
G04 #@! TO.C,Q24*
X106050000Y-102470000D02*
X106050000Y-101210000D01*
X106050000Y-95650000D02*
X106050000Y-96910000D01*
X102290000Y-102470000D02*
X106050000Y-102470000D01*
X100040000Y-95650000D02*
X106050000Y-95650000D01*
G04 #@! TO.C,Q25*
X147645000Y-125855000D02*
X147645000Y-124395000D01*
X150805000Y-125855000D02*
X150805000Y-123695000D01*
X150805000Y-125855000D02*
X149875000Y-125855000D01*
X147645000Y-125855000D02*
X148575000Y-125855000D01*
G04 #@! TO.C,R2*
X150250000Y-132680000D02*
X150250000Y-131480000D01*
X152010000Y-131480000D02*
X152010000Y-132680000D01*
G04 #@! TO.C,R3*
X150250000Y-138395000D02*
X150250000Y-137195000D01*
X152010000Y-137195000D02*
X152010000Y-138395000D01*
G04 #@! TO.C,LS1*
X137100000Y-143450000D02*
X137100000Y-146110000D01*
X139700000Y-143450000D02*
X137100000Y-143450000D01*
X139700000Y-146110000D02*
X137100000Y-146110000D01*
X139700000Y-143450000D02*
X139700000Y-146110000D01*
X140970000Y-143450000D02*
X142300000Y-143450000D01*
X142300000Y-143450000D02*
X142300000Y-144780000D01*
G04 #@! TO.C,SW3*
X126940000Y-41970000D02*
X126940000Y-40640000D01*
X128270000Y-41970000D02*
X126940000Y-41970000D01*
X129540000Y-41970000D02*
X129540000Y-39310000D01*
X129540000Y-39310000D02*
X134680000Y-39310000D01*
X129540000Y-41970000D02*
X134680000Y-41970000D01*
X134680000Y-41970000D02*
X134680000Y-39310000D01*
G04 #@! TO.C,SW4*
X149920000Y-41970000D02*
X149920000Y-39310000D01*
X144780000Y-41970000D02*
X149920000Y-41970000D01*
X144780000Y-39310000D02*
X149920000Y-39310000D01*
X144780000Y-41970000D02*
X144780000Y-39310000D01*
X143510000Y-41970000D02*
X142180000Y-41970000D01*
X142180000Y-41970000D02*
X142180000Y-40640000D01*
G04 #@! TO.C,MCU1*
D12*
X189801666Y-69302380D02*
X190135000Y-70302380D01*
X190468333Y-69302380D01*
X191373095Y-70207142D02*
X191325476Y-70254761D01*
X191182619Y-70302380D01*
X191087380Y-70302380D01*
X190944523Y-70254761D01*
X190849285Y-70159523D01*
X190801666Y-70064285D01*
X190754047Y-69873809D01*
X190754047Y-69730952D01*
X190801666Y-69540476D01*
X190849285Y-69445238D01*
X190944523Y-69350000D01*
X191087380Y-69302380D01*
X191182619Y-69302380D01*
X191325476Y-69350000D01*
X191373095Y-69397619D01*
X192373095Y-70207142D02*
X192325476Y-70254761D01*
X192182619Y-70302380D01*
X192087380Y-70302380D01*
X191944523Y-70254761D01*
X191849285Y-70159523D01*
X191801666Y-70064285D01*
X191754047Y-69873809D01*
X191754047Y-69730952D01*
X191801666Y-69540476D01*
X191849285Y-69445238D01*
X191944523Y-69350000D01*
X192087380Y-69302380D01*
X192182619Y-69302380D01*
X192325476Y-69350000D01*
X192373095Y-69397619D01*
X189896904Y-74382380D02*
X190515952Y-74382380D01*
X190182619Y-74763333D01*
X190325476Y-74763333D01*
X190420714Y-74810952D01*
X190468333Y-74858571D01*
X190515952Y-74953809D01*
X190515952Y-75191904D01*
X190468333Y-75287142D01*
X190420714Y-75334761D01*
X190325476Y-75382380D01*
X190039761Y-75382380D01*
X189944523Y-75334761D01*
X189896904Y-75287142D01*
X190801666Y-74382380D02*
X191135000Y-75382380D01*
X191468333Y-74382380D01*
X191706428Y-74382380D02*
X192325476Y-74382380D01*
X191992142Y-74763333D01*
X192135000Y-74763333D01*
X192230238Y-74810952D01*
X192277857Y-74858571D01*
X192325476Y-74953809D01*
X192325476Y-75191904D01*
X192277857Y-75287142D01*
X192230238Y-75334761D01*
X192135000Y-75382380D01*
X191849285Y-75382380D01*
X191754047Y-75334761D01*
X191706428Y-75287142D01*
X190587380Y-72842380D02*
X190254047Y-72366190D01*
X190015952Y-72842380D02*
X190015952Y-71842380D01*
X190396904Y-71842380D01*
X190492142Y-71890000D01*
X190539761Y-71937619D01*
X190587380Y-72032857D01*
X190587380Y-72175714D01*
X190539761Y-72270952D01*
X190492142Y-72318571D01*
X190396904Y-72366190D01*
X190015952Y-72366190D01*
X190968333Y-72794761D02*
X191111190Y-72842380D01*
X191349285Y-72842380D01*
X191444523Y-72794761D01*
X191492142Y-72747142D01*
X191539761Y-72651904D01*
X191539761Y-72556666D01*
X191492142Y-72461428D01*
X191444523Y-72413809D01*
X191349285Y-72366190D01*
X191158809Y-72318571D01*
X191063571Y-72270952D01*
X191015952Y-72223333D01*
X190968333Y-72128095D01*
X190968333Y-72032857D01*
X191015952Y-71937619D01*
X191063571Y-71890000D01*
X191158809Y-71842380D01*
X191396904Y-71842380D01*
X191539761Y-71890000D01*
X191825476Y-71842380D02*
X192396904Y-71842380D01*
X192111190Y-72842380D02*
X192111190Y-71842380D01*
X190373095Y-79510000D02*
X190277857Y-79462380D01*
X190135000Y-79462380D01*
X189992142Y-79510000D01*
X189896904Y-79605238D01*
X189849285Y-79700476D01*
X189801666Y-79890952D01*
X189801666Y-80033809D01*
X189849285Y-80224285D01*
X189896904Y-80319523D01*
X189992142Y-80414761D01*
X190135000Y-80462380D01*
X190230238Y-80462380D01*
X190373095Y-80414761D01*
X190420714Y-80367142D01*
X190420714Y-80033809D01*
X190230238Y-80033809D01*
X190849285Y-80462380D02*
X190849285Y-79462380D01*
X191420714Y-80462380D01*
X191420714Y-79462380D01*
X191896904Y-80462380D02*
X191896904Y-79462380D01*
X192135000Y-79462380D01*
X192277857Y-79510000D01*
X192373095Y-79605238D01*
X192420714Y-79700476D01*
X192468333Y-79890952D01*
X192468333Y-80033809D01*
X192420714Y-80224285D01*
X192373095Y-80319523D01*
X192277857Y-80414761D01*
X192135000Y-80462380D01*
X191896904Y-80462380D01*
X190944523Y-76922380D02*
X190468333Y-76922380D01*
X190420714Y-77398571D01*
X190468333Y-77350952D01*
X190563571Y-77303333D01*
X190801666Y-77303333D01*
X190896904Y-77350952D01*
X190944523Y-77398571D01*
X190992142Y-77493809D01*
X190992142Y-77731904D01*
X190944523Y-77827142D01*
X190896904Y-77874761D01*
X190801666Y-77922380D01*
X190563571Y-77922380D01*
X190468333Y-77874761D01*
X190420714Y-77827142D01*
X191277857Y-76922380D02*
X191611190Y-77922380D01*
X191944523Y-76922380D01*
X190373095Y-82050000D02*
X190277857Y-82002380D01*
X190135000Y-82002380D01*
X189992142Y-82050000D01*
X189896904Y-82145238D01*
X189849285Y-82240476D01*
X189801666Y-82430952D01*
X189801666Y-82573809D01*
X189849285Y-82764285D01*
X189896904Y-82859523D01*
X189992142Y-82954761D01*
X190135000Y-83002380D01*
X190230238Y-83002380D01*
X190373095Y-82954761D01*
X190420714Y-82907142D01*
X190420714Y-82573809D01*
X190230238Y-82573809D01*
X190849285Y-83002380D02*
X190849285Y-82002380D01*
X191420714Y-83002380D01*
X191420714Y-82002380D01*
X191896904Y-83002380D02*
X191896904Y-82002380D01*
X192135000Y-82002380D01*
X192277857Y-82050000D01*
X192373095Y-82145238D01*
X192420714Y-82240476D01*
X192468333Y-82430952D01*
X192468333Y-82573809D01*
X192420714Y-82764285D01*
X192373095Y-82859523D01*
X192277857Y-82954761D01*
X192135000Y-83002380D01*
X191896904Y-83002380D01*
X190039761Y-84542380D02*
X190373095Y-85542380D01*
X190706428Y-84542380D01*
X191039761Y-85542380D02*
X191039761Y-84542380D01*
X191515952Y-85542380D02*
X191515952Y-84542380D01*
X192087380Y-85542380D01*
X192087380Y-84542380D01*
X189896904Y-93162380D02*
X189896904Y-92162380D01*
X190277857Y-92162380D01*
X190373095Y-92210000D01*
X190420714Y-92257619D01*
X190468333Y-92352857D01*
X190468333Y-92495714D01*
X190420714Y-92590952D01*
X190373095Y-92638571D01*
X190277857Y-92686190D01*
X189896904Y-92686190D01*
X191468333Y-93067142D02*
X191420714Y-93114761D01*
X191277857Y-93162380D01*
X191182619Y-93162380D01*
X191039761Y-93114761D01*
X190944523Y-93019523D01*
X190896904Y-92924285D01*
X190849285Y-92733809D01*
X190849285Y-92590952D01*
X190896904Y-92400476D01*
X190944523Y-92305238D01*
X191039761Y-92210000D01*
X191182619Y-92162380D01*
X191277857Y-92162380D01*
X191420714Y-92210000D01*
X191468333Y-92257619D01*
X192420714Y-93162380D02*
X191849285Y-93162380D01*
X192135000Y-93162380D02*
X192135000Y-92162380D01*
X192039761Y-92305238D01*
X191944523Y-92400476D01*
X191849285Y-92448095D01*
X189896904Y-90622380D02*
X189896904Y-89622380D01*
X190277857Y-89622380D01*
X190373095Y-89670000D01*
X190420714Y-89717619D01*
X190468333Y-89812857D01*
X190468333Y-89955714D01*
X190420714Y-90050952D01*
X190373095Y-90098571D01*
X190277857Y-90146190D01*
X189896904Y-90146190D01*
X191468333Y-90527142D02*
X191420714Y-90574761D01*
X191277857Y-90622380D01*
X191182619Y-90622380D01*
X191039761Y-90574761D01*
X190944523Y-90479523D01*
X190896904Y-90384285D01*
X190849285Y-90193809D01*
X190849285Y-90050952D01*
X190896904Y-89860476D01*
X190944523Y-89765238D01*
X191039761Y-89670000D01*
X191182619Y-89622380D01*
X191277857Y-89622380D01*
X191420714Y-89670000D01*
X191468333Y-89717619D01*
X192087380Y-89622380D02*
X192182619Y-89622380D01*
X192277857Y-89670000D01*
X192325476Y-89717619D01*
X192373095Y-89812857D01*
X192420714Y-90003333D01*
X192420714Y-90241428D01*
X192373095Y-90431904D01*
X192325476Y-90527142D01*
X192277857Y-90574761D01*
X192182619Y-90622380D01*
X192087380Y-90622380D01*
X191992142Y-90574761D01*
X191944523Y-90527142D01*
X191896904Y-90431904D01*
X191849285Y-90241428D01*
X191849285Y-90003333D01*
X191896904Y-89812857D01*
X191944523Y-89717619D01*
X191992142Y-89670000D01*
X192087380Y-89622380D01*
X189896904Y-95702380D02*
X189896904Y-94702380D01*
X190277857Y-94702380D01*
X190373095Y-94750000D01*
X190420714Y-94797619D01*
X190468333Y-94892857D01*
X190468333Y-95035714D01*
X190420714Y-95130952D01*
X190373095Y-95178571D01*
X190277857Y-95226190D01*
X189896904Y-95226190D01*
X191468333Y-95607142D02*
X191420714Y-95654761D01*
X191277857Y-95702380D01*
X191182619Y-95702380D01*
X191039761Y-95654761D01*
X190944523Y-95559523D01*
X190896904Y-95464285D01*
X190849285Y-95273809D01*
X190849285Y-95130952D01*
X190896904Y-94940476D01*
X190944523Y-94845238D01*
X191039761Y-94750000D01*
X191182619Y-94702380D01*
X191277857Y-94702380D01*
X191420714Y-94750000D01*
X191468333Y-94797619D01*
X191849285Y-94797619D02*
X191896904Y-94750000D01*
X191992142Y-94702380D01*
X192230238Y-94702380D01*
X192325476Y-94750000D01*
X192373095Y-94797619D01*
X192420714Y-94892857D01*
X192420714Y-94988095D01*
X192373095Y-95130952D01*
X191801666Y-95702380D01*
X192420714Y-95702380D01*
X189896904Y-98242380D02*
X189896904Y-97242380D01*
X190277857Y-97242380D01*
X190373095Y-97290000D01*
X190420714Y-97337619D01*
X190468333Y-97432857D01*
X190468333Y-97575714D01*
X190420714Y-97670952D01*
X190373095Y-97718571D01*
X190277857Y-97766190D01*
X189896904Y-97766190D01*
X191468333Y-98147142D02*
X191420714Y-98194761D01*
X191277857Y-98242380D01*
X191182619Y-98242380D01*
X191039761Y-98194761D01*
X190944523Y-98099523D01*
X190896904Y-98004285D01*
X190849285Y-97813809D01*
X190849285Y-97670952D01*
X190896904Y-97480476D01*
X190944523Y-97385238D01*
X191039761Y-97290000D01*
X191182619Y-97242380D01*
X191277857Y-97242380D01*
X191420714Y-97290000D01*
X191468333Y-97337619D01*
X191801666Y-97242380D02*
X192420714Y-97242380D01*
X192087380Y-97623333D01*
X192230238Y-97623333D01*
X192325476Y-97670952D01*
X192373095Y-97718571D01*
X192420714Y-97813809D01*
X192420714Y-98051904D01*
X192373095Y-98147142D01*
X192325476Y-98194761D01*
X192230238Y-98242380D01*
X191944523Y-98242380D01*
X191849285Y-98194761D01*
X191801666Y-98147142D01*
X189896904Y-100782380D02*
X189896904Y-99782380D01*
X190277857Y-99782380D01*
X190373095Y-99830000D01*
X190420714Y-99877619D01*
X190468333Y-99972857D01*
X190468333Y-100115714D01*
X190420714Y-100210952D01*
X190373095Y-100258571D01*
X190277857Y-100306190D01*
X189896904Y-100306190D01*
X191468333Y-100687142D02*
X191420714Y-100734761D01*
X191277857Y-100782380D01*
X191182619Y-100782380D01*
X191039761Y-100734761D01*
X190944523Y-100639523D01*
X190896904Y-100544285D01*
X190849285Y-100353809D01*
X190849285Y-100210952D01*
X190896904Y-100020476D01*
X190944523Y-99925238D01*
X191039761Y-99830000D01*
X191182619Y-99782380D01*
X191277857Y-99782380D01*
X191420714Y-99830000D01*
X191468333Y-99877619D01*
X192325476Y-100115714D02*
X192325476Y-100782380D01*
X192087380Y-99734761D02*
X191849285Y-100449047D01*
X192468333Y-100449047D01*
X189896904Y-103322380D02*
X189896904Y-102322380D01*
X190277857Y-102322380D01*
X190373095Y-102370000D01*
X190420714Y-102417619D01*
X190468333Y-102512857D01*
X190468333Y-102655714D01*
X190420714Y-102750952D01*
X190373095Y-102798571D01*
X190277857Y-102846190D01*
X189896904Y-102846190D01*
X191468333Y-103227142D02*
X191420714Y-103274761D01*
X191277857Y-103322380D01*
X191182619Y-103322380D01*
X191039761Y-103274761D01*
X190944523Y-103179523D01*
X190896904Y-103084285D01*
X190849285Y-102893809D01*
X190849285Y-102750952D01*
X190896904Y-102560476D01*
X190944523Y-102465238D01*
X191039761Y-102370000D01*
X191182619Y-102322380D01*
X191277857Y-102322380D01*
X191420714Y-102370000D01*
X191468333Y-102417619D01*
X192373095Y-102322380D02*
X191896904Y-102322380D01*
X191849285Y-102798571D01*
X191896904Y-102750952D01*
X191992142Y-102703333D01*
X192230238Y-102703333D01*
X192325476Y-102750952D01*
X192373095Y-102798571D01*
X192420714Y-102893809D01*
X192420714Y-103131904D01*
X192373095Y-103227142D01*
X192325476Y-103274761D01*
X192230238Y-103322380D01*
X191992142Y-103322380D01*
X191896904Y-103274761D01*
X191849285Y-103227142D01*
X147986904Y-58618380D02*
X147986904Y-57618380D01*
X148367857Y-57618380D01*
X148463095Y-57666000D01*
X148510714Y-57713619D01*
X148558333Y-57808857D01*
X148558333Y-57951714D01*
X148510714Y-58046952D01*
X148463095Y-58094571D01*
X148367857Y-58142190D01*
X147986904Y-58142190D01*
X149558333Y-58523142D02*
X149510714Y-58570761D01*
X149367857Y-58618380D01*
X149272619Y-58618380D01*
X149129761Y-58570761D01*
X149034523Y-58475523D01*
X148986904Y-58380285D01*
X148939285Y-58189809D01*
X148939285Y-58046952D01*
X148986904Y-57856476D01*
X149034523Y-57761238D01*
X149129761Y-57666000D01*
X149272619Y-57618380D01*
X149367857Y-57618380D01*
X149510714Y-57666000D01*
X149558333Y-57713619D01*
X150463095Y-57618380D02*
X149986904Y-57618380D01*
X149939285Y-58094571D01*
X149986904Y-58046952D01*
X150082142Y-57999333D01*
X150320238Y-57999333D01*
X150415476Y-58046952D01*
X150463095Y-58094571D01*
X150510714Y-58189809D01*
X150510714Y-58427904D01*
X150463095Y-58523142D01*
X150415476Y-58570761D01*
X150320238Y-58618380D01*
X150082142Y-58618380D01*
X149986904Y-58570761D01*
X149939285Y-58523142D01*
X147986904Y-61158380D02*
X147986904Y-60158380D01*
X148367857Y-60158380D01*
X148463095Y-60206000D01*
X148510714Y-60253619D01*
X148558333Y-60348857D01*
X148558333Y-60491714D01*
X148510714Y-60586952D01*
X148463095Y-60634571D01*
X148367857Y-60682190D01*
X147986904Y-60682190D01*
X149558333Y-61063142D02*
X149510714Y-61110761D01*
X149367857Y-61158380D01*
X149272619Y-61158380D01*
X149129761Y-61110761D01*
X149034523Y-61015523D01*
X148986904Y-60920285D01*
X148939285Y-60729809D01*
X148939285Y-60586952D01*
X148986904Y-60396476D01*
X149034523Y-60301238D01*
X149129761Y-60206000D01*
X149272619Y-60158380D01*
X149367857Y-60158380D01*
X149510714Y-60206000D01*
X149558333Y-60253619D01*
X150415476Y-60491714D02*
X150415476Y-61158380D01*
X150177380Y-60110761D02*
X149939285Y-60825047D01*
X150558333Y-60825047D01*
X148463095Y-65286000D02*
X148367857Y-65238380D01*
X148225000Y-65238380D01*
X148082142Y-65286000D01*
X147986904Y-65381238D01*
X147939285Y-65476476D01*
X147891666Y-65666952D01*
X147891666Y-65809809D01*
X147939285Y-66000285D01*
X147986904Y-66095523D01*
X148082142Y-66190761D01*
X148225000Y-66238380D01*
X148320238Y-66238380D01*
X148463095Y-66190761D01*
X148510714Y-66143142D01*
X148510714Y-65809809D01*
X148320238Y-65809809D01*
X148939285Y-66238380D02*
X148939285Y-65238380D01*
X149510714Y-66238380D01*
X149510714Y-65238380D01*
X149986904Y-66238380D02*
X149986904Y-65238380D01*
X150225000Y-65238380D01*
X150367857Y-65286000D01*
X150463095Y-65381238D01*
X150510714Y-65476476D01*
X150558333Y-65666952D01*
X150558333Y-65809809D01*
X150510714Y-66000285D01*
X150463095Y-66095523D01*
X150367857Y-66190761D01*
X150225000Y-66238380D01*
X149986904Y-66238380D01*
X147986904Y-71318380D02*
X147986904Y-70318380D01*
X148367857Y-70318380D01*
X148463095Y-70366000D01*
X148510714Y-70413619D01*
X148558333Y-70508857D01*
X148558333Y-70651714D01*
X148510714Y-70746952D01*
X148463095Y-70794571D01*
X148367857Y-70842190D01*
X147986904Y-70842190D01*
X149320238Y-70794571D02*
X149463095Y-70842190D01*
X149510714Y-70889809D01*
X149558333Y-70985047D01*
X149558333Y-71127904D01*
X149510714Y-71223142D01*
X149463095Y-71270761D01*
X149367857Y-71318380D01*
X148986904Y-71318380D01*
X148986904Y-70318380D01*
X149320238Y-70318380D01*
X149415476Y-70366000D01*
X149463095Y-70413619D01*
X149510714Y-70508857D01*
X149510714Y-70604095D01*
X149463095Y-70699333D01*
X149415476Y-70746952D01*
X149320238Y-70794571D01*
X148986904Y-70794571D01*
X150415476Y-70651714D02*
X150415476Y-71318380D01*
X150177380Y-70270761D02*
X149939285Y-70985047D01*
X150558333Y-70985047D01*
X147986904Y-73858380D02*
X147986904Y-72858380D01*
X148367857Y-72858380D01*
X148463095Y-72906000D01*
X148510714Y-72953619D01*
X148558333Y-73048857D01*
X148558333Y-73191714D01*
X148510714Y-73286952D01*
X148463095Y-73334571D01*
X148367857Y-73382190D01*
X147986904Y-73382190D01*
X149320238Y-73334571D02*
X149463095Y-73382190D01*
X149510714Y-73429809D01*
X149558333Y-73525047D01*
X149558333Y-73667904D01*
X149510714Y-73763142D01*
X149463095Y-73810761D01*
X149367857Y-73858380D01*
X148986904Y-73858380D01*
X148986904Y-72858380D01*
X149320238Y-72858380D01*
X149415476Y-72906000D01*
X149463095Y-72953619D01*
X149510714Y-73048857D01*
X149510714Y-73144095D01*
X149463095Y-73239333D01*
X149415476Y-73286952D01*
X149320238Y-73334571D01*
X148986904Y-73334571D01*
X149891666Y-72858380D02*
X150510714Y-72858380D01*
X150177380Y-73239333D01*
X150320238Y-73239333D01*
X150415476Y-73286952D01*
X150463095Y-73334571D01*
X150510714Y-73429809D01*
X150510714Y-73667904D01*
X150463095Y-73763142D01*
X150415476Y-73810761D01*
X150320238Y-73858380D01*
X150034523Y-73858380D01*
X149939285Y-73810761D01*
X149891666Y-73763142D01*
X147605952Y-63412666D02*
X148082142Y-63412666D01*
X147510714Y-63698380D02*
X147844047Y-62698380D01*
X148177380Y-63698380D01*
X149082142Y-63698380D02*
X148748809Y-63222190D01*
X148510714Y-63698380D02*
X148510714Y-62698380D01*
X148891666Y-62698380D01*
X148986904Y-62746000D01*
X149034523Y-62793619D01*
X149082142Y-62888857D01*
X149082142Y-63031714D01*
X149034523Y-63126952D01*
X148986904Y-63174571D01*
X148891666Y-63222190D01*
X148510714Y-63222190D01*
X149510714Y-63174571D02*
X149844047Y-63174571D01*
X149986904Y-63698380D02*
X149510714Y-63698380D01*
X149510714Y-62698380D01*
X149986904Y-62698380D01*
X150748809Y-63174571D02*
X150415476Y-63174571D01*
X150415476Y-63698380D02*
X150415476Y-62698380D01*
X150891666Y-62698380D01*
X147986904Y-76398380D02*
X147986904Y-75398380D01*
X148367857Y-75398380D01*
X148463095Y-75446000D01*
X148510714Y-75493619D01*
X148558333Y-75588857D01*
X148558333Y-75731714D01*
X148510714Y-75826952D01*
X148463095Y-75874571D01*
X148367857Y-75922190D01*
X147986904Y-75922190D01*
X149320238Y-75874571D02*
X149463095Y-75922190D01*
X149510714Y-75969809D01*
X149558333Y-76065047D01*
X149558333Y-76207904D01*
X149510714Y-76303142D01*
X149463095Y-76350761D01*
X149367857Y-76398380D01*
X148986904Y-76398380D01*
X148986904Y-75398380D01*
X149320238Y-75398380D01*
X149415476Y-75446000D01*
X149463095Y-75493619D01*
X149510714Y-75588857D01*
X149510714Y-75684095D01*
X149463095Y-75779333D01*
X149415476Y-75826952D01*
X149320238Y-75874571D01*
X148986904Y-75874571D01*
X149939285Y-75493619D02*
X149986904Y-75446000D01*
X150082142Y-75398380D01*
X150320238Y-75398380D01*
X150415476Y-75446000D01*
X150463095Y-75493619D01*
X150510714Y-75588857D01*
X150510714Y-75684095D01*
X150463095Y-75826952D01*
X149891666Y-76398380D01*
X150510714Y-76398380D01*
X147986904Y-68778380D02*
X147986904Y-67778380D01*
X148367857Y-67778380D01*
X148463095Y-67826000D01*
X148510714Y-67873619D01*
X148558333Y-67968857D01*
X148558333Y-68111714D01*
X148510714Y-68206952D01*
X148463095Y-68254571D01*
X148367857Y-68302190D01*
X147986904Y-68302190D01*
X149320238Y-68254571D02*
X149463095Y-68302190D01*
X149510714Y-68349809D01*
X149558333Y-68445047D01*
X149558333Y-68587904D01*
X149510714Y-68683142D01*
X149463095Y-68730761D01*
X149367857Y-68778380D01*
X148986904Y-68778380D01*
X148986904Y-67778380D01*
X149320238Y-67778380D01*
X149415476Y-67826000D01*
X149463095Y-67873619D01*
X149510714Y-67968857D01*
X149510714Y-68064095D01*
X149463095Y-68159333D01*
X149415476Y-68206952D01*
X149320238Y-68254571D01*
X148986904Y-68254571D01*
X150463095Y-67778380D02*
X149986904Y-67778380D01*
X149939285Y-68254571D01*
X149986904Y-68206952D01*
X150082142Y-68159333D01*
X150320238Y-68159333D01*
X150415476Y-68206952D01*
X150463095Y-68254571D01*
X150510714Y-68349809D01*
X150510714Y-68587904D01*
X150463095Y-68683142D01*
X150415476Y-68730761D01*
X150320238Y-68778380D01*
X150082142Y-68778380D01*
X149986904Y-68730761D01*
X149939285Y-68683142D01*
X147986904Y-78938380D02*
X147986904Y-77938380D01*
X148367857Y-77938380D01*
X148463095Y-77986000D01*
X148510714Y-78033619D01*
X148558333Y-78128857D01*
X148558333Y-78271714D01*
X148510714Y-78366952D01*
X148463095Y-78414571D01*
X148367857Y-78462190D01*
X147986904Y-78462190D01*
X149320238Y-78414571D02*
X149463095Y-78462190D01*
X149510714Y-78509809D01*
X149558333Y-78605047D01*
X149558333Y-78747904D01*
X149510714Y-78843142D01*
X149463095Y-78890761D01*
X149367857Y-78938380D01*
X148986904Y-78938380D01*
X148986904Y-77938380D01*
X149320238Y-77938380D01*
X149415476Y-77986000D01*
X149463095Y-78033619D01*
X149510714Y-78128857D01*
X149510714Y-78224095D01*
X149463095Y-78319333D01*
X149415476Y-78366952D01*
X149320238Y-78414571D01*
X148986904Y-78414571D01*
X150510714Y-78938380D02*
X149939285Y-78938380D01*
X150225000Y-78938380D02*
X150225000Y-77938380D01*
X150129761Y-78081238D01*
X150034523Y-78176476D01*
X149939285Y-78224095D01*
X147986904Y-81478380D02*
X147986904Y-80478380D01*
X148367857Y-80478380D01*
X148463095Y-80526000D01*
X148510714Y-80573619D01*
X148558333Y-80668857D01*
X148558333Y-80811714D01*
X148510714Y-80906952D01*
X148463095Y-80954571D01*
X148367857Y-81002190D01*
X147986904Y-81002190D01*
X149320238Y-80954571D02*
X149463095Y-81002190D01*
X149510714Y-81049809D01*
X149558333Y-81145047D01*
X149558333Y-81287904D01*
X149510714Y-81383142D01*
X149463095Y-81430761D01*
X149367857Y-81478380D01*
X148986904Y-81478380D01*
X148986904Y-80478380D01*
X149320238Y-80478380D01*
X149415476Y-80526000D01*
X149463095Y-80573619D01*
X149510714Y-80668857D01*
X149510714Y-80764095D01*
X149463095Y-80859333D01*
X149415476Y-80906952D01*
X149320238Y-80954571D01*
X148986904Y-80954571D01*
X150177380Y-80478380D02*
X150272619Y-80478380D01*
X150367857Y-80526000D01*
X150415476Y-80573619D01*
X150463095Y-80668857D01*
X150510714Y-80859333D01*
X150510714Y-81097428D01*
X150463095Y-81287904D01*
X150415476Y-81383142D01*
X150367857Y-81430761D01*
X150272619Y-81478380D01*
X150177380Y-81478380D01*
X150082142Y-81430761D01*
X150034523Y-81383142D01*
X149986904Y-81287904D01*
X149939285Y-81097428D01*
X149939285Y-80859333D01*
X149986904Y-80668857D01*
X150034523Y-80573619D01*
X150082142Y-80526000D01*
X150177380Y-80478380D01*
X147986904Y-85542380D02*
X147986904Y-84542380D01*
X148367857Y-84542380D01*
X148463095Y-84590000D01*
X148510714Y-84637619D01*
X148558333Y-84732857D01*
X148558333Y-84875714D01*
X148510714Y-84970952D01*
X148463095Y-85018571D01*
X148367857Y-85066190D01*
X147986904Y-85066190D01*
X148986904Y-85542380D02*
X148986904Y-84542380D01*
X149225000Y-84542380D01*
X149367857Y-84590000D01*
X149463095Y-84685238D01*
X149510714Y-84780476D01*
X149558333Y-84970952D01*
X149558333Y-85113809D01*
X149510714Y-85304285D01*
X149463095Y-85399523D01*
X149367857Y-85494761D01*
X149225000Y-85542380D01*
X148986904Y-85542380D01*
X149891666Y-84542380D02*
X150558333Y-84542380D01*
X150129761Y-85542380D01*
X147986904Y-88082380D02*
X147986904Y-87082380D01*
X148367857Y-87082380D01*
X148463095Y-87130000D01*
X148510714Y-87177619D01*
X148558333Y-87272857D01*
X148558333Y-87415714D01*
X148510714Y-87510952D01*
X148463095Y-87558571D01*
X148367857Y-87606190D01*
X147986904Y-87606190D01*
X148986904Y-88082380D02*
X148986904Y-87082380D01*
X149225000Y-87082380D01*
X149367857Y-87130000D01*
X149463095Y-87225238D01*
X149510714Y-87320476D01*
X149558333Y-87510952D01*
X149558333Y-87653809D01*
X149510714Y-87844285D01*
X149463095Y-87939523D01*
X149367857Y-88034761D01*
X149225000Y-88082380D01*
X148986904Y-88082380D01*
X150415476Y-87082380D02*
X150225000Y-87082380D01*
X150129761Y-87130000D01*
X150082142Y-87177619D01*
X149986904Y-87320476D01*
X149939285Y-87510952D01*
X149939285Y-87891904D01*
X149986904Y-87987142D01*
X150034523Y-88034761D01*
X150129761Y-88082380D01*
X150320238Y-88082380D01*
X150415476Y-88034761D01*
X150463095Y-87987142D01*
X150510714Y-87891904D01*
X150510714Y-87653809D01*
X150463095Y-87558571D01*
X150415476Y-87510952D01*
X150320238Y-87463333D01*
X150129761Y-87463333D01*
X150034523Y-87510952D01*
X149986904Y-87558571D01*
X149939285Y-87653809D01*
X147986904Y-90622380D02*
X147986904Y-89622380D01*
X148367857Y-89622380D01*
X148463095Y-89670000D01*
X148510714Y-89717619D01*
X148558333Y-89812857D01*
X148558333Y-89955714D01*
X148510714Y-90050952D01*
X148463095Y-90098571D01*
X148367857Y-90146190D01*
X147986904Y-90146190D01*
X148986904Y-90622380D02*
X148986904Y-89622380D01*
X149225000Y-89622380D01*
X149367857Y-89670000D01*
X149463095Y-89765238D01*
X149510714Y-89860476D01*
X149558333Y-90050952D01*
X149558333Y-90193809D01*
X149510714Y-90384285D01*
X149463095Y-90479523D01*
X149367857Y-90574761D01*
X149225000Y-90622380D01*
X148986904Y-90622380D01*
X150463095Y-89622380D02*
X149986904Y-89622380D01*
X149939285Y-90098571D01*
X149986904Y-90050952D01*
X150082142Y-90003333D01*
X150320238Y-90003333D01*
X150415476Y-90050952D01*
X150463095Y-90098571D01*
X150510714Y-90193809D01*
X150510714Y-90431904D01*
X150463095Y-90527142D01*
X150415476Y-90574761D01*
X150320238Y-90622380D01*
X150082142Y-90622380D01*
X149986904Y-90574761D01*
X149939285Y-90527142D01*
X147986904Y-93162380D02*
X147986904Y-92162380D01*
X148367857Y-92162380D01*
X148463095Y-92210000D01*
X148510714Y-92257619D01*
X148558333Y-92352857D01*
X148558333Y-92495714D01*
X148510714Y-92590952D01*
X148463095Y-92638571D01*
X148367857Y-92686190D01*
X147986904Y-92686190D01*
X148986904Y-93162380D02*
X148986904Y-92162380D01*
X149225000Y-92162380D01*
X149367857Y-92210000D01*
X149463095Y-92305238D01*
X149510714Y-92400476D01*
X149558333Y-92590952D01*
X149558333Y-92733809D01*
X149510714Y-92924285D01*
X149463095Y-93019523D01*
X149367857Y-93114761D01*
X149225000Y-93162380D01*
X148986904Y-93162380D01*
X150415476Y-92495714D02*
X150415476Y-93162380D01*
X150177380Y-92114761D02*
X149939285Y-92829047D01*
X150558333Y-92829047D01*
X147986904Y-95702380D02*
X147986904Y-94702380D01*
X148367857Y-94702380D01*
X148463095Y-94750000D01*
X148510714Y-94797619D01*
X148558333Y-94892857D01*
X148558333Y-95035714D01*
X148510714Y-95130952D01*
X148463095Y-95178571D01*
X148367857Y-95226190D01*
X147986904Y-95226190D01*
X148986904Y-95702380D02*
X148986904Y-94702380D01*
X149225000Y-94702380D01*
X149367857Y-94750000D01*
X149463095Y-94845238D01*
X149510714Y-94940476D01*
X149558333Y-95130952D01*
X149558333Y-95273809D01*
X149510714Y-95464285D01*
X149463095Y-95559523D01*
X149367857Y-95654761D01*
X149225000Y-95702380D01*
X148986904Y-95702380D01*
X149891666Y-94702380D02*
X150510714Y-94702380D01*
X150177380Y-95083333D01*
X150320238Y-95083333D01*
X150415476Y-95130952D01*
X150463095Y-95178571D01*
X150510714Y-95273809D01*
X150510714Y-95511904D01*
X150463095Y-95607142D01*
X150415476Y-95654761D01*
X150320238Y-95702380D01*
X150034523Y-95702380D01*
X149939285Y-95654761D01*
X149891666Y-95607142D01*
X147986904Y-98242380D02*
X147986904Y-97242380D01*
X148367857Y-97242380D01*
X148463095Y-97290000D01*
X148510714Y-97337619D01*
X148558333Y-97432857D01*
X148558333Y-97575714D01*
X148510714Y-97670952D01*
X148463095Y-97718571D01*
X148367857Y-97766190D01*
X147986904Y-97766190D01*
X148986904Y-98242380D02*
X148986904Y-97242380D01*
X149225000Y-97242380D01*
X149367857Y-97290000D01*
X149463095Y-97385238D01*
X149510714Y-97480476D01*
X149558333Y-97670952D01*
X149558333Y-97813809D01*
X149510714Y-98004285D01*
X149463095Y-98099523D01*
X149367857Y-98194761D01*
X149225000Y-98242380D01*
X148986904Y-98242380D01*
X149939285Y-97337619D02*
X149986904Y-97290000D01*
X150082142Y-97242380D01*
X150320238Y-97242380D01*
X150415476Y-97290000D01*
X150463095Y-97337619D01*
X150510714Y-97432857D01*
X150510714Y-97528095D01*
X150463095Y-97670952D01*
X149891666Y-98242380D01*
X150510714Y-98242380D01*
X147986904Y-100782380D02*
X147986904Y-99782380D01*
X148367857Y-99782380D01*
X148463095Y-99830000D01*
X148510714Y-99877619D01*
X148558333Y-99972857D01*
X148558333Y-100115714D01*
X148510714Y-100210952D01*
X148463095Y-100258571D01*
X148367857Y-100306190D01*
X147986904Y-100306190D01*
X148986904Y-100782380D02*
X148986904Y-99782380D01*
X149225000Y-99782380D01*
X149367857Y-99830000D01*
X149463095Y-99925238D01*
X149510714Y-100020476D01*
X149558333Y-100210952D01*
X149558333Y-100353809D01*
X149510714Y-100544285D01*
X149463095Y-100639523D01*
X149367857Y-100734761D01*
X149225000Y-100782380D01*
X148986904Y-100782380D01*
X150510714Y-100782380D02*
X149939285Y-100782380D01*
X150225000Y-100782380D02*
X150225000Y-99782380D01*
X150129761Y-99925238D01*
X150034523Y-100020476D01*
X149939285Y-100068095D01*
X147986904Y-103322380D02*
X147986904Y-102322380D01*
X148367857Y-102322380D01*
X148463095Y-102370000D01*
X148510714Y-102417619D01*
X148558333Y-102512857D01*
X148558333Y-102655714D01*
X148510714Y-102750952D01*
X148463095Y-102798571D01*
X148367857Y-102846190D01*
X147986904Y-102846190D01*
X148986904Y-103322380D02*
X148986904Y-102322380D01*
X149225000Y-102322380D01*
X149367857Y-102370000D01*
X149463095Y-102465238D01*
X149510714Y-102560476D01*
X149558333Y-102750952D01*
X149558333Y-102893809D01*
X149510714Y-103084285D01*
X149463095Y-103179523D01*
X149367857Y-103274761D01*
X149225000Y-103322380D01*
X148986904Y-103322380D01*
X150177380Y-102322380D02*
X150272619Y-102322380D01*
X150367857Y-102370000D01*
X150415476Y-102417619D01*
X150463095Y-102512857D01*
X150510714Y-102703333D01*
X150510714Y-102941428D01*
X150463095Y-103131904D01*
X150415476Y-103227142D01*
X150367857Y-103274761D01*
X150272619Y-103322380D01*
X150177380Y-103322380D01*
X150082142Y-103274761D01*
X150034523Y-103227142D01*
X149986904Y-103131904D01*
X149939285Y-102941428D01*
X149939285Y-102703333D01*
X149986904Y-102512857D01*
X150034523Y-102417619D01*
X150082142Y-102370000D01*
X150177380Y-102322380D01*
G04 #@! TO.C,C4*
X171283333Y-111482142D02*
X171235714Y-111529761D01*
X171092857Y-111577380D01*
X170997619Y-111577380D01*
X170854761Y-111529761D01*
X170759523Y-111434523D01*
X170711904Y-111339285D01*
X170664285Y-111148809D01*
X170664285Y-111005952D01*
X170711904Y-110815476D01*
X170759523Y-110720238D01*
X170854761Y-110625000D01*
X170997619Y-110577380D01*
X171092857Y-110577380D01*
X171235714Y-110625000D01*
X171283333Y-110672619D01*
X172140476Y-110910714D02*
X172140476Y-111577380D01*
X171902380Y-110529761D02*
X171664285Y-111244047D01*
X172283333Y-111244047D01*
D14*
X171676190Y-114597619D02*
X171676190Y-114883333D01*
X171676190Y-114740476D02*
X171176190Y-114740476D01*
X171247619Y-114788095D01*
X171295238Y-114835714D01*
X171319047Y-114883333D01*
X171342857Y-114169047D02*
X171676190Y-114169047D01*
X171342857Y-114383333D02*
X171604761Y-114383333D01*
X171652380Y-114359523D01*
X171676190Y-114311904D01*
X171676190Y-114240476D01*
X171652380Y-114192857D01*
X171628571Y-114169047D01*
X171414285Y-113764285D02*
X171414285Y-113930952D01*
X171676190Y-113930952D02*
X171176190Y-113930952D01*
X171176190Y-113692857D01*
D12*
X173839047Y-112361428D02*
X174600952Y-112361428D01*
X174220000Y-112742380D02*
X174220000Y-111980476D01*
G04 #@! TO.C,R4*
X159853333Y-147032380D02*
X159520000Y-146556190D01*
X159281904Y-147032380D02*
X159281904Y-146032380D01*
X159662857Y-146032380D01*
X159758095Y-146080000D01*
X159805714Y-146127619D01*
X159853333Y-146222857D01*
X159853333Y-146365714D01*
X159805714Y-146460952D01*
X159758095Y-146508571D01*
X159662857Y-146556190D01*
X159281904Y-146556190D01*
X160710476Y-146365714D02*
X160710476Y-147032380D01*
X160472380Y-145984761D02*
X160234285Y-146699047D01*
X160853333Y-146699047D01*
D14*
X159960476Y-144901190D02*
X159674761Y-144901190D01*
X159817619Y-144901190D02*
X159817619Y-144401190D01*
X159770000Y-144472619D01*
X159722380Y-144520238D01*
X159674761Y-144544047D01*
X160174761Y-144901190D02*
X160174761Y-144401190D01*
X160222380Y-144710714D02*
X160365238Y-144901190D01*
X160365238Y-144567857D02*
X160174761Y-144758333D01*
G04 #@! TO.C,J3*
D12*
X196921428Y-48712142D02*
X196921428Y-47950238D01*
X197302380Y-48331190D02*
X196540476Y-48331190D01*
X196302380Y-46997857D02*
X196302380Y-47474047D01*
X196778571Y-47521666D01*
X196730952Y-47474047D01*
X196683333Y-47378809D01*
X196683333Y-47140714D01*
X196730952Y-47045476D01*
X196778571Y-46997857D01*
X196873809Y-46950238D01*
X197111904Y-46950238D01*
X197207142Y-46997857D01*
X197254761Y-47045476D01*
X197302380Y-47140714D01*
X197302380Y-47378809D01*
X197254761Y-47474047D01*
X197207142Y-47521666D01*
X196302380Y-46664523D02*
X197302380Y-46331190D01*
X196302380Y-45997857D01*
X197397619Y-45902619D02*
X197397619Y-45140714D01*
X197302380Y-44902619D02*
X196302380Y-44902619D01*
X196635714Y-44426428D02*
X197302380Y-44426428D01*
X196730952Y-44426428D02*
X196683333Y-44378809D01*
X196635714Y-44283571D01*
X196635714Y-44140714D01*
X196683333Y-44045476D01*
X196778571Y-43997857D01*
X197302380Y-43997857D01*
G04 #@! TO.C,SW2*
X112801666Y-44219761D02*
X112944523Y-44267380D01*
X113182619Y-44267380D01*
X113277857Y-44219761D01*
X113325476Y-44172142D01*
X113373095Y-44076904D01*
X113373095Y-43981666D01*
X113325476Y-43886428D01*
X113277857Y-43838809D01*
X113182619Y-43791190D01*
X112992142Y-43743571D01*
X112896904Y-43695952D01*
X112849285Y-43648333D01*
X112801666Y-43553095D01*
X112801666Y-43457857D01*
X112849285Y-43362619D01*
X112896904Y-43315000D01*
X112992142Y-43267380D01*
X113230238Y-43267380D01*
X113373095Y-43315000D01*
X113706428Y-43267380D02*
X113944523Y-44267380D01*
X114135000Y-43553095D01*
X114325476Y-44267380D01*
X114563571Y-43267380D01*
X114896904Y-43362619D02*
X114944523Y-43315000D01*
X115039761Y-43267380D01*
X115277857Y-43267380D01*
X115373095Y-43315000D01*
X115420714Y-43362619D01*
X115468333Y-43457857D01*
X115468333Y-43553095D01*
X115420714Y-43695952D01*
X114849285Y-44267380D01*
X115468333Y-44267380D01*
G04 #@! TO.C,SW1*
X96291666Y-44219761D02*
X96434523Y-44267380D01*
X96672619Y-44267380D01*
X96767857Y-44219761D01*
X96815476Y-44172142D01*
X96863095Y-44076904D01*
X96863095Y-43981666D01*
X96815476Y-43886428D01*
X96767857Y-43838809D01*
X96672619Y-43791190D01*
X96482142Y-43743571D01*
X96386904Y-43695952D01*
X96339285Y-43648333D01*
X96291666Y-43553095D01*
X96291666Y-43457857D01*
X96339285Y-43362619D01*
X96386904Y-43315000D01*
X96482142Y-43267380D01*
X96720238Y-43267380D01*
X96863095Y-43315000D01*
X97196428Y-43267380D02*
X97434523Y-44267380D01*
X97625000Y-43553095D01*
X97815476Y-44267380D01*
X98053571Y-43267380D01*
X98958333Y-44267380D02*
X98386904Y-44267380D01*
X98672619Y-44267380D02*
X98672619Y-43267380D01*
X98577380Y-43410238D01*
X98482142Y-43505476D01*
X98386904Y-43553095D01*
G04 #@! TO.C,R5*
X143343333Y-116102380D02*
X143010000Y-115626190D01*
X142771904Y-116102380D02*
X142771904Y-115102380D01*
X143152857Y-115102380D01*
X143248095Y-115150000D01*
X143295714Y-115197619D01*
X143343333Y-115292857D01*
X143343333Y-115435714D01*
X143295714Y-115530952D01*
X143248095Y-115578571D01*
X143152857Y-115626190D01*
X142771904Y-115626190D01*
X144248095Y-115102380D02*
X143771904Y-115102380D01*
X143724285Y-115578571D01*
X143771904Y-115530952D01*
X143867142Y-115483333D01*
X144105238Y-115483333D01*
X144200476Y-115530952D01*
X144248095Y-115578571D01*
X144295714Y-115673809D01*
X144295714Y-115911904D01*
X144248095Y-116007142D01*
X144200476Y-116054761D01*
X144105238Y-116102380D01*
X143867142Y-116102380D01*
X143771904Y-116054761D01*
X143724285Y-116007142D01*
D15*
X143445714Y-118952142D02*
X143645714Y-118952142D01*
X143331428Y-119023571D02*
X143545714Y-119095000D01*
X143545714Y-118909285D01*
X143345714Y-118823571D02*
X143345714Y-118623571D01*
X143645714Y-118752142D01*
X143645714Y-118509285D02*
X143345714Y-118509285D01*
X143531428Y-118480714D02*
X143645714Y-118395000D01*
X143445714Y-118395000D02*
X143560000Y-118509285D01*
G04 #@! TO.C,C3*
D12*
X138263333Y-115927142D02*
X138215714Y-115974761D01*
X138072857Y-116022380D01*
X137977619Y-116022380D01*
X137834761Y-115974761D01*
X137739523Y-115879523D01*
X137691904Y-115784285D01*
X137644285Y-115593809D01*
X137644285Y-115450952D01*
X137691904Y-115260476D01*
X137739523Y-115165238D01*
X137834761Y-115070000D01*
X137977619Y-115022380D01*
X138072857Y-115022380D01*
X138215714Y-115070000D01*
X138263333Y-115117619D01*
X138596666Y-115022380D02*
X139215714Y-115022380D01*
X138882380Y-115403333D01*
X139025238Y-115403333D01*
X139120476Y-115450952D01*
X139168095Y-115498571D01*
X139215714Y-115593809D01*
X139215714Y-115831904D01*
X139168095Y-115927142D01*
X139120476Y-115974761D01*
X139025238Y-116022380D01*
X138739523Y-116022380D01*
X138644285Y-115974761D01*
X138596666Y-115927142D01*
D15*
X138265714Y-119257857D02*
X138265714Y-119229285D01*
X138280000Y-119200714D01*
X138294285Y-119186428D01*
X138322857Y-119172142D01*
X138380000Y-119157857D01*
X138451428Y-119157857D01*
X138508571Y-119172142D01*
X138537142Y-119186428D01*
X138551428Y-119200714D01*
X138565714Y-119229285D01*
X138565714Y-119257857D01*
X138551428Y-119286428D01*
X138537142Y-119300714D01*
X138508571Y-119315000D01*
X138451428Y-119329285D01*
X138380000Y-119329285D01*
X138322857Y-119315000D01*
X138294285Y-119300714D01*
X138280000Y-119286428D01*
X138265714Y-119257857D01*
X138551428Y-119015000D02*
X138565714Y-119015000D01*
X138594285Y-119029285D01*
X138608571Y-119043571D01*
X138565714Y-118729285D02*
X138565714Y-118900714D01*
X138565714Y-118815000D02*
X138265714Y-118815000D01*
X138308571Y-118843571D01*
X138337142Y-118872142D01*
X138351428Y-118900714D01*
X138365714Y-118472142D02*
X138565714Y-118472142D01*
X138365714Y-118600714D02*
X138522857Y-118600714D01*
X138551428Y-118586428D01*
X138565714Y-118557857D01*
X138565714Y-118515000D01*
X138551428Y-118486428D01*
X138537142Y-118472142D01*
X138408571Y-118229285D02*
X138408571Y-118329285D01*
X138565714Y-118329285D02*
X138265714Y-118329285D01*
X138265714Y-118186428D01*
G04 #@! TO.C,R6*
D12*
X140803333Y-116022380D02*
X140470000Y-115546190D01*
X140231904Y-116022380D02*
X140231904Y-115022380D01*
X140612857Y-115022380D01*
X140708095Y-115070000D01*
X140755714Y-115117619D01*
X140803333Y-115212857D01*
X140803333Y-115355714D01*
X140755714Y-115450952D01*
X140708095Y-115498571D01*
X140612857Y-115546190D01*
X140231904Y-115546190D01*
X141660476Y-115022380D02*
X141470000Y-115022380D01*
X141374761Y-115070000D01*
X141327142Y-115117619D01*
X141231904Y-115260476D01*
X141184285Y-115450952D01*
X141184285Y-115831904D01*
X141231904Y-115927142D01*
X141279523Y-115974761D01*
X141374761Y-116022380D01*
X141565238Y-116022380D01*
X141660476Y-115974761D01*
X141708095Y-115927142D01*
X141755714Y-115831904D01*
X141755714Y-115593809D01*
X141708095Y-115498571D01*
X141660476Y-115450952D01*
X141565238Y-115403333D01*
X141374761Y-115403333D01*
X141279523Y-115450952D01*
X141231904Y-115498571D01*
X141184285Y-115593809D01*
D15*
X140905714Y-118952142D02*
X141105714Y-118952142D01*
X140791428Y-119023571D02*
X141005714Y-119095000D01*
X141005714Y-118909285D01*
X140805714Y-118823571D02*
X140805714Y-118623571D01*
X141105714Y-118752142D01*
X141105714Y-118509285D02*
X140805714Y-118509285D01*
X140991428Y-118480714D02*
X141105714Y-118395000D01*
X140905714Y-118395000D02*
X141020000Y-118509285D01*
G04 #@! TO.C,RV3*
D12*
X165730761Y-128207380D02*
X165397428Y-127731190D01*
X165159333Y-128207380D02*
X165159333Y-127207380D01*
X165540285Y-127207380D01*
X165635523Y-127255000D01*
X165683142Y-127302619D01*
X165730761Y-127397857D01*
X165730761Y-127540714D01*
X165683142Y-127635952D01*
X165635523Y-127683571D01*
X165540285Y-127731190D01*
X165159333Y-127731190D01*
X166016476Y-127207380D02*
X166349809Y-128207380D01*
X166683142Y-127207380D01*
X166921238Y-127207380D02*
X167540285Y-127207380D01*
X167206952Y-127588333D01*
X167349809Y-127588333D01*
X167445047Y-127635952D01*
X167492666Y-127683571D01*
X167540285Y-127778809D01*
X167540285Y-128016904D01*
X167492666Y-128112142D01*
X167445047Y-128159761D01*
X167349809Y-128207380D01*
X167064095Y-128207380D01*
X166968857Y-128159761D01*
X166921238Y-128112142D01*
D14*
X171362380Y-127981190D02*
X171076666Y-127981190D01*
X171219523Y-127981190D02*
X171219523Y-127481190D01*
X171171904Y-127552619D01*
X171124285Y-127600238D01*
X171076666Y-127624047D01*
X171671904Y-127481190D02*
X171719523Y-127481190D01*
X171767142Y-127505000D01*
X171790952Y-127528809D01*
X171814761Y-127576428D01*
X171838571Y-127671666D01*
X171838571Y-127790714D01*
X171814761Y-127885952D01*
X171790952Y-127933571D01*
X171767142Y-127957380D01*
X171719523Y-127981190D01*
X171671904Y-127981190D01*
X171624285Y-127957380D01*
X171600476Y-127933571D01*
X171576666Y-127885952D01*
X171552857Y-127790714D01*
X171552857Y-127671666D01*
X171576666Y-127576428D01*
X171600476Y-127528809D01*
X171624285Y-127505000D01*
X171671904Y-127481190D01*
X172052857Y-127981190D02*
X172052857Y-127481190D01*
X172100476Y-127790714D02*
X172243333Y-127981190D01*
X172243333Y-127647857D02*
X172052857Y-127838333D01*
G04 #@! TO.C,L1*
D12*
X142708333Y-128722380D02*
X142232142Y-128722380D01*
X142232142Y-127722380D01*
X143565476Y-128722380D02*
X142994047Y-128722380D01*
X143279761Y-128722380D02*
X143279761Y-127722380D01*
X143184523Y-127865238D01*
X143089285Y-127960476D01*
X142994047Y-128008095D01*
X142602380Y-136881904D02*
X142602380Y-136262857D01*
X142983333Y-136596190D01*
X142983333Y-136453333D01*
X143030952Y-136358095D01*
X143078571Y-136310476D01*
X143173809Y-136262857D01*
X143411904Y-136262857D01*
X143507142Y-136310476D01*
X143554761Y-136358095D01*
X143602380Y-136453333D01*
X143602380Y-136739047D01*
X143554761Y-136834285D01*
X143507142Y-136881904D01*
X142602380Y-135929523D02*
X142602380Y-135310476D01*
X142983333Y-135643809D01*
X142983333Y-135500952D01*
X143030952Y-135405714D01*
X143078571Y-135358095D01*
X143173809Y-135310476D01*
X143411904Y-135310476D01*
X143507142Y-135358095D01*
X143554761Y-135405714D01*
X143602380Y-135500952D01*
X143602380Y-135786666D01*
X143554761Y-135881904D01*
X143507142Y-135929523D01*
X142602380Y-134691428D02*
X142602380Y-134596190D01*
X142650000Y-134500952D01*
X142697619Y-134453333D01*
X142792857Y-134405714D01*
X142983333Y-134358095D01*
X143221428Y-134358095D01*
X143411904Y-134405714D01*
X143507142Y-134453333D01*
X143554761Y-134500952D01*
X143602380Y-134596190D01*
X143602380Y-134691428D01*
X143554761Y-134786666D01*
X143507142Y-134834285D01*
X143411904Y-134881904D01*
X143221428Y-134929523D01*
X142983333Y-134929523D01*
X142792857Y-134881904D01*
X142697619Y-134834285D01*
X142650000Y-134786666D01*
X142602380Y-134691428D01*
X142935714Y-133500952D02*
X143602380Y-133500952D01*
X142935714Y-133929523D02*
X143459523Y-133929523D01*
X143554761Y-133881904D01*
X143602380Y-133786666D01*
X143602380Y-133643809D01*
X143554761Y-133548571D01*
X143507142Y-133500952D01*
X143602380Y-133024761D02*
X142602380Y-133024761D01*
X143078571Y-133024761D02*
X143078571Y-132453333D01*
X143602380Y-132453333D02*
X142602380Y-132453333D01*
G04 #@! TO.C,D1*
X141715904Y-123007380D02*
X141715904Y-122007380D01*
X141954000Y-122007380D01*
X142096857Y-122055000D01*
X142192095Y-122150238D01*
X142239714Y-122245476D01*
X142287333Y-122435952D01*
X142287333Y-122578809D01*
X142239714Y-122769285D01*
X142192095Y-122864523D01*
X142096857Y-122959761D01*
X141954000Y-123007380D01*
X141715904Y-123007380D01*
X143239714Y-123007380D02*
X142668285Y-123007380D01*
X142954000Y-123007380D02*
X142954000Y-122007380D01*
X142858761Y-122150238D01*
X142763523Y-122245476D01*
X142668285Y-122293095D01*
G04 #@! TO.C,RV1*
X166123761Y-120587380D02*
X165790428Y-120111190D01*
X165552333Y-120587380D02*
X165552333Y-119587380D01*
X165933285Y-119587380D01*
X166028523Y-119635000D01*
X166076142Y-119682619D01*
X166123761Y-119777857D01*
X166123761Y-119920714D01*
X166076142Y-120015952D01*
X166028523Y-120063571D01*
X165933285Y-120111190D01*
X165552333Y-120111190D01*
X166409476Y-119587380D02*
X166742809Y-120587380D01*
X167076142Y-119587380D01*
X167933285Y-120587380D02*
X167361857Y-120587380D01*
X167647571Y-120587380D02*
X167647571Y-119587380D01*
X167552333Y-119730238D01*
X167457095Y-119825476D01*
X167361857Y-119873095D01*
D14*
X171009285Y-120361190D02*
X170723571Y-120361190D01*
X170866428Y-120361190D02*
X170866428Y-119861190D01*
X170818809Y-119932619D01*
X170771190Y-119980238D01*
X170723571Y-120004047D01*
X171318809Y-119861190D02*
X171366428Y-119861190D01*
X171414047Y-119885000D01*
X171437857Y-119908809D01*
X171461666Y-119956428D01*
X171485476Y-120051666D01*
X171485476Y-120170714D01*
X171461666Y-120265952D01*
X171437857Y-120313571D01*
X171414047Y-120337380D01*
X171366428Y-120361190D01*
X171318809Y-120361190D01*
X171271190Y-120337380D01*
X171247380Y-120313571D01*
X171223571Y-120265952D01*
X171199761Y-120170714D01*
X171199761Y-120051666D01*
X171223571Y-119956428D01*
X171247380Y-119908809D01*
X171271190Y-119885000D01*
X171318809Y-119861190D01*
X171795000Y-119861190D02*
X171842619Y-119861190D01*
X171890238Y-119885000D01*
X171914047Y-119908809D01*
X171937857Y-119956428D01*
X171961666Y-120051666D01*
X171961666Y-120170714D01*
X171937857Y-120265952D01*
X171914047Y-120313571D01*
X171890238Y-120337380D01*
X171842619Y-120361190D01*
X171795000Y-120361190D01*
X171747380Y-120337380D01*
X171723571Y-120313571D01*
X171699761Y-120265952D01*
X171675952Y-120170714D01*
X171675952Y-120051666D01*
X171699761Y-119956428D01*
X171723571Y-119908809D01*
X171747380Y-119885000D01*
X171795000Y-119861190D01*
X172175952Y-120361190D02*
X172175952Y-119861190D01*
X172223571Y-120170714D02*
X172366428Y-120361190D01*
X172366428Y-120027857D02*
X172175952Y-120218333D01*
G04 #@! TO.C,C5*
D12*
X152233333Y-110212142D02*
X152185714Y-110259761D01*
X152042857Y-110307380D01*
X151947619Y-110307380D01*
X151804761Y-110259761D01*
X151709523Y-110164523D01*
X151661904Y-110069285D01*
X151614285Y-109878809D01*
X151614285Y-109735952D01*
X151661904Y-109545476D01*
X151709523Y-109450238D01*
X151804761Y-109355000D01*
X151947619Y-109307380D01*
X152042857Y-109307380D01*
X152185714Y-109355000D01*
X152233333Y-109402619D01*
X153138095Y-109307380D02*
X152661904Y-109307380D01*
X152614285Y-109783571D01*
X152661904Y-109735952D01*
X152757142Y-109688333D01*
X152995238Y-109688333D01*
X153090476Y-109735952D01*
X153138095Y-109783571D01*
X153185714Y-109878809D01*
X153185714Y-110116904D01*
X153138095Y-110212142D01*
X153090476Y-110259761D01*
X152995238Y-110307380D01*
X152757142Y-110307380D01*
X152661904Y-110259761D01*
X152614285Y-110212142D01*
D14*
X152173809Y-112494285D02*
X152173809Y-112208571D01*
X152173809Y-112351428D02*
X152673809Y-112351428D01*
X152602380Y-112303809D01*
X152554761Y-112256190D01*
X152530952Y-112208571D01*
X152673809Y-112803809D02*
X152673809Y-112851428D01*
X152650000Y-112899047D01*
X152626190Y-112922857D01*
X152578571Y-112946666D01*
X152483333Y-112970476D01*
X152364285Y-112970476D01*
X152269047Y-112946666D01*
X152221428Y-112922857D01*
X152197619Y-112899047D01*
X152173809Y-112851428D01*
X152173809Y-112803809D01*
X152197619Y-112756190D01*
X152221428Y-112732380D01*
X152269047Y-112708571D01*
X152364285Y-112684761D01*
X152483333Y-112684761D01*
X152578571Y-112708571D01*
X152626190Y-112732380D01*
X152650000Y-112756190D01*
X152673809Y-112803809D01*
X152507142Y-113399047D02*
X152173809Y-113399047D01*
X152507142Y-113184761D02*
X152245238Y-113184761D01*
X152197619Y-113208571D01*
X152173809Y-113256190D01*
X152173809Y-113327619D01*
X152197619Y-113375238D01*
X152221428Y-113399047D01*
X152435714Y-113803809D02*
X152435714Y-113637142D01*
X152173809Y-113637142D02*
X152673809Y-113637142D01*
X152673809Y-113875238D01*
D12*
X154789047Y-111091428D02*
X155550952Y-111091428D01*
X155170000Y-111472380D02*
X155170000Y-110710476D01*
G04 #@! TO.C,D2*
X162456904Y-118562380D02*
X162456904Y-117562380D01*
X162695000Y-117562380D01*
X162837857Y-117610000D01*
X162933095Y-117705238D01*
X162980714Y-117800476D01*
X163028333Y-117990952D01*
X163028333Y-118133809D01*
X162980714Y-118324285D01*
X162933095Y-118419523D01*
X162837857Y-118514761D01*
X162695000Y-118562380D01*
X162456904Y-118562380D01*
X163409285Y-117657619D02*
X163456904Y-117610000D01*
X163552142Y-117562380D01*
X163790238Y-117562380D01*
X163885476Y-117610000D01*
X163933095Y-117657619D01*
X163980714Y-117752857D01*
X163980714Y-117848095D01*
X163933095Y-117990952D01*
X163361666Y-118562380D01*
X163980714Y-118562380D01*
G04 #@! TO.C,D3*
X162456904Y-109672380D02*
X162456904Y-108672380D01*
X162695000Y-108672380D01*
X162837857Y-108720000D01*
X162933095Y-108815238D01*
X162980714Y-108910476D01*
X163028333Y-109100952D01*
X163028333Y-109243809D01*
X162980714Y-109434285D01*
X162933095Y-109529523D01*
X162837857Y-109624761D01*
X162695000Y-109672380D01*
X162456904Y-109672380D01*
X163361666Y-108672380D02*
X163980714Y-108672380D01*
X163647380Y-109053333D01*
X163790238Y-109053333D01*
X163885476Y-109100952D01*
X163933095Y-109148571D01*
X163980714Y-109243809D01*
X163980714Y-109481904D01*
X163933095Y-109577142D01*
X163885476Y-109624761D01*
X163790238Y-109672380D01*
X163504523Y-109672380D01*
X163409285Y-109624761D01*
X163361666Y-109577142D01*
G04 #@! TO.C,R1*
X154138333Y-126182380D02*
X153805000Y-125706190D01*
X153566904Y-126182380D02*
X153566904Y-125182380D01*
X153947857Y-125182380D01*
X154043095Y-125230000D01*
X154090714Y-125277619D01*
X154138333Y-125372857D01*
X154138333Y-125515714D01*
X154090714Y-125610952D01*
X154043095Y-125658571D01*
X153947857Y-125706190D01*
X153566904Y-125706190D01*
X155090714Y-126182380D02*
X154519285Y-126182380D01*
X154805000Y-126182380D02*
X154805000Y-125182380D01*
X154709761Y-125325238D01*
X154614523Y-125420476D01*
X154519285Y-125468095D01*
D15*
X152564285Y-125294285D02*
X152564285Y-125480000D01*
X152450000Y-125380000D01*
X152450000Y-125422857D01*
X152435714Y-125451428D01*
X152421428Y-125465714D01*
X152392857Y-125480000D01*
X152321428Y-125480000D01*
X152292857Y-125465714D01*
X152278571Y-125451428D01*
X152264285Y-125422857D01*
X152264285Y-125337142D01*
X152278571Y-125308571D01*
X152292857Y-125294285D01*
X152278571Y-125622857D02*
X152264285Y-125622857D01*
X152235714Y-125608571D01*
X152221428Y-125594285D01*
X152564285Y-125722857D02*
X152564285Y-125908571D01*
X152450000Y-125808571D01*
X152450000Y-125851428D01*
X152435714Y-125880000D01*
X152421428Y-125894285D01*
X152392857Y-125908571D01*
X152321428Y-125908571D01*
X152292857Y-125894285D01*
X152278571Y-125880000D01*
X152264285Y-125851428D01*
X152264285Y-125765714D01*
X152278571Y-125737142D01*
X152292857Y-125722857D01*
X152264285Y-126037142D02*
X152564285Y-126037142D01*
X152378571Y-126065714D02*
X152264285Y-126151428D01*
X152464285Y-126151428D02*
X152350000Y-126037142D01*
G04 #@! TO.C,RV2*
D12*
X165730761Y-135827380D02*
X165397428Y-135351190D01*
X165159333Y-135827380D02*
X165159333Y-134827380D01*
X165540285Y-134827380D01*
X165635523Y-134875000D01*
X165683142Y-134922619D01*
X165730761Y-135017857D01*
X165730761Y-135160714D01*
X165683142Y-135255952D01*
X165635523Y-135303571D01*
X165540285Y-135351190D01*
X165159333Y-135351190D01*
X166016476Y-134827380D02*
X166349809Y-135827380D01*
X166683142Y-134827380D01*
X166968857Y-134922619D02*
X167016476Y-134875000D01*
X167111714Y-134827380D01*
X167349809Y-134827380D01*
X167445047Y-134875000D01*
X167492666Y-134922619D01*
X167540285Y-135017857D01*
X167540285Y-135113095D01*
X167492666Y-135255952D01*
X166921238Y-135827380D01*
X167540285Y-135827380D01*
D14*
X171362380Y-135601190D02*
X171076666Y-135601190D01*
X171219523Y-135601190D02*
X171219523Y-135101190D01*
X171171904Y-135172619D01*
X171124285Y-135220238D01*
X171076666Y-135244047D01*
X171671904Y-135101190D02*
X171719523Y-135101190D01*
X171767142Y-135125000D01*
X171790952Y-135148809D01*
X171814761Y-135196428D01*
X171838571Y-135291666D01*
X171838571Y-135410714D01*
X171814761Y-135505952D01*
X171790952Y-135553571D01*
X171767142Y-135577380D01*
X171719523Y-135601190D01*
X171671904Y-135601190D01*
X171624285Y-135577380D01*
X171600476Y-135553571D01*
X171576666Y-135505952D01*
X171552857Y-135410714D01*
X171552857Y-135291666D01*
X171576666Y-135196428D01*
X171600476Y-135148809D01*
X171624285Y-135125000D01*
X171671904Y-135101190D01*
X172052857Y-135601190D02*
X172052857Y-135101190D01*
X172100476Y-135410714D02*
X172243333Y-135601190D01*
X172243333Y-135267857D02*
X172052857Y-135458333D01*
G04 #@! TO.C,U3*
D12*
X148123095Y-115997380D02*
X148123095Y-116806904D01*
X148170714Y-116902142D01*
X148218333Y-116949761D01*
X148313571Y-116997380D01*
X148504047Y-116997380D01*
X148599285Y-116949761D01*
X148646904Y-116902142D01*
X148694523Y-116806904D01*
X148694523Y-115997380D01*
X149075476Y-115997380D02*
X149694523Y-115997380D01*
X149361190Y-116378333D01*
X149504047Y-116378333D01*
X149599285Y-116425952D01*
X149646904Y-116473571D01*
X149694523Y-116568809D01*
X149694523Y-116806904D01*
X149646904Y-116902142D01*
X149599285Y-116949761D01*
X149504047Y-116997380D01*
X149218333Y-116997380D01*
X149123095Y-116949761D01*
X149075476Y-116902142D01*
D16*
X147865714Y-119361428D02*
X147580000Y-119361428D01*
X147580000Y-118761428D01*
X148065714Y-119361428D02*
X148065714Y-118761428D01*
X148265714Y-119190000D01*
X148465714Y-118761428D01*
X148465714Y-119361428D01*
X148694285Y-118761428D02*
X149065714Y-118761428D01*
X148865714Y-118990000D01*
X148951428Y-118990000D01*
X149008571Y-119018571D01*
X149037142Y-119047142D01*
X149065714Y-119104285D01*
X149065714Y-119247142D01*
X149037142Y-119304285D01*
X149008571Y-119332857D01*
X148951428Y-119361428D01*
X148780000Y-119361428D01*
X148722857Y-119332857D01*
X148694285Y-119304285D01*
X149608571Y-118761428D02*
X149322857Y-118761428D01*
X149294285Y-119047142D01*
X149322857Y-119018571D01*
X149380000Y-118990000D01*
X149522857Y-118990000D01*
X149580000Y-119018571D01*
X149608571Y-119047142D01*
X149637142Y-119104285D01*
X149637142Y-119247142D01*
X149608571Y-119304285D01*
X149580000Y-119332857D01*
X149522857Y-119361428D01*
X149380000Y-119361428D01*
X149322857Y-119332857D01*
X149294285Y-119304285D01*
X149980000Y-119018571D02*
X149922857Y-118990000D01*
X149894285Y-118961428D01*
X149865714Y-118904285D01*
X149865714Y-118875714D01*
X149894285Y-118818571D01*
X149922857Y-118790000D01*
X149980000Y-118761428D01*
X150094285Y-118761428D01*
X150151428Y-118790000D01*
X150180000Y-118818571D01*
X150208571Y-118875714D01*
X150208571Y-118904285D01*
X150180000Y-118961428D01*
X150151428Y-118990000D01*
X150094285Y-119018571D01*
X149980000Y-119018571D01*
X149922857Y-119047142D01*
X149894285Y-119075714D01*
X149865714Y-119132857D01*
X149865714Y-119247142D01*
X149894285Y-119304285D01*
X149922857Y-119332857D01*
X149980000Y-119361428D01*
X150094285Y-119361428D01*
X150151428Y-119332857D01*
X150180000Y-119304285D01*
X150208571Y-119247142D01*
X150208571Y-119132857D01*
X150180000Y-119075714D01*
X150151428Y-119047142D01*
X150094285Y-119018571D01*
G04 #@! TO.C,MC1*
D12*
X132088095Y-146772380D02*
X132088095Y-147581904D01*
X132135714Y-147677142D01*
X132183333Y-147724761D01*
X132278571Y-147772380D01*
X132469047Y-147772380D01*
X132564285Y-147724761D01*
X132611904Y-147677142D01*
X132659523Y-147581904D01*
X132659523Y-146772380D01*
X133088095Y-147724761D02*
X133230952Y-147772380D01*
X133469047Y-147772380D01*
X133564285Y-147724761D01*
X133611904Y-147677142D01*
X133659523Y-147581904D01*
X133659523Y-147486666D01*
X133611904Y-147391428D01*
X133564285Y-147343809D01*
X133469047Y-147296190D01*
X133278571Y-147248571D01*
X133183333Y-147200952D01*
X133135714Y-147153333D01*
X133088095Y-147058095D01*
X133088095Y-146962857D01*
X133135714Y-146867619D01*
X133183333Y-146820000D01*
X133278571Y-146772380D01*
X133516666Y-146772380D01*
X133659523Y-146820000D01*
X134659523Y-147772380D02*
X134326190Y-147296190D01*
X134088095Y-147772380D02*
X134088095Y-146772380D01*
X134469047Y-146772380D01*
X134564285Y-146820000D01*
X134611904Y-146867619D01*
X134659523Y-146962857D01*
X134659523Y-147105714D01*
X134611904Y-147200952D01*
X134564285Y-147248571D01*
X134469047Y-147296190D01*
X134088095Y-147296190D01*
G04 #@! TO.C,M3*
X81732380Y-145327142D02*
X80732380Y-145327142D01*
X81446666Y-144993809D01*
X80732380Y-144660476D01*
X81732380Y-144660476D01*
X81732380Y-144041428D02*
X81684761Y-144136666D01*
X81637142Y-144184285D01*
X81541904Y-144231904D01*
X81256190Y-144231904D01*
X81160952Y-144184285D01*
X81113333Y-144136666D01*
X81065714Y-144041428D01*
X81065714Y-143898571D01*
X81113333Y-143803333D01*
X81160952Y-143755714D01*
X81256190Y-143708095D01*
X81541904Y-143708095D01*
X81637142Y-143755714D01*
X81684761Y-143803333D01*
X81732380Y-143898571D01*
X81732380Y-144041428D01*
X81065714Y-143422380D02*
X81065714Y-143041428D01*
X80732380Y-143279523D02*
X81589523Y-143279523D01*
X81684761Y-143231904D01*
X81732380Y-143136666D01*
X81732380Y-143041428D01*
X81732380Y-142565238D02*
X81684761Y-142660476D01*
X81637142Y-142708095D01*
X81541904Y-142755714D01*
X81256190Y-142755714D01*
X81160952Y-142708095D01*
X81113333Y-142660476D01*
X81065714Y-142565238D01*
X81065714Y-142422380D01*
X81113333Y-142327142D01*
X81160952Y-142279523D01*
X81256190Y-142231904D01*
X81541904Y-142231904D01*
X81637142Y-142279523D01*
X81684761Y-142327142D01*
X81732380Y-142422380D01*
X81732380Y-142565238D01*
X81732380Y-141803333D02*
X81065714Y-141803333D01*
X81256190Y-141803333D02*
X81160952Y-141755714D01*
X81113333Y-141708095D01*
X81065714Y-141612857D01*
X81065714Y-141517619D01*
X81827619Y-141422380D02*
X81827619Y-140660476D01*
X81208571Y-140422380D02*
X81208571Y-140089047D01*
X81732380Y-139946190D02*
X81732380Y-140422380D01*
X80732380Y-140422380D01*
X80732380Y-139946190D01*
X81732380Y-139374761D02*
X81684761Y-139470000D01*
X81589523Y-139517619D01*
X80732380Y-139517619D01*
X81732380Y-138993809D02*
X80732380Y-138993809D01*
X81113333Y-138993809D02*
X81065714Y-138898571D01*
X81065714Y-138708095D01*
X81113333Y-138612857D01*
X81160952Y-138565238D01*
X81256190Y-138517619D01*
X81541904Y-138517619D01*
X81637142Y-138565238D01*
X81684761Y-138612857D01*
X81732380Y-138708095D01*
X81732380Y-138898571D01*
X81684761Y-138993809D01*
X81732380Y-137946190D02*
X81684761Y-138041428D01*
X81637142Y-138089047D01*
X81541904Y-138136666D01*
X81256190Y-138136666D01*
X81160952Y-138089047D01*
X81113333Y-138041428D01*
X81065714Y-137946190D01*
X81065714Y-137803333D01*
X81113333Y-137708095D01*
X81160952Y-137660476D01*
X81256190Y-137612857D01*
X81541904Y-137612857D01*
X81637142Y-137660476D01*
X81684761Y-137708095D01*
X81732380Y-137803333D01*
X81732380Y-137946190D01*
X81065714Y-137279523D02*
X81732380Y-137089047D01*
X81256190Y-136898571D01*
X81732380Y-136708095D01*
X81065714Y-136517619D01*
G04 #@! TO.C,Q9*
X113644761Y-121777619D02*
X113549523Y-121730000D01*
X113454285Y-121634761D01*
X113311428Y-121491904D01*
X113216190Y-121444285D01*
X113120952Y-121444285D01*
X113168571Y-121682380D02*
X113073333Y-121634761D01*
X112978095Y-121539523D01*
X112930476Y-121349047D01*
X112930476Y-121015714D01*
X112978095Y-120825238D01*
X113073333Y-120730000D01*
X113168571Y-120682380D01*
X113359047Y-120682380D01*
X113454285Y-120730000D01*
X113549523Y-120825238D01*
X113597142Y-121015714D01*
X113597142Y-121349047D01*
X113549523Y-121539523D01*
X113454285Y-121634761D01*
X113359047Y-121682380D01*
X113168571Y-121682380D01*
X114073333Y-121682380D02*
X114263809Y-121682380D01*
X114359047Y-121634761D01*
X114406666Y-121587142D01*
X114501904Y-121444285D01*
X114549523Y-121253809D01*
X114549523Y-120872857D01*
X114501904Y-120777619D01*
X114454285Y-120730000D01*
X114359047Y-120682380D01*
X114168571Y-120682380D01*
X114073333Y-120730000D01*
X114025714Y-120777619D01*
X113978095Y-120872857D01*
X113978095Y-121110952D01*
X114025714Y-121206190D01*
X114073333Y-121253809D01*
X114168571Y-121301428D01*
X114359047Y-121301428D01*
X114454285Y-121253809D01*
X114501904Y-121206190D01*
X114549523Y-121110952D01*
G04 #@! TO.C,Q15*
X100468571Y-121777619D02*
X100373333Y-121730000D01*
X100278095Y-121634761D01*
X100135238Y-121491904D01*
X100040000Y-121444285D01*
X99944761Y-121444285D01*
X99992380Y-121682380D02*
X99897142Y-121634761D01*
X99801904Y-121539523D01*
X99754285Y-121349047D01*
X99754285Y-121015714D01*
X99801904Y-120825238D01*
X99897142Y-120730000D01*
X99992380Y-120682380D01*
X100182857Y-120682380D01*
X100278095Y-120730000D01*
X100373333Y-120825238D01*
X100420952Y-121015714D01*
X100420952Y-121349047D01*
X100373333Y-121539523D01*
X100278095Y-121634761D01*
X100182857Y-121682380D01*
X99992380Y-121682380D01*
X101373333Y-121682380D02*
X100801904Y-121682380D01*
X101087619Y-121682380D02*
X101087619Y-120682380D01*
X100992380Y-120825238D01*
X100897142Y-120920476D01*
X100801904Y-120968095D01*
X102278095Y-120682380D02*
X101801904Y-120682380D01*
X101754285Y-121158571D01*
X101801904Y-121110952D01*
X101897142Y-121063333D01*
X102135238Y-121063333D01*
X102230476Y-121110952D01*
X102278095Y-121158571D01*
X102325714Y-121253809D01*
X102325714Y-121491904D01*
X102278095Y-121587142D01*
X102230476Y-121634761D01*
X102135238Y-121682380D01*
X101897142Y-121682380D01*
X101801904Y-121634761D01*
X101754285Y-121587142D01*
G04 #@! TO.C,C1*
X158583333Y-133707142D02*
X158535714Y-133754761D01*
X158392857Y-133802380D01*
X158297619Y-133802380D01*
X158154761Y-133754761D01*
X158059523Y-133659523D01*
X158011904Y-133564285D01*
X157964285Y-133373809D01*
X157964285Y-133230952D01*
X158011904Y-133040476D01*
X158059523Y-132945238D01*
X158154761Y-132850000D01*
X158297619Y-132802380D01*
X158392857Y-132802380D01*
X158535714Y-132850000D01*
X158583333Y-132897619D01*
X159535714Y-133802380D02*
X158964285Y-133802380D01*
X159250000Y-133802380D02*
X159250000Y-132802380D01*
X159154761Y-132945238D01*
X159059523Y-133040476D01*
X158964285Y-133088095D01*
D14*
X157928571Y-136298809D02*
X157952380Y-136275000D01*
X158000000Y-136251190D01*
X158119047Y-136251190D01*
X158166666Y-136275000D01*
X158190476Y-136298809D01*
X158214285Y-136346428D01*
X158214285Y-136394047D01*
X158190476Y-136465476D01*
X157904761Y-136751190D01*
X158214285Y-136751190D01*
X158404761Y-136298809D02*
X158428571Y-136275000D01*
X158476190Y-136251190D01*
X158595238Y-136251190D01*
X158642857Y-136275000D01*
X158666666Y-136298809D01*
X158690476Y-136346428D01*
X158690476Y-136394047D01*
X158666666Y-136465476D01*
X158380952Y-136751190D01*
X158690476Y-136751190D01*
X159119047Y-136417857D02*
X159119047Y-136751190D01*
X158904761Y-136417857D02*
X158904761Y-136679761D01*
X158928571Y-136727380D01*
X158976190Y-136751190D01*
X159047619Y-136751190D01*
X159095238Y-136727380D01*
X159119047Y-136703571D01*
X159523809Y-136489285D02*
X159357142Y-136489285D01*
X159357142Y-136751190D02*
X159357142Y-136251190D01*
X159595238Y-136251190D01*
D12*
X155599047Y-138606428D02*
X156360952Y-138606428D01*
X155980000Y-138987380D02*
X155980000Y-138225476D01*
G04 #@! TO.C,C2*
X151217333Y-143105142D02*
X151169714Y-143152761D01*
X151026857Y-143200380D01*
X150931619Y-143200380D01*
X150788761Y-143152761D01*
X150693523Y-143057523D01*
X150645904Y-142962285D01*
X150598285Y-142771809D01*
X150598285Y-142628952D01*
X150645904Y-142438476D01*
X150693523Y-142343238D01*
X150788761Y-142248000D01*
X150931619Y-142200380D01*
X151026857Y-142200380D01*
X151169714Y-142248000D01*
X151217333Y-142295619D01*
X151598285Y-142295619D02*
X151645904Y-142248000D01*
X151741142Y-142200380D01*
X151979238Y-142200380D01*
X152074476Y-142248000D01*
X152122095Y-142295619D01*
X152169714Y-142390857D01*
X152169714Y-142486095D01*
X152122095Y-142628952D01*
X151550666Y-143200380D01*
X152169714Y-143200380D01*
D14*
X154642380Y-143101190D02*
X154356666Y-143101190D01*
X154499523Y-143101190D02*
X154499523Y-142601190D01*
X154451904Y-142672619D01*
X154404285Y-142720238D01*
X154356666Y-142744047D01*
X155070952Y-142767857D02*
X155070952Y-143101190D01*
X154856666Y-142767857D02*
X154856666Y-143029761D01*
X154880476Y-143077380D01*
X154928095Y-143101190D01*
X154999523Y-143101190D01*
X155047142Y-143077380D01*
X155070952Y-143053571D01*
X155475714Y-142839285D02*
X155309047Y-142839285D01*
X155309047Y-143101190D02*
X155309047Y-142601190D01*
X155547142Y-142601190D01*
D12*
X153001428Y-140485952D02*
X153001428Y-139724047D01*
X153382380Y-140105000D02*
X152620476Y-140105000D01*
G04 #@! TO.C,J1*
X143121428Y-147391428D02*
X143883333Y-147391428D01*
X143502380Y-147772380D02*
X143502380Y-147010476D01*
X144835714Y-146772380D02*
X144359523Y-146772380D01*
X144311904Y-147248571D01*
X144359523Y-147200952D01*
X144454761Y-147153333D01*
X144692857Y-147153333D01*
X144788095Y-147200952D01*
X144835714Y-147248571D01*
X144883333Y-147343809D01*
X144883333Y-147581904D01*
X144835714Y-147677142D01*
X144788095Y-147724761D01*
X144692857Y-147772380D01*
X144454761Y-147772380D01*
X144359523Y-147724761D01*
X144311904Y-147677142D01*
X145169047Y-146772380D02*
X145502380Y-147772380D01*
X145835714Y-146772380D01*
X145930952Y-147867619D02*
X146692857Y-147867619D01*
X147121428Y-146772380D02*
X147311904Y-146772380D01*
X147407142Y-146820000D01*
X147502380Y-146915238D01*
X147550000Y-147105714D01*
X147550000Y-147439047D01*
X147502380Y-147629523D01*
X147407142Y-147724761D01*
X147311904Y-147772380D01*
X147121428Y-147772380D01*
X147026190Y-147724761D01*
X146930952Y-147629523D01*
X146883333Y-147439047D01*
X146883333Y-147105714D01*
X146930952Y-146915238D01*
X147026190Y-146820000D01*
X147121428Y-146772380D01*
X148407142Y-147105714D02*
X148407142Y-147772380D01*
X147978571Y-147105714D02*
X147978571Y-147629523D01*
X148026190Y-147724761D01*
X148121428Y-147772380D01*
X148264285Y-147772380D01*
X148359523Y-147724761D01*
X148407142Y-147677142D01*
X148740476Y-147105714D02*
X149121428Y-147105714D01*
X148883333Y-146772380D02*
X148883333Y-147629523D01*
X148930952Y-147724761D01*
X149026190Y-147772380D01*
X149121428Y-147772380D01*
G04 #@! TO.C,J2*
X76382857Y-37536428D02*
X77144761Y-37536428D01*
X76763809Y-37917380D02*
X76763809Y-37155476D01*
X77573333Y-37012619D02*
X77620952Y-36965000D01*
X77716190Y-36917380D01*
X77954285Y-36917380D01*
X78049523Y-36965000D01*
X78097142Y-37012619D01*
X78144761Y-37107857D01*
X78144761Y-37203095D01*
X78097142Y-37345952D01*
X77525714Y-37917380D01*
X78144761Y-37917380D01*
X78430476Y-36917380D02*
X78763809Y-37917380D01*
X79097142Y-36917380D01*
X79192380Y-38012619D02*
X79954285Y-38012619D01*
X80192380Y-37917380D02*
X80192380Y-36917380D01*
X80668571Y-37250714D02*
X80668571Y-37917380D01*
X80668571Y-37345952D02*
X80716190Y-37298333D01*
X80811428Y-37250714D01*
X80954285Y-37250714D01*
X81049523Y-37298333D01*
X81097142Y-37393571D01*
X81097142Y-37917380D01*
G04 #@! TO.C,J7*
X127270000Y-147772380D02*
X127270000Y-146772380D01*
X128317619Y-147772380D02*
X127984285Y-147296190D01*
X127746190Y-147772380D02*
X127746190Y-146772380D01*
X128127142Y-146772380D01*
X128222380Y-146820000D01*
X128270000Y-146867619D01*
X128317619Y-146962857D01*
X128317619Y-147105714D01*
X128270000Y-147200952D01*
X128222380Y-147248571D01*
X128127142Y-147296190D01*
X127746190Y-147296190D01*
X128746190Y-147772380D02*
X128746190Y-146772380D01*
X128984285Y-146772380D01*
X129127142Y-146820000D01*
X129222380Y-146915238D01*
X129270000Y-147010476D01*
X129317619Y-147200952D01*
X129317619Y-147343809D01*
X129270000Y-147534285D01*
X129222380Y-147629523D01*
X129127142Y-147724761D01*
X128984285Y-147772380D01*
X128746190Y-147772380D01*
G04 #@! TO.C,M4*
X81732380Y-57236428D02*
X80732380Y-57236428D01*
X81446666Y-56903095D01*
X80732380Y-56569761D01*
X81732380Y-56569761D01*
X81732380Y-55950714D02*
X81684761Y-56045952D01*
X81637142Y-56093571D01*
X81541904Y-56141190D01*
X81256190Y-56141190D01*
X81160952Y-56093571D01*
X81113333Y-56045952D01*
X81065714Y-55950714D01*
X81065714Y-55807857D01*
X81113333Y-55712619D01*
X81160952Y-55665000D01*
X81256190Y-55617380D01*
X81541904Y-55617380D01*
X81637142Y-55665000D01*
X81684761Y-55712619D01*
X81732380Y-55807857D01*
X81732380Y-55950714D01*
X81065714Y-55331666D02*
X81065714Y-54950714D01*
X80732380Y-55188809D02*
X81589523Y-55188809D01*
X81684761Y-55141190D01*
X81732380Y-55045952D01*
X81732380Y-54950714D01*
X81732380Y-54474523D02*
X81684761Y-54569761D01*
X81637142Y-54617380D01*
X81541904Y-54665000D01*
X81256190Y-54665000D01*
X81160952Y-54617380D01*
X81113333Y-54569761D01*
X81065714Y-54474523D01*
X81065714Y-54331666D01*
X81113333Y-54236428D01*
X81160952Y-54188809D01*
X81256190Y-54141190D01*
X81541904Y-54141190D01*
X81637142Y-54188809D01*
X81684761Y-54236428D01*
X81732380Y-54331666D01*
X81732380Y-54474523D01*
X81732380Y-53712619D02*
X81065714Y-53712619D01*
X81256190Y-53712619D02*
X81160952Y-53665000D01*
X81113333Y-53617380D01*
X81065714Y-53522142D01*
X81065714Y-53426904D01*
X81827619Y-53331666D02*
X81827619Y-52569761D01*
X81732380Y-52331666D02*
X80732380Y-52331666D01*
X81208571Y-52331666D02*
X81208571Y-51760238D01*
X81732380Y-51760238D02*
X80732380Y-51760238D01*
X81732380Y-50855476D02*
X81208571Y-50855476D01*
X81113333Y-50903095D01*
X81065714Y-50998333D01*
X81065714Y-51188809D01*
X81113333Y-51284047D01*
X81684761Y-50855476D02*
X81732380Y-50950714D01*
X81732380Y-51188809D01*
X81684761Y-51284047D01*
X81589523Y-51331666D01*
X81494285Y-51331666D01*
X81399047Y-51284047D01*
X81351428Y-51188809D01*
X81351428Y-50950714D01*
X81303809Y-50855476D01*
X81065714Y-50379285D02*
X81732380Y-50379285D01*
X81160952Y-50379285D02*
X81113333Y-50331666D01*
X81065714Y-50236428D01*
X81065714Y-50093571D01*
X81113333Y-49998333D01*
X81208571Y-49950714D01*
X81732380Y-49950714D01*
X81732380Y-49045952D02*
X80732380Y-49045952D01*
X81684761Y-49045952D02*
X81732380Y-49141190D01*
X81732380Y-49331666D01*
X81684761Y-49426904D01*
X81637142Y-49474523D01*
X81541904Y-49522142D01*
X81256190Y-49522142D01*
X81160952Y-49474523D01*
X81113333Y-49426904D01*
X81065714Y-49331666D01*
X81065714Y-49141190D01*
X81113333Y-49045952D01*
X81827619Y-48807857D02*
X81827619Y-48045952D01*
X82113333Y-47522142D02*
X82065714Y-47569761D01*
X81922857Y-47665000D01*
X81827619Y-47712619D01*
X81684761Y-47760238D01*
X81446666Y-47807857D01*
X81256190Y-47807857D01*
X81018095Y-47760238D01*
X80875238Y-47712619D01*
X80780000Y-47665000D01*
X80637142Y-47569761D01*
X80589523Y-47522142D01*
X81684761Y-47188809D02*
X81732380Y-47045952D01*
X81732380Y-46807857D01*
X81684761Y-46712619D01*
X81637142Y-46665000D01*
X81541904Y-46617380D01*
X81446666Y-46617380D01*
X81351428Y-46665000D01*
X81303809Y-46712619D01*
X81256190Y-46807857D01*
X81208571Y-46998333D01*
X81160952Y-47093571D01*
X81113333Y-47141190D01*
X81018095Y-47188809D01*
X80922857Y-47188809D01*
X80827619Y-47141190D01*
X80780000Y-47093571D01*
X80732380Y-46998333D01*
X80732380Y-46760238D01*
X80780000Y-46617380D01*
X80780000Y-45665000D02*
X80732380Y-45760238D01*
X80732380Y-45903095D01*
X80780000Y-46045952D01*
X80875238Y-46141190D01*
X80970476Y-46188809D01*
X81160952Y-46236428D01*
X81303809Y-46236428D01*
X81494285Y-46188809D01*
X81589523Y-46141190D01*
X81684761Y-46045952D01*
X81732380Y-45903095D01*
X81732380Y-45807857D01*
X81684761Y-45665000D01*
X81637142Y-45617380D01*
X81303809Y-45617380D01*
X81303809Y-45807857D01*
X81732380Y-45141190D02*
X81732380Y-44950714D01*
X81684761Y-44855476D01*
X81637142Y-44807857D01*
X81494285Y-44712619D01*
X81303809Y-44665000D01*
X80922857Y-44665000D01*
X80827619Y-44712619D01*
X80780000Y-44760238D01*
X80732380Y-44855476D01*
X80732380Y-45045952D01*
X80780000Y-45141190D01*
X80827619Y-45188809D01*
X80922857Y-45236428D01*
X81160952Y-45236428D01*
X81256190Y-45188809D01*
X81303809Y-45141190D01*
X81351428Y-45045952D01*
X81351428Y-44855476D01*
X81303809Y-44760238D01*
X81256190Y-44712619D01*
X81160952Y-44665000D01*
X80732380Y-44045952D02*
X80732380Y-43950714D01*
X80780000Y-43855476D01*
X80827619Y-43807857D01*
X80922857Y-43760238D01*
X81113333Y-43712619D01*
X81351428Y-43712619D01*
X81541904Y-43760238D01*
X81637142Y-43807857D01*
X81684761Y-43855476D01*
X81732380Y-43950714D01*
X81732380Y-44045952D01*
X81684761Y-44141190D01*
X81637142Y-44188809D01*
X81541904Y-44236428D01*
X81351428Y-44284047D01*
X81113333Y-44284047D01*
X80922857Y-44236428D01*
X80827619Y-44188809D01*
X80780000Y-44141190D01*
X80732380Y-44045952D01*
X82113333Y-43379285D02*
X82065714Y-43331666D01*
X81922857Y-43236428D01*
X81827619Y-43188809D01*
X81684761Y-43141190D01*
X81446666Y-43093571D01*
X81256190Y-43093571D01*
X81018095Y-43141190D01*
X80875238Y-43188809D01*
X80780000Y-43236428D01*
X80637142Y-43331666D01*
X80589523Y-43379285D01*
G04 #@! TO.C,M2*
X81732380Y-111545000D02*
X80732380Y-111545000D01*
X81446666Y-111211666D01*
X80732380Y-110878333D01*
X81732380Y-110878333D01*
X81732380Y-110259285D02*
X81684761Y-110354523D01*
X81637142Y-110402142D01*
X81541904Y-110449761D01*
X81256190Y-110449761D01*
X81160952Y-110402142D01*
X81113333Y-110354523D01*
X81065714Y-110259285D01*
X81065714Y-110116428D01*
X81113333Y-110021190D01*
X81160952Y-109973571D01*
X81256190Y-109925952D01*
X81541904Y-109925952D01*
X81637142Y-109973571D01*
X81684761Y-110021190D01*
X81732380Y-110116428D01*
X81732380Y-110259285D01*
X81065714Y-109640238D02*
X81065714Y-109259285D01*
X80732380Y-109497380D02*
X81589523Y-109497380D01*
X81684761Y-109449761D01*
X81732380Y-109354523D01*
X81732380Y-109259285D01*
X81732380Y-108783095D02*
X81684761Y-108878333D01*
X81637142Y-108925952D01*
X81541904Y-108973571D01*
X81256190Y-108973571D01*
X81160952Y-108925952D01*
X81113333Y-108878333D01*
X81065714Y-108783095D01*
X81065714Y-108640238D01*
X81113333Y-108545000D01*
X81160952Y-108497380D01*
X81256190Y-108449761D01*
X81541904Y-108449761D01*
X81637142Y-108497380D01*
X81684761Y-108545000D01*
X81732380Y-108640238D01*
X81732380Y-108783095D01*
X81732380Y-108021190D02*
X81065714Y-108021190D01*
X81256190Y-108021190D02*
X81160952Y-107973571D01*
X81113333Y-107925952D01*
X81065714Y-107830714D01*
X81065714Y-107735476D01*
X81827619Y-107640238D02*
X81827619Y-106878333D01*
X81684761Y-106687857D02*
X81732380Y-106545000D01*
X81732380Y-106306904D01*
X81684761Y-106211666D01*
X81637142Y-106164047D01*
X81541904Y-106116428D01*
X81446666Y-106116428D01*
X81351428Y-106164047D01*
X81303809Y-106211666D01*
X81256190Y-106306904D01*
X81208571Y-106497380D01*
X81160952Y-106592619D01*
X81113333Y-106640238D01*
X81018095Y-106687857D01*
X80922857Y-106687857D01*
X80827619Y-106640238D01*
X80780000Y-106592619D01*
X80732380Y-106497380D01*
X80732380Y-106259285D01*
X80780000Y-106116428D01*
X81732380Y-105687857D02*
X80732380Y-105687857D01*
X81732380Y-105259285D02*
X81208571Y-105259285D01*
X81113333Y-105306904D01*
X81065714Y-105402142D01*
X81065714Y-105545000D01*
X81113333Y-105640238D01*
X81160952Y-105687857D01*
X81732380Y-104640238D02*
X81684761Y-104735476D01*
X81637142Y-104783095D01*
X81541904Y-104830714D01*
X81256190Y-104830714D01*
X81160952Y-104783095D01*
X81113333Y-104735476D01*
X81065714Y-104640238D01*
X81065714Y-104497380D01*
X81113333Y-104402142D01*
X81160952Y-104354523D01*
X81256190Y-104306904D01*
X81541904Y-104306904D01*
X81637142Y-104354523D01*
X81684761Y-104402142D01*
X81732380Y-104497380D01*
X81732380Y-104640238D01*
X81065714Y-103449761D02*
X81732380Y-103449761D01*
X81065714Y-103878333D02*
X81589523Y-103878333D01*
X81684761Y-103830714D01*
X81732380Y-103735476D01*
X81732380Y-103592619D01*
X81684761Y-103497380D01*
X81637142Y-103449761D01*
X81732380Y-102830714D02*
X81684761Y-102925952D01*
X81589523Y-102973571D01*
X80732380Y-102973571D01*
X81732380Y-102021190D02*
X80732380Y-102021190D01*
X81684761Y-102021190D02*
X81732380Y-102116428D01*
X81732380Y-102306904D01*
X81684761Y-102402142D01*
X81637142Y-102449761D01*
X81541904Y-102497380D01*
X81256190Y-102497380D01*
X81160952Y-102449761D01*
X81113333Y-102402142D01*
X81065714Y-102306904D01*
X81065714Y-102116428D01*
X81113333Y-102021190D01*
X81684761Y-101164047D02*
X81732380Y-101259285D01*
X81732380Y-101449761D01*
X81684761Y-101545000D01*
X81589523Y-101592619D01*
X81208571Y-101592619D01*
X81113333Y-101545000D01*
X81065714Y-101449761D01*
X81065714Y-101259285D01*
X81113333Y-101164047D01*
X81208571Y-101116428D01*
X81303809Y-101116428D01*
X81399047Y-101592619D01*
X81732380Y-100687857D02*
X81065714Y-100687857D01*
X81256190Y-100687857D02*
X81160952Y-100640238D01*
X81113333Y-100592619D01*
X81065714Y-100497380D01*
X81065714Y-100402142D01*
G04 #@! TO.C,M1*
X81732380Y-78295000D02*
X80732380Y-78295000D01*
X81446666Y-77961666D01*
X80732380Y-77628333D01*
X81732380Y-77628333D01*
X81732380Y-77009285D02*
X81684761Y-77104523D01*
X81637142Y-77152142D01*
X81541904Y-77199761D01*
X81256190Y-77199761D01*
X81160952Y-77152142D01*
X81113333Y-77104523D01*
X81065714Y-77009285D01*
X81065714Y-76866428D01*
X81113333Y-76771190D01*
X81160952Y-76723571D01*
X81256190Y-76675952D01*
X81541904Y-76675952D01*
X81637142Y-76723571D01*
X81684761Y-76771190D01*
X81732380Y-76866428D01*
X81732380Y-77009285D01*
X81065714Y-76390238D02*
X81065714Y-76009285D01*
X80732380Y-76247380D02*
X81589523Y-76247380D01*
X81684761Y-76199761D01*
X81732380Y-76104523D01*
X81732380Y-76009285D01*
X81732380Y-75533095D02*
X81684761Y-75628333D01*
X81637142Y-75675952D01*
X81541904Y-75723571D01*
X81256190Y-75723571D01*
X81160952Y-75675952D01*
X81113333Y-75628333D01*
X81065714Y-75533095D01*
X81065714Y-75390238D01*
X81113333Y-75295000D01*
X81160952Y-75247380D01*
X81256190Y-75199761D01*
X81541904Y-75199761D01*
X81637142Y-75247380D01*
X81684761Y-75295000D01*
X81732380Y-75390238D01*
X81732380Y-75533095D01*
X81732380Y-74771190D02*
X81065714Y-74771190D01*
X81256190Y-74771190D02*
X81160952Y-74723571D01*
X81113333Y-74675952D01*
X81065714Y-74580714D01*
X81065714Y-74485476D01*
X81827619Y-74390238D02*
X81827619Y-73628333D01*
X81208571Y-73056904D02*
X81256190Y-72914047D01*
X81303809Y-72866428D01*
X81399047Y-72818809D01*
X81541904Y-72818809D01*
X81637142Y-72866428D01*
X81684761Y-72914047D01*
X81732380Y-73009285D01*
X81732380Y-73390238D01*
X80732380Y-73390238D01*
X80732380Y-73056904D01*
X80780000Y-72961666D01*
X80827619Y-72914047D01*
X80922857Y-72866428D01*
X81018095Y-72866428D01*
X81113333Y-72914047D01*
X81160952Y-72961666D01*
X81208571Y-73056904D01*
X81208571Y-73390238D01*
X81732380Y-71961666D02*
X81208571Y-71961666D01*
X81113333Y-72009285D01*
X81065714Y-72104523D01*
X81065714Y-72295000D01*
X81113333Y-72390238D01*
X81684761Y-71961666D02*
X81732380Y-72056904D01*
X81732380Y-72295000D01*
X81684761Y-72390238D01*
X81589523Y-72437857D01*
X81494285Y-72437857D01*
X81399047Y-72390238D01*
X81351428Y-72295000D01*
X81351428Y-72056904D01*
X81303809Y-71961666D01*
X81684761Y-71533095D02*
X81732380Y-71437857D01*
X81732380Y-71247380D01*
X81684761Y-71152142D01*
X81589523Y-71104523D01*
X81541904Y-71104523D01*
X81446666Y-71152142D01*
X81399047Y-71247380D01*
X81399047Y-71390238D01*
X81351428Y-71485476D01*
X81256190Y-71533095D01*
X81208571Y-71533095D01*
X81113333Y-71485476D01*
X81065714Y-71390238D01*
X81065714Y-71247380D01*
X81113333Y-71152142D01*
X81684761Y-70295000D02*
X81732380Y-70390238D01*
X81732380Y-70580714D01*
X81684761Y-70675952D01*
X81589523Y-70723571D01*
X81208571Y-70723571D01*
X81113333Y-70675952D01*
X81065714Y-70580714D01*
X81065714Y-70390238D01*
X81113333Y-70295000D01*
X81208571Y-70247380D01*
X81303809Y-70247380D01*
X81399047Y-70723571D01*
G04 #@! TO.C,Q1*
X113644761Y-55102619D02*
X113549523Y-55055000D01*
X113454285Y-54959761D01*
X113311428Y-54816904D01*
X113216190Y-54769285D01*
X113120952Y-54769285D01*
X113168571Y-55007380D02*
X113073333Y-54959761D01*
X112978095Y-54864523D01*
X112930476Y-54674047D01*
X112930476Y-54340714D01*
X112978095Y-54150238D01*
X113073333Y-54055000D01*
X113168571Y-54007380D01*
X113359047Y-54007380D01*
X113454285Y-54055000D01*
X113549523Y-54150238D01*
X113597142Y-54340714D01*
X113597142Y-54674047D01*
X113549523Y-54864523D01*
X113454285Y-54959761D01*
X113359047Y-55007380D01*
X113168571Y-55007380D01*
X114549523Y-55007380D02*
X113978095Y-55007380D01*
X114263809Y-55007380D02*
X114263809Y-54007380D01*
X114168571Y-54150238D01*
X114073333Y-54245476D01*
X113978095Y-54293095D01*
G04 #@! TO.C,Q2*
X117379761Y-63992619D02*
X117284523Y-63945000D01*
X117189285Y-63849761D01*
X117046428Y-63706904D01*
X116951190Y-63659285D01*
X116855952Y-63659285D01*
X116903571Y-63897380D02*
X116808333Y-63849761D01*
X116713095Y-63754523D01*
X116665476Y-63564047D01*
X116665476Y-63230714D01*
X116713095Y-63040238D01*
X116808333Y-62945000D01*
X116903571Y-62897380D01*
X117094047Y-62897380D01*
X117189285Y-62945000D01*
X117284523Y-63040238D01*
X117332142Y-63230714D01*
X117332142Y-63564047D01*
X117284523Y-63754523D01*
X117189285Y-63849761D01*
X117094047Y-63897380D01*
X116903571Y-63897380D01*
X117713095Y-62992619D02*
X117760714Y-62945000D01*
X117855952Y-62897380D01*
X118094047Y-62897380D01*
X118189285Y-62945000D01*
X118236904Y-62992619D01*
X118284523Y-63087857D01*
X118284523Y-63183095D01*
X118236904Y-63325952D01*
X117665476Y-63897380D01*
X118284523Y-63897380D01*
G04 #@! TO.C,Q3*
X126879761Y-55002619D02*
X126784523Y-54955000D01*
X126689285Y-54859761D01*
X126546428Y-54716904D01*
X126451190Y-54669285D01*
X126355952Y-54669285D01*
X126403571Y-54907380D02*
X126308333Y-54859761D01*
X126213095Y-54764523D01*
X126165476Y-54574047D01*
X126165476Y-54240714D01*
X126213095Y-54050238D01*
X126308333Y-53955000D01*
X126403571Y-53907380D01*
X126594047Y-53907380D01*
X126689285Y-53955000D01*
X126784523Y-54050238D01*
X126832142Y-54240714D01*
X126832142Y-54574047D01*
X126784523Y-54764523D01*
X126689285Y-54859761D01*
X126594047Y-54907380D01*
X126403571Y-54907380D01*
X127165476Y-53907380D02*
X127784523Y-53907380D01*
X127451190Y-54288333D01*
X127594047Y-54288333D01*
X127689285Y-54335952D01*
X127736904Y-54383571D01*
X127784523Y-54478809D01*
X127784523Y-54716904D01*
X127736904Y-54812142D01*
X127689285Y-54859761D01*
X127594047Y-54907380D01*
X127308333Y-54907380D01*
X127213095Y-54859761D01*
X127165476Y-54812142D01*
G04 #@! TO.C,Q4*
X130714761Y-63992619D02*
X130619523Y-63945000D01*
X130524285Y-63849761D01*
X130381428Y-63706904D01*
X130286190Y-63659285D01*
X130190952Y-63659285D01*
X130238571Y-63897380D02*
X130143333Y-63849761D01*
X130048095Y-63754523D01*
X130000476Y-63564047D01*
X130000476Y-63230714D01*
X130048095Y-63040238D01*
X130143333Y-62945000D01*
X130238571Y-62897380D01*
X130429047Y-62897380D01*
X130524285Y-62945000D01*
X130619523Y-63040238D01*
X130667142Y-63230714D01*
X130667142Y-63564047D01*
X130619523Y-63754523D01*
X130524285Y-63849761D01*
X130429047Y-63897380D01*
X130238571Y-63897380D01*
X131524285Y-63230714D02*
X131524285Y-63897380D01*
X131286190Y-62849761D02*
X131048095Y-63564047D01*
X131667142Y-63564047D01*
G04 #@! TO.C,Q5*
X88879761Y-55102619D02*
X88784523Y-55055000D01*
X88689285Y-54959761D01*
X88546428Y-54816904D01*
X88451190Y-54769285D01*
X88355952Y-54769285D01*
X88403571Y-55007380D02*
X88308333Y-54959761D01*
X88213095Y-54864523D01*
X88165476Y-54674047D01*
X88165476Y-54340714D01*
X88213095Y-54150238D01*
X88308333Y-54055000D01*
X88403571Y-54007380D01*
X88594047Y-54007380D01*
X88689285Y-54055000D01*
X88784523Y-54150238D01*
X88832142Y-54340714D01*
X88832142Y-54674047D01*
X88784523Y-54864523D01*
X88689285Y-54959761D01*
X88594047Y-55007380D01*
X88403571Y-55007380D01*
X89736904Y-54007380D02*
X89260714Y-54007380D01*
X89213095Y-54483571D01*
X89260714Y-54435952D01*
X89355952Y-54388333D01*
X89594047Y-54388333D01*
X89689285Y-54435952D01*
X89736904Y-54483571D01*
X89784523Y-54578809D01*
X89784523Y-54816904D01*
X89736904Y-54912142D01*
X89689285Y-54959761D01*
X89594047Y-55007380D01*
X89355952Y-55007380D01*
X89260714Y-54959761D01*
X89213095Y-54912142D01*
G04 #@! TO.C,Q6*
X91344761Y-63992619D02*
X91249523Y-63945000D01*
X91154285Y-63849761D01*
X91011428Y-63706904D01*
X90916190Y-63659285D01*
X90820952Y-63659285D01*
X90868571Y-63897380D02*
X90773333Y-63849761D01*
X90678095Y-63754523D01*
X90630476Y-63564047D01*
X90630476Y-63230714D01*
X90678095Y-63040238D01*
X90773333Y-62945000D01*
X90868571Y-62897380D01*
X91059047Y-62897380D01*
X91154285Y-62945000D01*
X91249523Y-63040238D01*
X91297142Y-63230714D01*
X91297142Y-63564047D01*
X91249523Y-63754523D01*
X91154285Y-63849761D01*
X91059047Y-63897380D01*
X90868571Y-63897380D01*
X92154285Y-62897380D02*
X91963809Y-62897380D01*
X91868571Y-62945000D01*
X91820952Y-62992619D01*
X91725714Y-63135476D01*
X91678095Y-63325952D01*
X91678095Y-63706904D01*
X91725714Y-63802142D01*
X91773333Y-63849761D01*
X91868571Y-63897380D01*
X92059047Y-63897380D01*
X92154285Y-63849761D01*
X92201904Y-63802142D01*
X92249523Y-63706904D01*
X92249523Y-63468809D01*
X92201904Y-63373571D01*
X92154285Y-63325952D01*
X92059047Y-63278333D01*
X91868571Y-63278333D01*
X91773333Y-63325952D01*
X91725714Y-63373571D01*
X91678095Y-63468809D01*
G04 #@! TO.C,Q7*
X100944761Y-55102619D02*
X100849523Y-55055000D01*
X100754285Y-54959761D01*
X100611428Y-54816904D01*
X100516190Y-54769285D01*
X100420952Y-54769285D01*
X100468571Y-55007380D02*
X100373333Y-54959761D01*
X100278095Y-54864523D01*
X100230476Y-54674047D01*
X100230476Y-54340714D01*
X100278095Y-54150238D01*
X100373333Y-54055000D01*
X100468571Y-54007380D01*
X100659047Y-54007380D01*
X100754285Y-54055000D01*
X100849523Y-54150238D01*
X100897142Y-54340714D01*
X100897142Y-54674047D01*
X100849523Y-54864523D01*
X100754285Y-54959761D01*
X100659047Y-55007380D01*
X100468571Y-55007380D01*
X101230476Y-54007380D02*
X101897142Y-54007380D01*
X101468571Y-55007380D01*
G04 #@! TO.C,Q8*
X104044761Y-63992619D02*
X103949523Y-63945000D01*
X103854285Y-63849761D01*
X103711428Y-63706904D01*
X103616190Y-63659285D01*
X103520952Y-63659285D01*
X103568571Y-63897380D02*
X103473333Y-63849761D01*
X103378095Y-63754523D01*
X103330476Y-63564047D01*
X103330476Y-63230714D01*
X103378095Y-63040238D01*
X103473333Y-62945000D01*
X103568571Y-62897380D01*
X103759047Y-62897380D01*
X103854285Y-62945000D01*
X103949523Y-63040238D01*
X103997142Y-63230714D01*
X103997142Y-63564047D01*
X103949523Y-63754523D01*
X103854285Y-63849761D01*
X103759047Y-63897380D01*
X103568571Y-63897380D01*
X104568571Y-63325952D02*
X104473333Y-63278333D01*
X104425714Y-63230714D01*
X104378095Y-63135476D01*
X104378095Y-63087857D01*
X104425714Y-62992619D01*
X104473333Y-62945000D01*
X104568571Y-62897380D01*
X104759047Y-62897380D01*
X104854285Y-62945000D01*
X104901904Y-62992619D01*
X104949523Y-63087857D01*
X104949523Y-63135476D01*
X104901904Y-63230714D01*
X104854285Y-63278333D01*
X104759047Y-63325952D01*
X104568571Y-63325952D01*
X104473333Y-63373571D01*
X104425714Y-63421190D01*
X104378095Y-63516428D01*
X104378095Y-63706904D01*
X104425714Y-63802142D01*
X104473333Y-63849761D01*
X104568571Y-63897380D01*
X104759047Y-63897380D01*
X104854285Y-63849761D01*
X104901904Y-63802142D01*
X104949523Y-63706904D01*
X104949523Y-63516428D01*
X104901904Y-63421190D01*
X104854285Y-63373571D01*
X104759047Y-63325952D01*
G04 #@! TO.C,Q10*
X116903571Y-130667619D02*
X116808333Y-130620000D01*
X116713095Y-130524761D01*
X116570238Y-130381904D01*
X116475000Y-130334285D01*
X116379761Y-130334285D01*
X116427380Y-130572380D02*
X116332142Y-130524761D01*
X116236904Y-130429523D01*
X116189285Y-130239047D01*
X116189285Y-129905714D01*
X116236904Y-129715238D01*
X116332142Y-129620000D01*
X116427380Y-129572380D01*
X116617857Y-129572380D01*
X116713095Y-129620000D01*
X116808333Y-129715238D01*
X116855952Y-129905714D01*
X116855952Y-130239047D01*
X116808333Y-130429523D01*
X116713095Y-130524761D01*
X116617857Y-130572380D01*
X116427380Y-130572380D01*
X117808333Y-130572380D02*
X117236904Y-130572380D01*
X117522619Y-130572380D02*
X117522619Y-129572380D01*
X117427380Y-129715238D01*
X117332142Y-129810476D01*
X117236904Y-129858095D01*
X118427380Y-129572380D02*
X118522619Y-129572380D01*
X118617857Y-129620000D01*
X118665476Y-129667619D01*
X118713095Y-129762857D01*
X118760714Y-129953333D01*
X118760714Y-130191428D01*
X118713095Y-130381904D01*
X118665476Y-130477142D01*
X118617857Y-130524761D01*
X118522619Y-130572380D01*
X118427380Y-130572380D01*
X118332142Y-130524761D01*
X118284523Y-130477142D01*
X118236904Y-130381904D01*
X118189285Y-130191428D01*
X118189285Y-129953333D01*
X118236904Y-129762857D01*
X118284523Y-129667619D01*
X118332142Y-129620000D01*
X118427380Y-129572380D01*
G04 #@! TO.C,Q11*
X126403571Y-121677619D02*
X126308333Y-121630000D01*
X126213095Y-121534761D01*
X126070238Y-121391904D01*
X125975000Y-121344285D01*
X125879761Y-121344285D01*
X125927380Y-121582380D02*
X125832142Y-121534761D01*
X125736904Y-121439523D01*
X125689285Y-121249047D01*
X125689285Y-120915714D01*
X125736904Y-120725238D01*
X125832142Y-120630000D01*
X125927380Y-120582380D01*
X126117857Y-120582380D01*
X126213095Y-120630000D01*
X126308333Y-120725238D01*
X126355952Y-120915714D01*
X126355952Y-121249047D01*
X126308333Y-121439523D01*
X126213095Y-121534761D01*
X126117857Y-121582380D01*
X125927380Y-121582380D01*
X127308333Y-121582380D02*
X126736904Y-121582380D01*
X127022619Y-121582380D02*
X127022619Y-120582380D01*
X126927380Y-120725238D01*
X126832142Y-120820476D01*
X126736904Y-120868095D01*
X128260714Y-121582380D02*
X127689285Y-121582380D01*
X127975000Y-121582380D02*
X127975000Y-120582380D01*
X127879761Y-120725238D01*
X127784523Y-120820476D01*
X127689285Y-120868095D01*
G04 #@! TO.C,Q12*
X130213571Y-130642619D02*
X130118333Y-130595000D01*
X130023095Y-130499761D01*
X129880238Y-130356904D01*
X129785000Y-130309285D01*
X129689761Y-130309285D01*
X129737380Y-130547380D02*
X129642142Y-130499761D01*
X129546904Y-130404523D01*
X129499285Y-130214047D01*
X129499285Y-129880714D01*
X129546904Y-129690238D01*
X129642142Y-129595000D01*
X129737380Y-129547380D01*
X129927857Y-129547380D01*
X130023095Y-129595000D01*
X130118333Y-129690238D01*
X130165952Y-129880714D01*
X130165952Y-130214047D01*
X130118333Y-130404523D01*
X130023095Y-130499761D01*
X129927857Y-130547380D01*
X129737380Y-130547380D01*
X131118333Y-130547380D02*
X130546904Y-130547380D01*
X130832619Y-130547380D02*
X130832619Y-129547380D01*
X130737380Y-129690238D01*
X130642142Y-129785476D01*
X130546904Y-129833095D01*
X131499285Y-129642619D02*
X131546904Y-129595000D01*
X131642142Y-129547380D01*
X131880238Y-129547380D01*
X131975476Y-129595000D01*
X132023095Y-129642619D01*
X132070714Y-129737857D01*
X132070714Y-129833095D01*
X132023095Y-129975952D01*
X131451666Y-130547380D01*
X132070714Y-130547380D01*
G04 #@! TO.C,Q13*
X88403571Y-121777619D02*
X88308333Y-121730000D01*
X88213095Y-121634761D01*
X88070238Y-121491904D01*
X87975000Y-121444285D01*
X87879761Y-121444285D01*
X87927380Y-121682380D02*
X87832142Y-121634761D01*
X87736904Y-121539523D01*
X87689285Y-121349047D01*
X87689285Y-121015714D01*
X87736904Y-120825238D01*
X87832142Y-120730000D01*
X87927380Y-120682380D01*
X88117857Y-120682380D01*
X88213095Y-120730000D01*
X88308333Y-120825238D01*
X88355952Y-121015714D01*
X88355952Y-121349047D01*
X88308333Y-121539523D01*
X88213095Y-121634761D01*
X88117857Y-121682380D01*
X87927380Y-121682380D01*
X89308333Y-121682380D02*
X88736904Y-121682380D01*
X89022619Y-121682380D02*
X89022619Y-120682380D01*
X88927380Y-120825238D01*
X88832142Y-120920476D01*
X88736904Y-120968095D01*
X89641666Y-120682380D02*
X90260714Y-120682380D01*
X89927380Y-121063333D01*
X90070238Y-121063333D01*
X90165476Y-121110952D01*
X90213095Y-121158571D01*
X90260714Y-121253809D01*
X90260714Y-121491904D01*
X90213095Y-121587142D01*
X90165476Y-121634761D01*
X90070238Y-121682380D01*
X89784523Y-121682380D01*
X89689285Y-121634761D01*
X89641666Y-121587142D01*
G04 #@! TO.C,Q14*
X90868571Y-130667619D02*
X90773333Y-130620000D01*
X90678095Y-130524761D01*
X90535238Y-130381904D01*
X90440000Y-130334285D01*
X90344761Y-130334285D01*
X90392380Y-130572380D02*
X90297142Y-130524761D01*
X90201904Y-130429523D01*
X90154285Y-130239047D01*
X90154285Y-129905714D01*
X90201904Y-129715238D01*
X90297142Y-129620000D01*
X90392380Y-129572380D01*
X90582857Y-129572380D01*
X90678095Y-129620000D01*
X90773333Y-129715238D01*
X90820952Y-129905714D01*
X90820952Y-130239047D01*
X90773333Y-130429523D01*
X90678095Y-130524761D01*
X90582857Y-130572380D01*
X90392380Y-130572380D01*
X91773333Y-130572380D02*
X91201904Y-130572380D01*
X91487619Y-130572380D02*
X91487619Y-129572380D01*
X91392380Y-129715238D01*
X91297142Y-129810476D01*
X91201904Y-129858095D01*
X92630476Y-129905714D02*
X92630476Y-130572380D01*
X92392380Y-129524761D02*
X92154285Y-130239047D01*
X92773333Y-130239047D01*
G04 #@! TO.C,Q16*
X103568571Y-130667619D02*
X103473333Y-130620000D01*
X103378095Y-130524761D01*
X103235238Y-130381904D01*
X103140000Y-130334285D01*
X103044761Y-130334285D01*
X103092380Y-130572380D02*
X102997142Y-130524761D01*
X102901904Y-130429523D01*
X102854285Y-130239047D01*
X102854285Y-129905714D01*
X102901904Y-129715238D01*
X102997142Y-129620000D01*
X103092380Y-129572380D01*
X103282857Y-129572380D01*
X103378095Y-129620000D01*
X103473333Y-129715238D01*
X103520952Y-129905714D01*
X103520952Y-130239047D01*
X103473333Y-130429523D01*
X103378095Y-130524761D01*
X103282857Y-130572380D01*
X103092380Y-130572380D01*
X104473333Y-130572380D02*
X103901904Y-130572380D01*
X104187619Y-130572380D02*
X104187619Y-129572380D01*
X104092380Y-129715238D01*
X103997142Y-129810476D01*
X103901904Y-129858095D01*
X105330476Y-129572380D02*
X105140000Y-129572380D01*
X105044761Y-129620000D01*
X104997142Y-129667619D01*
X104901904Y-129810476D01*
X104854285Y-130000952D01*
X104854285Y-130381904D01*
X104901904Y-130477142D01*
X104949523Y-130524761D01*
X105044761Y-130572380D01*
X105235238Y-130572380D01*
X105330476Y-130524761D01*
X105378095Y-130477142D01*
X105425714Y-130381904D01*
X105425714Y-130143809D01*
X105378095Y-130048571D01*
X105330476Y-130000952D01*
X105235238Y-129953333D01*
X105044761Y-129953333D01*
X104949523Y-130000952D01*
X104901904Y-130048571D01*
X104854285Y-130143809D01*
G04 #@! TO.C,Q17*
X113168571Y-86217619D02*
X113073333Y-86170000D01*
X112978095Y-86074761D01*
X112835238Y-85931904D01*
X112740000Y-85884285D01*
X112644761Y-85884285D01*
X112692380Y-86122380D02*
X112597142Y-86074761D01*
X112501904Y-85979523D01*
X112454285Y-85789047D01*
X112454285Y-85455714D01*
X112501904Y-85265238D01*
X112597142Y-85170000D01*
X112692380Y-85122380D01*
X112882857Y-85122380D01*
X112978095Y-85170000D01*
X113073333Y-85265238D01*
X113120952Y-85455714D01*
X113120952Y-85789047D01*
X113073333Y-85979523D01*
X112978095Y-86074761D01*
X112882857Y-86122380D01*
X112692380Y-86122380D01*
X114073333Y-86122380D02*
X113501904Y-86122380D01*
X113787619Y-86122380D02*
X113787619Y-85122380D01*
X113692380Y-85265238D01*
X113597142Y-85360476D01*
X113501904Y-85408095D01*
X114406666Y-85122380D02*
X115073333Y-85122380D01*
X114644761Y-86122380D01*
G04 #@! TO.C,Q18*
X116903571Y-95107619D02*
X116808333Y-95060000D01*
X116713095Y-94964761D01*
X116570238Y-94821904D01*
X116475000Y-94774285D01*
X116379761Y-94774285D01*
X116427380Y-95012380D02*
X116332142Y-94964761D01*
X116236904Y-94869523D01*
X116189285Y-94679047D01*
X116189285Y-94345714D01*
X116236904Y-94155238D01*
X116332142Y-94060000D01*
X116427380Y-94012380D01*
X116617857Y-94012380D01*
X116713095Y-94060000D01*
X116808333Y-94155238D01*
X116855952Y-94345714D01*
X116855952Y-94679047D01*
X116808333Y-94869523D01*
X116713095Y-94964761D01*
X116617857Y-95012380D01*
X116427380Y-95012380D01*
X117808333Y-95012380D02*
X117236904Y-95012380D01*
X117522619Y-95012380D02*
X117522619Y-94012380D01*
X117427380Y-94155238D01*
X117332142Y-94250476D01*
X117236904Y-94298095D01*
X118379761Y-94440952D02*
X118284523Y-94393333D01*
X118236904Y-94345714D01*
X118189285Y-94250476D01*
X118189285Y-94202857D01*
X118236904Y-94107619D01*
X118284523Y-94060000D01*
X118379761Y-94012380D01*
X118570238Y-94012380D01*
X118665476Y-94060000D01*
X118713095Y-94107619D01*
X118760714Y-94202857D01*
X118760714Y-94250476D01*
X118713095Y-94345714D01*
X118665476Y-94393333D01*
X118570238Y-94440952D01*
X118379761Y-94440952D01*
X118284523Y-94488571D01*
X118236904Y-94536190D01*
X118189285Y-94631428D01*
X118189285Y-94821904D01*
X118236904Y-94917142D01*
X118284523Y-94964761D01*
X118379761Y-95012380D01*
X118570238Y-95012380D01*
X118665476Y-94964761D01*
X118713095Y-94917142D01*
X118760714Y-94821904D01*
X118760714Y-94631428D01*
X118713095Y-94536190D01*
X118665476Y-94488571D01*
X118570238Y-94440952D01*
G04 #@! TO.C,Q19*
X126503571Y-86217619D02*
X126408333Y-86170000D01*
X126313095Y-86074761D01*
X126170238Y-85931904D01*
X126075000Y-85884285D01*
X125979761Y-85884285D01*
X126027380Y-86122380D02*
X125932142Y-86074761D01*
X125836904Y-85979523D01*
X125789285Y-85789047D01*
X125789285Y-85455714D01*
X125836904Y-85265238D01*
X125932142Y-85170000D01*
X126027380Y-85122380D01*
X126217857Y-85122380D01*
X126313095Y-85170000D01*
X126408333Y-85265238D01*
X126455952Y-85455714D01*
X126455952Y-85789047D01*
X126408333Y-85979523D01*
X126313095Y-86074761D01*
X126217857Y-86122380D01*
X126027380Y-86122380D01*
X127408333Y-86122380D02*
X126836904Y-86122380D01*
X127122619Y-86122380D02*
X127122619Y-85122380D01*
X127027380Y-85265238D01*
X126932142Y-85360476D01*
X126836904Y-85408095D01*
X127884523Y-86122380D02*
X128075000Y-86122380D01*
X128170238Y-86074761D01*
X128217857Y-86027142D01*
X128313095Y-85884285D01*
X128360714Y-85693809D01*
X128360714Y-85312857D01*
X128313095Y-85217619D01*
X128265476Y-85170000D01*
X128170238Y-85122380D01*
X127979761Y-85122380D01*
X127884523Y-85170000D01*
X127836904Y-85217619D01*
X127789285Y-85312857D01*
X127789285Y-85550952D01*
X127836904Y-85646190D01*
X127884523Y-85693809D01*
X127979761Y-85741428D01*
X128170238Y-85741428D01*
X128265476Y-85693809D01*
X128313095Y-85646190D01*
X128360714Y-85550952D01*
G04 #@! TO.C,Q20*
X130238571Y-95107619D02*
X130143333Y-95060000D01*
X130048095Y-94964761D01*
X129905238Y-94821904D01*
X129810000Y-94774285D01*
X129714761Y-94774285D01*
X129762380Y-95012380D02*
X129667142Y-94964761D01*
X129571904Y-94869523D01*
X129524285Y-94679047D01*
X129524285Y-94345714D01*
X129571904Y-94155238D01*
X129667142Y-94060000D01*
X129762380Y-94012380D01*
X129952857Y-94012380D01*
X130048095Y-94060000D01*
X130143333Y-94155238D01*
X130190952Y-94345714D01*
X130190952Y-94679047D01*
X130143333Y-94869523D01*
X130048095Y-94964761D01*
X129952857Y-95012380D01*
X129762380Y-95012380D01*
X130571904Y-94107619D02*
X130619523Y-94060000D01*
X130714761Y-94012380D01*
X130952857Y-94012380D01*
X131048095Y-94060000D01*
X131095714Y-94107619D01*
X131143333Y-94202857D01*
X131143333Y-94298095D01*
X131095714Y-94440952D01*
X130524285Y-95012380D01*
X131143333Y-95012380D01*
X131762380Y-94012380D02*
X131857619Y-94012380D01*
X131952857Y-94060000D01*
X132000476Y-94107619D01*
X132048095Y-94202857D01*
X132095714Y-94393333D01*
X132095714Y-94631428D01*
X132048095Y-94821904D01*
X132000476Y-94917142D01*
X131952857Y-94964761D01*
X131857619Y-95012380D01*
X131762380Y-95012380D01*
X131667142Y-94964761D01*
X131619523Y-94917142D01*
X131571904Y-94821904D01*
X131524285Y-94631428D01*
X131524285Y-94393333D01*
X131571904Y-94202857D01*
X131619523Y-94107619D01*
X131667142Y-94060000D01*
X131762380Y-94012380D01*
G04 #@! TO.C,Q21*
X88403571Y-86217619D02*
X88308333Y-86170000D01*
X88213095Y-86074761D01*
X88070238Y-85931904D01*
X87975000Y-85884285D01*
X87879761Y-85884285D01*
X87927380Y-86122380D02*
X87832142Y-86074761D01*
X87736904Y-85979523D01*
X87689285Y-85789047D01*
X87689285Y-85455714D01*
X87736904Y-85265238D01*
X87832142Y-85170000D01*
X87927380Y-85122380D01*
X88117857Y-85122380D01*
X88213095Y-85170000D01*
X88308333Y-85265238D01*
X88355952Y-85455714D01*
X88355952Y-85789047D01*
X88308333Y-85979523D01*
X88213095Y-86074761D01*
X88117857Y-86122380D01*
X87927380Y-86122380D01*
X88736904Y-85217619D02*
X88784523Y-85170000D01*
X88879761Y-85122380D01*
X89117857Y-85122380D01*
X89213095Y-85170000D01*
X89260714Y-85217619D01*
X89308333Y-85312857D01*
X89308333Y-85408095D01*
X89260714Y-85550952D01*
X88689285Y-86122380D01*
X89308333Y-86122380D01*
X90260714Y-86122380D02*
X89689285Y-86122380D01*
X89975000Y-86122380D02*
X89975000Y-85122380D01*
X89879761Y-85265238D01*
X89784523Y-85360476D01*
X89689285Y-85408095D01*
G04 #@! TO.C,Q22*
X90868571Y-95107619D02*
X90773333Y-95060000D01*
X90678095Y-94964761D01*
X90535238Y-94821904D01*
X90440000Y-94774285D01*
X90344761Y-94774285D01*
X90392380Y-95012380D02*
X90297142Y-94964761D01*
X90201904Y-94869523D01*
X90154285Y-94679047D01*
X90154285Y-94345714D01*
X90201904Y-94155238D01*
X90297142Y-94060000D01*
X90392380Y-94012380D01*
X90582857Y-94012380D01*
X90678095Y-94060000D01*
X90773333Y-94155238D01*
X90820952Y-94345714D01*
X90820952Y-94679047D01*
X90773333Y-94869523D01*
X90678095Y-94964761D01*
X90582857Y-95012380D01*
X90392380Y-95012380D01*
X91201904Y-94107619D02*
X91249523Y-94060000D01*
X91344761Y-94012380D01*
X91582857Y-94012380D01*
X91678095Y-94060000D01*
X91725714Y-94107619D01*
X91773333Y-94202857D01*
X91773333Y-94298095D01*
X91725714Y-94440952D01*
X91154285Y-95012380D01*
X91773333Y-95012380D01*
X92154285Y-94107619D02*
X92201904Y-94060000D01*
X92297142Y-94012380D01*
X92535238Y-94012380D01*
X92630476Y-94060000D01*
X92678095Y-94107619D01*
X92725714Y-94202857D01*
X92725714Y-94298095D01*
X92678095Y-94440952D01*
X92106666Y-95012380D01*
X92725714Y-95012380D01*
G04 #@! TO.C,Q23*
X100468571Y-86217619D02*
X100373333Y-86170000D01*
X100278095Y-86074761D01*
X100135238Y-85931904D01*
X100040000Y-85884285D01*
X99944761Y-85884285D01*
X99992380Y-86122380D02*
X99897142Y-86074761D01*
X99801904Y-85979523D01*
X99754285Y-85789047D01*
X99754285Y-85455714D01*
X99801904Y-85265238D01*
X99897142Y-85170000D01*
X99992380Y-85122380D01*
X100182857Y-85122380D01*
X100278095Y-85170000D01*
X100373333Y-85265238D01*
X100420952Y-85455714D01*
X100420952Y-85789047D01*
X100373333Y-85979523D01*
X100278095Y-86074761D01*
X100182857Y-86122380D01*
X99992380Y-86122380D01*
X100801904Y-85217619D02*
X100849523Y-85170000D01*
X100944761Y-85122380D01*
X101182857Y-85122380D01*
X101278095Y-85170000D01*
X101325714Y-85217619D01*
X101373333Y-85312857D01*
X101373333Y-85408095D01*
X101325714Y-85550952D01*
X100754285Y-86122380D01*
X101373333Y-86122380D01*
X101706666Y-85122380D02*
X102325714Y-85122380D01*
X101992380Y-85503333D01*
X102135238Y-85503333D01*
X102230476Y-85550952D01*
X102278095Y-85598571D01*
X102325714Y-85693809D01*
X102325714Y-85931904D01*
X102278095Y-86027142D01*
X102230476Y-86074761D01*
X102135238Y-86122380D01*
X101849523Y-86122380D01*
X101754285Y-86074761D01*
X101706666Y-86027142D01*
G04 #@! TO.C,Q24*
X103568571Y-95107619D02*
X103473333Y-95060000D01*
X103378095Y-94964761D01*
X103235238Y-94821904D01*
X103140000Y-94774285D01*
X103044761Y-94774285D01*
X103092380Y-95012380D02*
X102997142Y-94964761D01*
X102901904Y-94869523D01*
X102854285Y-94679047D01*
X102854285Y-94345714D01*
X102901904Y-94155238D01*
X102997142Y-94060000D01*
X103092380Y-94012380D01*
X103282857Y-94012380D01*
X103378095Y-94060000D01*
X103473333Y-94155238D01*
X103520952Y-94345714D01*
X103520952Y-94679047D01*
X103473333Y-94869523D01*
X103378095Y-94964761D01*
X103282857Y-95012380D01*
X103092380Y-95012380D01*
X103901904Y-94107619D02*
X103949523Y-94060000D01*
X104044761Y-94012380D01*
X104282857Y-94012380D01*
X104378095Y-94060000D01*
X104425714Y-94107619D01*
X104473333Y-94202857D01*
X104473333Y-94298095D01*
X104425714Y-94440952D01*
X103854285Y-95012380D01*
X104473333Y-95012380D01*
X105330476Y-94345714D02*
X105330476Y-95012380D01*
X105092380Y-93964761D02*
X104854285Y-94679047D01*
X105473333Y-94679047D01*
G04 #@! TO.C,Q25*
X148526571Y-123229619D02*
X148431333Y-123182000D01*
X148336095Y-123086761D01*
X148193238Y-122943904D01*
X148098000Y-122896285D01*
X148002761Y-122896285D01*
X148050380Y-123134380D02*
X147955142Y-123086761D01*
X147859904Y-122991523D01*
X147812285Y-122801047D01*
X147812285Y-122467714D01*
X147859904Y-122277238D01*
X147955142Y-122182000D01*
X148050380Y-122134380D01*
X148240857Y-122134380D01*
X148336095Y-122182000D01*
X148431333Y-122277238D01*
X148478952Y-122467714D01*
X148478952Y-122801047D01*
X148431333Y-122991523D01*
X148336095Y-123086761D01*
X148240857Y-123134380D01*
X148050380Y-123134380D01*
X148859904Y-122229619D02*
X148907523Y-122182000D01*
X149002761Y-122134380D01*
X149240857Y-122134380D01*
X149336095Y-122182000D01*
X149383714Y-122229619D01*
X149431333Y-122324857D01*
X149431333Y-122420095D01*
X149383714Y-122562952D01*
X148812285Y-123134380D01*
X149431333Y-123134380D01*
X150336095Y-122134380D02*
X149859904Y-122134380D01*
X149812285Y-122610571D01*
X149859904Y-122562952D01*
X149955142Y-122515333D01*
X150193238Y-122515333D01*
X150288476Y-122562952D01*
X150336095Y-122610571D01*
X150383714Y-122705809D01*
X150383714Y-122943904D01*
X150336095Y-123039142D01*
X150288476Y-123086761D01*
X150193238Y-123134380D01*
X149955142Y-123134380D01*
X149859904Y-123086761D01*
X149812285Y-123039142D01*
D14*
X148296428Y-125059285D02*
X148367857Y-125083095D01*
X148391666Y-125106904D01*
X148415476Y-125154523D01*
X148415476Y-125225952D01*
X148391666Y-125273571D01*
X148367857Y-125297380D01*
X148320238Y-125321190D01*
X148129761Y-125321190D01*
X148129761Y-124821190D01*
X148296428Y-124821190D01*
X148344047Y-124845000D01*
X148367857Y-124868809D01*
X148391666Y-124916428D01*
X148391666Y-124964047D01*
X148367857Y-125011666D01*
X148344047Y-125035476D01*
X148296428Y-125059285D01*
X148129761Y-125059285D01*
X148915476Y-125273571D02*
X148891666Y-125297380D01*
X148820238Y-125321190D01*
X148772619Y-125321190D01*
X148701190Y-125297380D01*
X148653571Y-125249761D01*
X148629761Y-125202142D01*
X148605952Y-125106904D01*
X148605952Y-125035476D01*
X148629761Y-124940238D01*
X148653571Y-124892619D01*
X148701190Y-124845000D01*
X148772619Y-124821190D01*
X148820238Y-124821190D01*
X148891666Y-124845000D01*
X148915476Y-124868809D01*
X149201190Y-125035476D02*
X149153571Y-125011666D01*
X149129761Y-124987857D01*
X149105952Y-124940238D01*
X149105952Y-124916428D01*
X149129761Y-124868809D01*
X149153571Y-124845000D01*
X149201190Y-124821190D01*
X149296428Y-124821190D01*
X149344047Y-124845000D01*
X149367857Y-124868809D01*
X149391666Y-124916428D01*
X149391666Y-124940238D01*
X149367857Y-124987857D01*
X149344047Y-125011666D01*
X149296428Y-125035476D01*
X149201190Y-125035476D01*
X149153571Y-125059285D01*
X149129761Y-125083095D01*
X149105952Y-125130714D01*
X149105952Y-125225952D01*
X149129761Y-125273571D01*
X149153571Y-125297380D01*
X149201190Y-125321190D01*
X149296428Y-125321190D01*
X149344047Y-125297380D01*
X149367857Y-125273571D01*
X149391666Y-125225952D01*
X149391666Y-125130714D01*
X149367857Y-125083095D01*
X149344047Y-125059285D01*
X149296428Y-125035476D01*
X149867857Y-125321190D02*
X149582142Y-125321190D01*
X149725000Y-125321190D02*
X149725000Y-124821190D01*
X149677380Y-124892619D01*
X149629761Y-124940238D01*
X149582142Y-124964047D01*
X150034523Y-124821190D02*
X150367857Y-124821190D01*
X150153571Y-125321190D01*
G04 #@! TO.C,R2*
D12*
X152995333Y-132532380D02*
X152662000Y-132056190D01*
X152423904Y-132532380D02*
X152423904Y-131532380D01*
X152804857Y-131532380D01*
X152900095Y-131580000D01*
X152947714Y-131627619D01*
X152995333Y-131722857D01*
X152995333Y-131865714D01*
X152947714Y-131960952D01*
X152900095Y-132008571D01*
X152804857Y-132056190D01*
X152423904Y-132056190D01*
X153376285Y-131627619D02*
X153423904Y-131580000D01*
X153519142Y-131532380D01*
X153757238Y-131532380D01*
X153852476Y-131580000D01*
X153900095Y-131627619D01*
X153947714Y-131722857D01*
X153947714Y-131818095D01*
X153900095Y-131960952D01*
X153328666Y-132532380D01*
X153947714Y-132532380D01*
D17*
X151310952Y-132318095D02*
X151310952Y-132546666D01*
X151310952Y-132432380D02*
X150910952Y-132432380D01*
X150968095Y-132470476D01*
X151006190Y-132508571D01*
X151025238Y-132546666D01*
X150910952Y-132070476D02*
X150910952Y-132032380D01*
X150930000Y-131994285D01*
X150949047Y-131975238D01*
X150987142Y-131956190D01*
X151063333Y-131937142D01*
X151158571Y-131937142D01*
X151234761Y-131956190D01*
X151272857Y-131975238D01*
X151291904Y-131994285D01*
X151310952Y-132032380D01*
X151310952Y-132070476D01*
X151291904Y-132108571D01*
X151272857Y-132127619D01*
X151234761Y-132146666D01*
X151158571Y-132165714D01*
X151063333Y-132165714D01*
X150987142Y-132146666D01*
X150949047Y-132127619D01*
X150930000Y-132108571D01*
X150910952Y-132070476D01*
X151310952Y-131765714D02*
X150910952Y-131765714D01*
X151158571Y-131727619D02*
X151310952Y-131613333D01*
X151044285Y-131613333D02*
X151196666Y-131765714D01*
G04 #@! TO.C,R3*
D12*
X152868333Y-138247380D02*
X152535000Y-137771190D01*
X152296904Y-138247380D02*
X152296904Y-137247380D01*
X152677857Y-137247380D01*
X152773095Y-137295000D01*
X152820714Y-137342619D01*
X152868333Y-137437857D01*
X152868333Y-137580714D01*
X152820714Y-137675952D01*
X152773095Y-137723571D01*
X152677857Y-137771190D01*
X152296904Y-137771190D01*
X153201666Y-137247380D02*
X153820714Y-137247380D01*
X153487380Y-137628333D01*
X153630238Y-137628333D01*
X153725476Y-137675952D01*
X153773095Y-137723571D01*
X153820714Y-137818809D01*
X153820714Y-138056904D01*
X153773095Y-138152142D01*
X153725476Y-138199761D01*
X153630238Y-138247380D01*
X153344523Y-138247380D01*
X153249285Y-138199761D01*
X153201666Y-138152142D01*
D15*
X151065714Y-138002142D02*
X151265714Y-138002142D01*
X150951428Y-138073571D02*
X151165714Y-138145000D01*
X151165714Y-137959285D01*
X151265714Y-137845000D02*
X150965714Y-137845000D01*
X151151428Y-137816428D02*
X151265714Y-137730714D01*
X151065714Y-137730714D02*
X151180000Y-137845000D01*
X150965714Y-137630714D02*
X150965714Y-137430714D01*
X151265714Y-137559285D01*
G04 #@! TO.C,LS1*
D12*
X138557142Y-146772380D02*
X138557142Y-147581904D01*
X138604761Y-147677142D01*
X138652380Y-147724761D01*
X138747619Y-147772380D01*
X138938095Y-147772380D01*
X139033333Y-147724761D01*
X139080952Y-147677142D01*
X139128571Y-147581904D01*
X139128571Y-146772380D01*
X139557142Y-147724761D02*
X139700000Y-147772380D01*
X139938095Y-147772380D01*
X140033333Y-147724761D01*
X140080952Y-147677142D01*
X140128571Y-147581904D01*
X140128571Y-147486666D01*
X140080952Y-147391428D01*
X140033333Y-147343809D01*
X139938095Y-147296190D01*
X139747619Y-147248571D01*
X139652380Y-147200952D01*
X139604761Y-147153333D01*
X139557142Y-147058095D01*
X139557142Y-146962857D01*
X139604761Y-146867619D01*
X139652380Y-146820000D01*
X139747619Y-146772380D01*
X139985714Y-146772380D01*
X140128571Y-146820000D01*
X140414285Y-146772380D02*
X140985714Y-146772380D01*
X140700000Y-147772380D02*
X140700000Y-146772380D01*
G04 #@! TO.C,SW3*
X129476666Y-44219761D02*
X129619523Y-44267380D01*
X129857619Y-44267380D01*
X129952857Y-44219761D01*
X130000476Y-44172142D01*
X130048095Y-44076904D01*
X130048095Y-43981666D01*
X130000476Y-43886428D01*
X129952857Y-43838809D01*
X129857619Y-43791190D01*
X129667142Y-43743571D01*
X129571904Y-43695952D01*
X129524285Y-43648333D01*
X129476666Y-43553095D01*
X129476666Y-43457857D01*
X129524285Y-43362619D01*
X129571904Y-43315000D01*
X129667142Y-43267380D01*
X129905238Y-43267380D01*
X130048095Y-43315000D01*
X130381428Y-43267380D02*
X130619523Y-44267380D01*
X130810000Y-43553095D01*
X131000476Y-44267380D01*
X131238571Y-43267380D01*
X131524285Y-43267380D02*
X132143333Y-43267380D01*
X131810000Y-43648333D01*
X131952857Y-43648333D01*
X132048095Y-43695952D01*
X132095714Y-43743571D01*
X132143333Y-43838809D01*
X132143333Y-44076904D01*
X132095714Y-44172142D01*
X132048095Y-44219761D01*
X131952857Y-44267380D01*
X131667142Y-44267380D01*
X131571904Y-44219761D01*
X131524285Y-44172142D01*
G04 #@! TO.C,SW4*
X144716666Y-44219761D02*
X144859523Y-44267380D01*
X145097619Y-44267380D01*
X145192857Y-44219761D01*
X145240476Y-44172142D01*
X145288095Y-44076904D01*
X145288095Y-43981666D01*
X145240476Y-43886428D01*
X145192857Y-43838809D01*
X145097619Y-43791190D01*
X144907142Y-43743571D01*
X144811904Y-43695952D01*
X144764285Y-43648333D01*
X144716666Y-43553095D01*
X144716666Y-43457857D01*
X144764285Y-43362619D01*
X144811904Y-43315000D01*
X144907142Y-43267380D01*
X145145238Y-43267380D01*
X145288095Y-43315000D01*
X145621428Y-43267380D02*
X145859523Y-44267380D01*
X146050000Y-43553095D01*
X146240476Y-44267380D01*
X146478571Y-43267380D01*
X147288095Y-43600714D02*
X147288095Y-44267380D01*
X147050000Y-43219761D02*
X146811904Y-43934047D01*
X147430952Y-43934047D01*
G04 #@! TD*
M02*
