G04 #@! TF.GenerationSoftware,KiCad,Pcbnew,(5.0.1)-3*
G04 #@! TF.CreationDate,2019-12-19T09:37:46+04:00*
G04 #@! TF.ProjectId,Roboarm,526F626F61726D2E6B696361645F7063,rev?*
G04 #@! TF.SameCoordinates,Original*
G04 #@! TF.FileFunction,Legend,Bot*
G04 #@! TF.FilePolarity,Positive*
%FSLAX46Y46*%
G04 Gerber Fmt 4.6, Leading zero omitted, Abs format (unit mm)*
G04 Created by KiCad (PCBNEW (5.0.1)-3) date 19.12.2019 09:37:46*
%MOMM*%
%LPD*%
G01*
G04 APERTURE LIST*
%ADD10C,0.120000*%
%ADD11C,0.150000*%
G04 APERTURE END LIST*
D10*
G04 #@! TO.C,R8*
X189265000Y-93590000D02*
X190465000Y-93590000D01*
X190465000Y-91830000D02*
X189265000Y-91830000D01*
G04 #@! TO.C,R9*
X189265000Y-96130000D02*
X190465000Y-96130000D01*
X190465000Y-94370000D02*
X189265000Y-94370000D01*
G04 #@! TO.C,R10*
X189265000Y-98670000D02*
X190465000Y-98670000D01*
X190465000Y-96910000D02*
X189265000Y-96910000D01*
G04 #@! TO.C,R11*
X190465000Y-99450000D02*
X189265000Y-99450000D01*
X189265000Y-101210000D02*
X190465000Y-101210000D01*
G04 #@! TO.C,R12*
X142840000Y-84210000D02*
X141640000Y-84210000D01*
X141640000Y-85970000D02*
X142840000Y-85970000D01*
G04 #@! TO.C,R13*
X141640000Y-88510000D02*
X142840000Y-88510000D01*
X142840000Y-86750000D02*
X141640000Y-86750000D01*
G04 #@! TO.C,R14*
X142840000Y-89290000D02*
X141640000Y-89290000D01*
X141640000Y-91050000D02*
X142840000Y-91050000D01*
G04 #@! TO.C,R15*
X141640000Y-93590000D02*
X142840000Y-93590000D01*
X142840000Y-91830000D02*
X141640000Y-91830000D01*
G04 #@! TO.C,R16*
X141640000Y-96130000D02*
X142840000Y-96130000D01*
X142840000Y-94370000D02*
X141640000Y-94370000D01*
G04 #@! TO.C,R17*
X142840000Y-96910000D02*
X141640000Y-96910000D01*
X141640000Y-98670000D02*
X142840000Y-98670000D01*
G04 #@! TO.C,R18*
X141640000Y-101210000D02*
X142840000Y-101210000D01*
X142840000Y-99450000D02*
X141640000Y-99450000D01*
G04 #@! TO.C,R19*
X142840000Y-101990000D02*
X141640000Y-101990000D01*
X141640000Y-103750000D02*
X142840000Y-103750000D01*
G04 #@! TO.C,R8*
D11*
X186856666Y-93162380D02*
X187190000Y-92686190D01*
X187428095Y-93162380D02*
X187428095Y-92162380D01*
X187047142Y-92162380D01*
X186951904Y-92210000D01*
X186904285Y-92257619D01*
X186856666Y-92352857D01*
X186856666Y-92495714D01*
X186904285Y-92590952D01*
X186951904Y-92638571D01*
X187047142Y-92686190D01*
X187428095Y-92686190D01*
X186285238Y-92590952D02*
X186380476Y-92543333D01*
X186428095Y-92495714D01*
X186475714Y-92400476D01*
X186475714Y-92352857D01*
X186428095Y-92257619D01*
X186380476Y-92210000D01*
X186285238Y-92162380D01*
X186094761Y-92162380D01*
X185999523Y-92210000D01*
X185951904Y-92257619D01*
X185904285Y-92352857D01*
X185904285Y-92400476D01*
X185951904Y-92495714D01*
X185999523Y-92543333D01*
X186094761Y-92590952D01*
X186285238Y-92590952D01*
X186380476Y-92638571D01*
X186428095Y-92686190D01*
X186475714Y-92781428D01*
X186475714Y-92971904D01*
X186428095Y-93067142D01*
X186380476Y-93114761D01*
X186285238Y-93162380D01*
X186094761Y-93162380D01*
X185999523Y-93114761D01*
X185951904Y-93067142D01*
X185904285Y-92971904D01*
X185904285Y-92781428D01*
X185951904Y-92686190D01*
X185999523Y-92638571D01*
X186094761Y-92590952D01*
X191079285Y-90257380D02*
X191555476Y-90257380D01*
X191603095Y-90733571D01*
X191555476Y-90685952D01*
X191460238Y-90638333D01*
X191222142Y-90638333D01*
X191126904Y-90685952D01*
X191079285Y-90733571D01*
X191031666Y-90828809D01*
X191031666Y-91066904D01*
X191079285Y-91162142D01*
X191126904Y-91209761D01*
X191222142Y-91257380D01*
X191460238Y-91257380D01*
X191555476Y-91209761D01*
X191603095Y-91162142D01*
X190412619Y-90257380D02*
X190317380Y-90257380D01*
X190222142Y-90305000D01*
X190174523Y-90352619D01*
X190126904Y-90447857D01*
X190079285Y-90638333D01*
X190079285Y-90876428D01*
X190126904Y-91066904D01*
X190174523Y-91162142D01*
X190222142Y-91209761D01*
X190317380Y-91257380D01*
X190412619Y-91257380D01*
X190507857Y-91209761D01*
X190555476Y-91162142D01*
X190603095Y-91066904D01*
X190650714Y-90876428D01*
X190650714Y-90638333D01*
X190603095Y-90447857D01*
X190555476Y-90352619D01*
X190507857Y-90305000D01*
X190412619Y-90257380D01*
X189460238Y-90257380D02*
X189365000Y-90257380D01*
X189269761Y-90305000D01*
X189222142Y-90352619D01*
X189174523Y-90447857D01*
X189126904Y-90638333D01*
X189126904Y-90876428D01*
X189174523Y-91066904D01*
X189222142Y-91162142D01*
X189269761Y-91209761D01*
X189365000Y-91257380D01*
X189460238Y-91257380D01*
X189555476Y-91209761D01*
X189603095Y-91162142D01*
X189650714Y-91066904D01*
X189698333Y-90876428D01*
X189698333Y-90638333D01*
X189650714Y-90447857D01*
X189603095Y-90352619D01*
X189555476Y-90305000D01*
X189460238Y-90257380D01*
X188126904Y-91257380D02*
X188460238Y-90781190D01*
X188698333Y-91257380D02*
X188698333Y-90257380D01*
X188317380Y-90257380D01*
X188222142Y-90305000D01*
X188174523Y-90352619D01*
X188126904Y-90447857D01*
X188126904Y-90590714D01*
X188174523Y-90685952D01*
X188222142Y-90733571D01*
X188317380Y-90781190D01*
X188698333Y-90781190D01*
G04 #@! TO.C,R9*
X186856666Y-95702380D02*
X187190000Y-95226190D01*
X187428095Y-95702380D02*
X187428095Y-94702380D01*
X187047142Y-94702380D01*
X186951904Y-94750000D01*
X186904285Y-94797619D01*
X186856666Y-94892857D01*
X186856666Y-95035714D01*
X186904285Y-95130952D01*
X186951904Y-95178571D01*
X187047142Y-95226190D01*
X187428095Y-95226190D01*
X186380476Y-95702380D02*
X186190000Y-95702380D01*
X186094761Y-95654761D01*
X186047142Y-95607142D01*
X185951904Y-95464285D01*
X185904285Y-95273809D01*
X185904285Y-94892857D01*
X185951904Y-94797619D01*
X185999523Y-94750000D01*
X186094761Y-94702380D01*
X186285238Y-94702380D01*
X186380476Y-94750000D01*
X186428095Y-94797619D01*
X186475714Y-94892857D01*
X186475714Y-95130952D01*
X186428095Y-95226190D01*
X186380476Y-95273809D01*
X186285238Y-95321428D01*
X186094761Y-95321428D01*
X185999523Y-95273809D01*
X185951904Y-95226190D01*
X185904285Y-95130952D01*
G04 #@! TO.C,R10*
X186697857Y-98242380D02*
X187031190Y-97766190D01*
X187269285Y-98242380D02*
X187269285Y-97242380D01*
X186888333Y-97242380D01*
X186793095Y-97290000D01*
X186745476Y-97337619D01*
X186697857Y-97432857D01*
X186697857Y-97575714D01*
X186745476Y-97670952D01*
X186793095Y-97718571D01*
X186888333Y-97766190D01*
X187269285Y-97766190D01*
X185745476Y-98242380D02*
X186316904Y-98242380D01*
X186031190Y-98242380D02*
X186031190Y-97242380D01*
X186126428Y-97385238D01*
X186221666Y-97480476D01*
X186316904Y-97528095D01*
X185126428Y-97242380D02*
X185031190Y-97242380D01*
X184935952Y-97290000D01*
X184888333Y-97337619D01*
X184840714Y-97432857D01*
X184793095Y-97623333D01*
X184793095Y-97861428D01*
X184840714Y-98051904D01*
X184888333Y-98147142D01*
X184935952Y-98194761D01*
X185031190Y-98242380D01*
X185126428Y-98242380D01*
X185221666Y-98194761D01*
X185269285Y-98147142D01*
X185316904Y-98051904D01*
X185364523Y-97861428D01*
X185364523Y-97623333D01*
X185316904Y-97432857D01*
X185269285Y-97337619D01*
X185221666Y-97290000D01*
X185126428Y-97242380D01*
G04 #@! TO.C,R11*
X186697857Y-100782380D02*
X187031190Y-100306190D01*
X187269285Y-100782380D02*
X187269285Y-99782380D01*
X186888333Y-99782380D01*
X186793095Y-99830000D01*
X186745476Y-99877619D01*
X186697857Y-99972857D01*
X186697857Y-100115714D01*
X186745476Y-100210952D01*
X186793095Y-100258571D01*
X186888333Y-100306190D01*
X187269285Y-100306190D01*
X185745476Y-100782380D02*
X186316904Y-100782380D01*
X186031190Y-100782380D02*
X186031190Y-99782380D01*
X186126428Y-99925238D01*
X186221666Y-100020476D01*
X186316904Y-100068095D01*
X184793095Y-100782380D02*
X185364523Y-100782380D01*
X185078809Y-100782380D02*
X185078809Y-99782380D01*
X185174047Y-99925238D01*
X185269285Y-100020476D01*
X185364523Y-100068095D01*
G04 #@! TO.C,R12*
X139072857Y-85542380D02*
X139406190Y-85066190D01*
X139644285Y-85542380D02*
X139644285Y-84542380D01*
X139263333Y-84542380D01*
X139168095Y-84590000D01*
X139120476Y-84637619D01*
X139072857Y-84732857D01*
X139072857Y-84875714D01*
X139120476Y-84970952D01*
X139168095Y-85018571D01*
X139263333Y-85066190D01*
X139644285Y-85066190D01*
X138120476Y-85542380D02*
X138691904Y-85542380D01*
X138406190Y-85542380D02*
X138406190Y-84542380D01*
X138501428Y-84685238D01*
X138596666Y-84780476D01*
X138691904Y-84828095D01*
X137739523Y-84637619D02*
X137691904Y-84590000D01*
X137596666Y-84542380D01*
X137358571Y-84542380D01*
X137263333Y-84590000D01*
X137215714Y-84637619D01*
X137168095Y-84732857D01*
X137168095Y-84828095D01*
X137215714Y-84970952D01*
X137787142Y-85542380D01*
X137168095Y-85542380D01*
X143454285Y-82792380D02*
X143930476Y-82792380D01*
X143978095Y-83268571D01*
X143930476Y-83220952D01*
X143835238Y-83173333D01*
X143597142Y-83173333D01*
X143501904Y-83220952D01*
X143454285Y-83268571D01*
X143406666Y-83363809D01*
X143406666Y-83601904D01*
X143454285Y-83697142D01*
X143501904Y-83744761D01*
X143597142Y-83792380D01*
X143835238Y-83792380D01*
X143930476Y-83744761D01*
X143978095Y-83697142D01*
X142787619Y-82792380D02*
X142692380Y-82792380D01*
X142597142Y-82840000D01*
X142549523Y-82887619D01*
X142501904Y-82982857D01*
X142454285Y-83173333D01*
X142454285Y-83411428D01*
X142501904Y-83601904D01*
X142549523Y-83697142D01*
X142597142Y-83744761D01*
X142692380Y-83792380D01*
X142787619Y-83792380D01*
X142882857Y-83744761D01*
X142930476Y-83697142D01*
X142978095Y-83601904D01*
X143025714Y-83411428D01*
X143025714Y-83173333D01*
X142978095Y-82982857D01*
X142930476Y-82887619D01*
X142882857Y-82840000D01*
X142787619Y-82792380D01*
X141835238Y-82792380D02*
X141740000Y-82792380D01*
X141644761Y-82840000D01*
X141597142Y-82887619D01*
X141549523Y-82982857D01*
X141501904Y-83173333D01*
X141501904Y-83411428D01*
X141549523Y-83601904D01*
X141597142Y-83697142D01*
X141644761Y-83744761D01*
X141740000Y-83792380D01*
X141835238Y-83792380D01*
X141930476Y-83744761D01*
X141978095Y-83697142D01*
X142025714Y-83601904D01*
X142073333Y-83411428D01*
X142073333Y-83173333D01*
X142025714Y-82982857D01*
X141978095Y-82887619D01*
X141930476Y-82840000D01*
X141835238Y-82792380D01*
X140501904Y-83792380D02*
X140835238Y-83316190D01*
X141073333Y-83792380D02*
X141073333Y-82792380D01*
X140692380Y-82792380D01*
X140597142Y-82840000D01*
X140549523Y-82887619D01*
X140501904Y-82982857D01*
X140501904Y-83125714D01*
X140549523Y-83220952D01*
X140597142Y-83268571D01*
X140692380Y-83316190D01*
X141073333Y-83316190D01*
G04 #@! TO.C,R13*
X139072857Y-88082380D02*
X139406190Y-87606190D01*
X139644285Y-88082380D02*
X139644285Y-87082380D01*
X139263333Y-87082380D01*
X139168095Y-87130000D01*
X139120476Y-87177619D01*
X139072857Y-87272857D01*
X139072857Y-87415714D01*
X139120476Y-87510952D01*
X139168095Y-87558571D01*
X139263333Y-87606190D01*
X139644285Y-87606190D01*
X138120476Y-88082380D02*
X138691904Y-88082380D01*
X138406190Y-88082380D02*
X138406190Y-87082380D01*
X138501428Y-87225238D01*
X138596666Y-87320476D01*
X138691904Y-87368095D01*
X137787142Y-87082380D02*
X137168095Y-87082380D01*
X137501428Y-87463333D01*
X137358571Y-87463333D01*
X137263333Y-87510952D01*
X137215714Y-87558571D01*
X137168095Y-87653809D01*
X137168095Y-87891904D01*
X137215714Y-87987142D01*
X137263333Y-88034761D01*
X137358571Y-88082380D01*
X137644285Y-88082380D01*
X137739523Y-88034761D01*
X137787142Y-87987142D01*
G04 #@! TO.C,R14*
X139072857Y-90622380D02*
X139406190Y-90146190D01*
X139644285Y-90622380D02*
X139644285Y-89622380D01*
X139263333Y-89622380D01*
X139168095Y-89670000D01*
X139120476Y-89717619D01*
X139072857Y-89812857D01*
X139072857Y-89955714D01*
X139120476Y-90050952D01*
X139168095Y-90098571D01*
X139263333Y-90146190D01*
X139644285Y-90146190D01*
X138120476Y-90622380D02*
X138691904Y-90622380D01*
X138406190Y-90622380D02*
X138406190Y-89622380D01*
X138501428Y-89765238D01*
X138596666Y-89860476D01*
X138691904Y-89908095D01*
X137263333Y-89955714D02*
X137263333Y-90622380D01*
X137501428Y-89574761D02*
X137739523Y-90289047D01*
X137120476Y-90289047D01*
G04 #@! TO.C,R15*
X139072857Y-93162380D02*
X139406190Y-92686190D01*
X139644285Y-93162380D02*
X139644285Y-92162380D01*
X139263333Y-92162380D01*
X139168095Y-92210000D01*
X139120476Y-92257619D01*
X139072857Y-92352857D01*
X139072857Y-92495714D01*
X139120476Y-92590952D01*
X139168095Y-92638571D01*
X139263333Y-92686190D01*
X139644285Y-92686190D01*
X138120476Y-93162380D02*
X138691904Y-93162380D01*
X138406190Y-93162380D02*
X138406190Y-92162380D01*
X138501428Y-92305238D01*
X138596666Y-92400476D01*
X138691904Y-92448095D01*
X137215714Y-92162380D02*
X137691904Y-92162380D01*
X137739523Y-92638571D01*
X137691904Y-92590952D01*
X137596666Y-92543333D01*
X137358571Y-92543333D01*
X137263333Y-92590952D01*
X137215714Y-92638571D01*
X137168095Y-92733809D01*
X137168095Y-92971904D01*
X137215714Y-93067142D01*
X137263333Y-93114761D01*
X137358571Y-93162380D01*
X137596666Y-93162380D01*
X137691904Y-93114761D01*
X137739523Y-93067142D01*
G04 #@! TO.C,R16*
X139072857Y-95702380D02*
X139406190Y-95226190D01*
X139644285Y-95702380D02*
X139644285Y-94702380D01*
X139263333Y-94702380D01*
X139168095Y-94750000D01*
X139120476Y-94797619D01*
X139072857Y-94892857D01*
X139072857Y-95035714D01*
X139120476Y-95130952D01*
X139168095Y-95178571D01*
X139263333Y-95226190D01*
X139644285Y-95226190D01*
X138120476Y-95702380D02*
X138691904Y-95702380D01*
X138406190Y-95702380D02*
X138406190Y-94702380D01*
X138501428Y-94845238D01*
X138596666Y-94940476D01*
X138691904Y-94988095D01*
X137263333Y-94702380D02*
X137453809Y-94702380D01*
X137549047Y-94750000D01*
X137596666Y-94797619D01*
X137691904Y-94940476D01*
X137739523Y-95130952D01*
X137739523Y-95511904D01*
X137691904Y-95607142D01*
X137644285Y-95654761D01*
X137549047Y-95702380D01*
X137358571Y-95702380D01*
X137263333Y-95654761D01*
X137215714Y-95607142D01*
X137168095Y-95511904D01*
X137168095Y-95273809D01*
X137215714Y-95178571D01*
X137263333Y-95130952D01*
X137358571Y-95083333D01*
X137549047Y-95083333D01*
X137644285Y-95130952D01*
X137691904Y-95178571D01*
X137739523Y-95273809D01*
G04 #@! TO.C,R17*
X139072857Y-98242380D02*
X139406190Y-97766190D01*
X139644285Y-98242380D02*
X139644285Y-97242380D01*
X139263333Y-97242380D01*
X139168095Y-97290000D01*
X139120476Y-97337619D01*
X139072857Y-97432857D01*
X139072857Y-97575714D01*
X139120476Y-97670952D01*
X139168095Y-97718571D01*
X139263333Y-97766190D01*
X139644285Y-97766190D01*
X138120476Y-98242380D02*
X138691904Y-98242380D01*
X138406190Y-98242380D02*
X138406190Y-97242380D01*
X138501428Y-97385238D01*
X138596666Y-97480476D01*
X138691904Y-97528095D01*
X137787142Y-97242380D02*
X137120476Y-97242380D01*
X137549047Y-98242380D01*
G04 #@! TO.C,R18*
X139072857Y-100782380D02*
X139406190Y-100306190D01*
X139644285Y-100782380D02*
X139644285Y-99782380D01*
X139263333Y-99782380D01*
X139168095Y-99830000D01*
X139120476Y-99877619D01*
X139072857Y-99972857D01*
X139072857Y-100115714D01*
X139120476Y-100210952D01*
X139168095Y-100258571D01*
X139263333Y-100306190D01*
X139644285Y-100306190D01*
X138120476Y-100782380D02*
X138691904Y-100782380D01*
X138406190Y-100782380D02*
X138406190Y-99782380D01*
X138501428Y-99925238D01*
X138596666Y-100020476D01*
X138691904Y-100068095D01*
X137549047Y-100210952D02*
X137644285Y-100163333D01*
X137691904Y-100115714D01*
X137739523Y-100020476D01*
X137739523Y-99972857D01*
X137691904Y-99877619D01*
X137644285Y-99830000D01*
X137549047Y-99782380D01*
X137358571Y-99782380D01*
X137263333Y-99830000D01*
X137215714Y-99877619D01*
X137168095Y-99972857D01*
X137168095Y-100020476D01*
X137215714Y-100115714D01*
X137263333Y-100163333D01*
X137358571Y-100210952D01*
X137549047Y-100210952D01*
X137644285Y-100258571D01*
X137691904Y-100306190D01*
X137739523Y-100401428D01*
X137739523Y-100591904D01*
X137691904Y-100687142D01*
X137644285Y-100734761D01*
X137549047Y-100782380D01*
X137358571Y-100782380D01*
X137263333Y-100734761D01*
X137215714Y-100687142D01*
X137168095Y-100591904D01*
X137168095Y-100401428D01*
X137215714Y-100306190D01*
X137263333Y-100258571D01*
X137358571Y-100210952D01*
G04 #@! TO.C,R19*
X139072857Y-103322380D02*
X139406190Y-102846190D01*
X139644285Y-103322380D02*
X139644285Y-102322380D01*
X139263333Y-102322380D01*
X139168095Y-102370000D01*
X139120476Y-102417619D01*
X139072857Y-102512857D01*
X139072857Y-102655714D01*
X139120476Y-102750952D01*
X139168095Y-102798571D01*
X139263333Y-102846190D01*
X139644285Y-102846190D01*
X138120476Y-103322380D02*
X138691904Y-103322380D01*
X138406190Y-103322380D02*
X138406190Y-102322380D01*
X138501428Y-102465238D01*
X138596666Y-102560476D01*
X138691904Y-102608095D01*
X137644285Y-103322380D02*
X137453809Y-103322380D01*
X137358571Y-103274761D01*
X137310952Y-103227142D01*
X137215714Y-103084285D01*
X137168095Y-102893809D01*
X137168095Y-102512857D01*
X137215714Y-102417619D01*
X137263333Y-102370000D01*
X137358571Y-102322380D01*
X137549047Y-102322380D01*
X137644285Y-102370000D01*
X137691904Y-102417619D01*
X137739523Y-102512857D01*
X137739523Y-102750952D01*
X137691904Y-102846190D01*
X137644285Y-102893809D01*
X137549047Y-102941428D01*
X137358571Y-102941428D01*
X137263333Y-102893809D01*
X137215714Y-102846190D01*
X137168095Y-102750952D01*
G04 #@! TD*
M02*
